<?xml version="1.0" encoding="UTF-8"?>
<svg xmlns="http://www.w3.org/2000/svg" xmlns:xlink="http://www.w3.org/1999/xlink" width="261pt" height="355pt" viewBox="0 0 261 355" version="1.1">
<defs>
<clipPath id="clip1">
  <path d="M 10.664062 0.585938 L 250.335938 0.585938 C 255.878906 0.585938 260.371094 4.78125 260.371094 9.957031 L 260.371094 345.042969 C 260.371094 350.21875 255.878906 354.414062 250.335938 354.414062 L 10.664062 354.414062 C 5.121094 354.414062 0.628906 350.21875 0.628906 345.042969 L 0.628906 9.957031 C 0.628906 4.78125 5.121094 0.585938 10.664062 0.585938 Z M 10.664062 0.585938 "/>
</clipPath>
<clipPath id="clip2">
  <path d="M 0 0 L 261 0 L 261 345 L 0 345 Z M 0 0 "/>
</clipPath>
<clipPath id="clip3">
  <path d="M 10.664062 0.585938 L 250.335938 0.585938 C 255.878906 0.585938 260.371094 4.78125 260.371094 9.957031 L 260.371094 345.042969 C 260.371094 350.21875 255.878906 354.414062 250.335938 354.414062 L 10.664062 354.414062 C 5.121094 354.414062 0.628906 350.21875 0.628906 345.042969 L 0.628906 9.957031 C 0.628906 4.78125 5.121094 0.585938 10.664062 0.585938 Z M 10.664062 0.585938 "/>
</clipPath>
<clipPath id="clip4">
  <path d="M 10.664062 0.585938 L 250.335938 0.585938 C 255.878906 0.585938 260.371094 4.78125 260.371094 9.957031 L 260.371094 345.042969 C 260.371094 350.21875 255.878906 354.414062 250.335938 354.414062 L 10.664062 354.414062 C 5.121094 354.414062 0.628906 350.21875 0.628906 345.042969 L 0.628906 9.957031 C 0.628906 4.78125 5.121094 0.585938 10.664062 0.585938 Z M 10.664062 0.585938 "/>
</clipPath>
</defs>
<g id="surface1">
<g clip-path="url(#clip1)" clip-rule="nonzero">
<rect x="0" y="0" width="261" height="355" style="fill:rgb(100%,100%,100%);fill-opacity:1;stroke:none;"/>
</g>
<g clip-path="url(#clip2)" clip-rule="nonzero">
<g clip-path="url(#clip3)" clip-rule="nonzero">
<path style=" stroke:none;fill-rule:nonzero;fill:rgb(0%,0%,0%);fill-opacity:1;" d="M 0 344.457031 L 383.972656 -10.542969 "/>
</g>
</g>
<g clip-path="url(#clip4)" clip-rule="nonzero">
<path style="fill:none;stroke-width:430;stroke-linecap:butt;stroke-linejoin:miter;stroke:rgb(0%,0%,100%);stroke-opacity:1;stroke-dasharray:3.67,3.67;stroke-miterlimit:4;" d="M 0 294.001353 L 306.001197 -8.998647 " transform="matrix(1.254808,0,0,1.171617,0,0)"/>
</g>
<path style="fill:none;stroke-width:0.5;stroke-linecap:butt;stroke-linejoin:miter;stroke:rgb(0%,0%,0%);stroke-opacity:1;stroke-miterlimit:4;" d="M 8.498563 0.50011 L 199.501437 0.50011 C 203.918822 0.50011 207.498803 4.080898 207.498803 8.498537 L 207.498803 294.501463 C 207.498803 298.919102 203.918822 302.49989 199.501437 302.49989 L 8.498563 302.49989 C 4.081178 302.49989 0.501197 298.919102 0.501197 294.501463 L 0.501197 8.498537 C 0.501197 4.080898 4.081178 0.50011 8.498563 0.50011 Z M 8.498563 0.50011 " transform="matrix(1.254808,0,0,1.171617,0,0)"/>
</g>
</svg>
