<svg width="500" height="700" viewBox="0 0 500 700" fill="none" xmlns="http://www.w3.org/2000/svg">
<path d="M0 50C0 22.3858 22.3858 0 50 0H450C477.614 0 500 22.3858 500 50V650C500 677.614 477.614 700 450 700H50C22.3858 700 0 677.614 0 650V50Z" fill="black"/>
<rect x="20" y="20" width="460" height="660" rx="50" fill="white"/>
<path fill-rule="evenodd" clip-rule="evenodd" d="M235.679 295.767L225.605 255.695C225.605 255.695 232.95 257.982 234.363 250.706C233.703 247.186 234.216 246.026 232.937 241.993C231.657 237.959 227.318 237.366 227.318 237.366C227.318 237.366 219.925 232.283 217.04 232.448C210.297 232.835 207.324 238.002 207.324 238.002C207.324 238.002 201.216 238.285 199.918 239.961C196.938 243.81 198.921 247.305 198.923 248.468C197.879 251.331 195.891 253.236 195.835 255.425C195.702 260.619 202.935 264.556 204.153 265.43C209.267 267.969 210.254 261.739 210.254 261.739L230.487 293.321L235.679 295.767" fill="white"/>
<path fill-rule="evenodd" clip-rule="evenodd" d="M235.679 295.767L224.585 246.861L221.519 248.261L235.679 295.767Z" fill="black"/>
<path fill-rule="evenodd" clip-rule="evenodd" d="M233.249 293.417L216.241 255.364L213.409 257.275L233.249 293.417Z" fill="black"/>
<path fill-rule="evenodd" clip-rule="evenodd" d="M230.487 293.321L209.409 256.632L207.322 258.821L230.487 293.321Z" fill="black"/>
<path fill-rule="evenodd" clip-rule="evenodd" d="M231.732 250.614C231.732 250.614 237.36 245.974 234.507 240.824C232.144 236.554 226.249 237.437 226.249 237.437C226.249 237.437 230.031 237.643 232.276 242.337C234.089 246.122 231.732 250.614 231.732 250.614" fill="black"/>
<path fill-rule="evenodd" clip-rule="evenodd" d="M198.587 247.539C197.506 244.459 197.99 240.918 200.514 238.647C201.73 237.555 203.416 237.113 205.009 237.019C205.695 236.983 207.01 236.977 207.733 237.444C208.94 234.225 211.559 230.808 217.251 231.008C220.598 231.126 224.081 232.635 225.839 234.824C228.235 237.808 228.277 241.696 228.277 241.696C228.277 241.696 227.209 238.727 224.53 236.284C222.384 234.332 219.804 233.683 216.743 233.748C207.942 233.936 206.702 242.864 206.702 242.864C206.702 242.864 206.693 241.096 207.264 238.927C206.766 238.936 206.208 238.748 205.746 238.708C204.366 238.586 203.114 238.84 201.834 239.373C198.877 240.608 198.475 244.465 198.921 247.305C200.032 246.598 201.348 246.384 202.807 247.031C203.145 247.179 203.201 247.711 202.78 247.803C199.023 248.625 197.132 250.934 196.776 254.803C196.475 258.072 198.558 261.921 201.585 263.26C201.308 262.637 201.134 261.965 201.097 261.293C201.026 260.044 201.837 258.692 203.169 258.69C203.43 258.687 203.59 259.006 203.448 259.219C202.98 259.929 202.461 260.441 202.461 261.341C202.461 262.323 203.088 263.302 203.699 264.02C205.211 265.792 207.669 266.46 209.131 264.198C209.219 264.06 209.467 264.162 209.398 264.321C208.836 265.638 208.112 266.755 206.534 266.83C205.087 266.9 203.833 266.088 202.844 265.104C202.428 264.687 202.074 264.202 201.793 263.679C197.961 263.869 195.367 258.518 195.186 255.343C195.047 252.897 196.362 249.22 198.587 247.539" fill="black"/>
<path fill-rule="evenodd" clip-rule="evenodd" d="M227.423 255.224C229.38 255.527 230.887 255.724 232.414 254.188C234.26 252.332 234.086 250.136 232.996 247.987C232.624 247.259 233.53 246.706 234.097 247.2C238.312 250.865 231.945 258.978 227.342 255.486C227.243 255.41 227.27 255.201 227.423 255.224Z" fill="black"/>
<path fill-rule="evenodd" clip-rule="evenodd" d="M207.789 247.261C208.718 245.643 210.692 245.066 212.256 245.861C212.372 245.256 212.577 244.664 212.812 244.151C214.061 241.403 216.92 240.401 219.174 242.653C219.3 242.778 219.129 242.954 218.985 242.879C216.897 241.78 215.184 242.496 214.282 244.611C213.968 245.348 213.762 246.225 213.847 247.033C213.922 247.734 214.235 247.717 214.662 248.192C214.889 248.445 214.879 248.835 214.631 249.069C213.623 250.019 212.568 248.782 212.289 247.83C212.222 247.598 212.188 247.359 212.171 247.114C211.543 246.895 210.945 246.658 210.248 246.803C209.443 246.972 208.89 247.778 208.569 248.471C207.847 250.028 207.757 251.838 208.051 253.504C208.088 253.711 207.829 253.799 207.716 253.631C206.47 251.783 206.722 249.119 207.789 247.261" fill="black"/>
<path fill-rule="evenodd" clip-rule="evenodd" d="M140.431 407.561L105.412 429.492C105.412 429.492 105.326 421.799 97.9672 422.696C94.8221 424.406 93.5604 424.279 90.1172 426.738C86.6743 429.199 87.4464 433.508 87.4464 433.508C87.4464 433.508 84.8886 442.107 85.9347 444.8C88.3791 451.097 94.2115 452.334 94.2115 452.334C94.2115 452.334 96.3614 458.058 98.3566 458.776C102.937 460.425 105.651 457.462 106.756 457.102C109.803 457.215 112.226 458.518 114.326 457.897C119.308 456.424 120.825 448.331 121.283 446.901C122.122 441.253 115.89 442.235 115.89 442.235L139.704 413.256L140.431 407.561" fill="white"/>
<path fill-rule="evenodd" clip-rule="evenodd" d="M140.431 407.561L97.3217 433.183L99.5976 435.667L140.431 407.561Z" fill="black"/>
<path fill-rule="evenodd" clip-rule="evenodd" d="M138.946 410.596L107.981 438.501L110.673 440.606L138.946 410.596Z" fill="black"/>
<path fill-rule="evenodd" clip-rule="evenodd" d="M139.704 413.256L111.291 444.612L114.017 445.922L139.704 413.256Z" fill="black"/>
<path fill-rule="evenodd" clip-rule="evenodd" d="M98.6896 425.227C98.6896 425.227 92.5419 421.305 88.521 425.601C85.1862 429.165 87.8444 434.504 87.8444 434.504C87.8444 434.504 86.8738 430.842 90.6483 427.259C93.6918 424.371 98.6896 425.227 98.6896 425.227" fill="black"/>
<path fill-rule="evenodd" clip-rule="evenodd" d="M105.976 457.709C103.378 459.686 99.8594 460.316 96.9231 458.613C95.5083 457.794 94.5689 456.327 93.9907 454.839C93.7418 454.197 93.3331 452.95 93.5526 452.117C90.1201 451.96 86.0622 450.522 84.4991 445.045C83.5808 441.824 83.9418 438.047 85.4835 435.699C87.5855 432.501 91.2703 431.262 91.2703 431.262C91.2703 431.262 88.7744 433.194 87.277 436.494C86.0789 439.135 86.2579 441.791 87.2622 444.685C90.1538 452.998 99.0265 451.428 99.0265 451.428C99.0265 451.428 97.3494 451.981 95.1097 452.108C95.2712 452.577 95.2648 453.165 95.3692 453.617C95.6787 454.967 96.3046 456.08 97.2071 457.135C99.2938 459.567 103.086 458.761 105.651 457.462C104.634 456.622 104.028 455.438 104.192 453.849C104.231 453.483 104.717 453.266 104.935 453.638C106.875 456.957 109.653 458.048 113.443 457.194C116.647 456.472 119.667 453.305 120.009 450.013C119.499 450.47 118.916 450.842 118.288 451.083C117.121 451.535 115.585 451.179 115.172 449.913C115.091 449.666 115.343 449.415 115.59 449.484C116.41 449.712 117.056 450.047 117.913 449.769C118.847 449.467 119.585 448.571 120.08 447.768C121.302 445.782 121.178 443.239 118.576 442.546C118.418 442.504 118.438 442.237 118.612 442.253C120.037 442.381 121.324 442.726 121.882 444.204C122.393 445.56 122.007 447.002 121.374 448.247C121.107 448.77 120.755 449.256 120.342 449.687C121.705 453.274 117.413 457.388 114.448 458.539C112.163 459.427 108.26 459.307 105.976 457.709" fill="black"/>
<path fill-rule="evenodd" clip-rule="evenodd" d="M104.404 427.908C104.089 425.953 103.813 424.459 101.88 423.477C99.5451 422.293 97.5099 423.136 95.8036 424.835C95.2243 425.413 94.4199 424.722 94.7145 424.03C96.9032 418.89 106.582 422.447 104.677 427.903C104.636 428.021 104.428 428.06 104.404 427.908" fill="black"/>
<path fill-rule="evenodd" clip-rule="evenodd" d="M102.876 449.04C101.05 448.653 99.8921 446.954 100.168 445.223C99.5573 445.296 98.9323 445.284 98.3694 445.219C95.3713 444.876 93.538 442.467 94.9843 439.627C95.0653 439.47 95.2867 439.579 95.2591 439.738C94.8558 442.063 96.064 443.471 98.3556 443.679C99.1529 443.75 100.053 443.674 100.793 443.346C101.439 443.057 101.326 442.766 101.645 442.214C101.815 441.919 102.189 441.81 102.489 441.973C103.703 442.638 102.853 444.024 102.032 444.583C101.833 444.717 101.614 444.825 101.387 444.915C101.372 445.581 101.331 446.221 101.684 446.841C102.091 447.556 103.028 447.833 103.787 447.925C105.491 448.132 107.24 447.659 108.734 446.866C108.922 446.767 109.084 446.987 108.96 447.146C107.585 448.902 104.972 449.482 102.876 449.04Z" fill="black"/>
<path fill-rule="evenodd" clip-rule="evenodd" d="M137.693 341.993C137.693 341.993 125.767 338.297 131.188 328.984C136.608 319.673 147.449 326.37 147.449 326.37C147.449 326.37 140.402 299.714 158.29 288.02C186.335 269.683 202.738 297.303 202.738 297.303C202.738 297.303 207.624 263.011 238.513 265.096C269.402 267.18 269.919 303.498 269.919 303.498C269.919 303.498 297.016 264.547 329.22 282.482C362.099 300.798 346.381 331.152 346.381 331.152C346.381 331.152 374.089 339.285 374.024 372.348C373.972 398.958 339.334 402.16 339.334 402.16C339.334 402.16 351.259 437.936 320.361 453.115C289.465 468.292 274.186 429.803 274.186 429.803C274.186 429.803 276.999 473.168 244.475 473.168C211.953 473.168 213.579 437.936 213.579 437.936C213.579 437.936 197.317 451.487 185.392 444.44C173.467 437.394 175.017 414.624 175.017 414.624C175.017 414.624 161.228 426.357 153.097 414.974C144.966 403.591 152.37 393.711 152.37 393.711C152.37 393.711 130.103 396.74 123.685 375.058C116.762 351.67 137.693 341.993 137.693 341.993Z" fill="black"/>
<path fill-rule="evenodd" clip-rule="evenodd" d="M142.477 342.26C142.477 342.26 135.227 337.587 138.277 331.692C141.266 325.912 149.805 330.066 149.805 330.066C149.805 330.066 147.845 302.113 165.832 291.301C192.141 275.492 203.864 304.249 203.864 304.249C203.864 304.249 210.936 272.056 239.233 273.963C267.529 275.871 268.096 309.536 268.096 309.536C268.096 309.536 291.738 274.147 321.962 289.208C351.592 303.975 338.137 330.817 338.137 330.817C338.137 330.817 367.055 341.174 364.851 371.124C363.062 395.436 335.988 399.176 335.988 399.176C335.988 399.176 346.201 429.789 317.898 443.693C289.593 457.595 273.554 424.494 273.554 424.494C273.554 424.494 274.716 464.018 244.923 464.018C215.13 464.018 215.043 434.341 215.043 434.341C215.043 434.341 200.372 443.951 189.635 437.187C176.064 428.64 177.032 412.186 177.032 412.186C177.032 412.186 167.024 419.568 158.332 410.152C151.014 402.225 154.47 391.859 154.47 391.859C154.47 391.859 136.582 388.402 131.704 372.344C125.209 350.964 142.477 342.26 142.477 342.26" fill="white"/>
<path fill-rule="evenodd" clip-rule="evenodd" d="M327.991 387.793C327.991 387.793 335.481 392.816 335.988 399.176C345.066 399.176 363.374 391.202 364.852 371.124C365.13 367.342 364.91 363.877 364.316 360.7C352.858 390.233 327.991 387.793 327.991 387.793Z" fill="#D3D2D2"/>
<path fill-rule="evenodd" clip-rule="evenodd" d="M318.442 427.137C290.139 441.042 274.1 407.942 274.1 407.942C274.1 407.942 275.262 447.464 245.469 447.464C215.676 447.464 215.589 417.787 215.589 417.787C215.589 417.787 200.918 427.397 190.18 420.633C176.609 412.086 177.578 395.63 177.578 395.63C177.578 395.63 167.569 403.014 158.877 393.598C151.56 385.671 155.015 375.305 155.015 375.305C155.015 375.305 137.128 371.85 132.25 355.79C132.105 355.315 131.986 354.851 131.863 354.386C130.073 358.934 129.429 364.86 131.704 372.344C136.582 388.402 154.47 391.859 154.47 391.859C154.47 391.859 151.014 402.225 158.332 410.152C167.024 419.568 177.032 412.186 177.032 412.186C177.032 412.186 176.064 428.64 189.635 437.187C200.372 443.951 215.043 434.341 215.043 434.341C215.043 434.341 215.13 464.018 244.923 464.018C274.716 464.018 273.554 424.494 273.554 424.494C273.554 424.494 289.507 459.343 320.133 443.354C344.395 430.684 344.097 397.625 327.991 387.793C331.786 402.16 330.124 421.399 318.442 427.137" fill="#D3D2D2"/>
<path fill-rule="evenodd" clip-rule="evenodd" d="M325.373 342.667L367.421 298.76C367.421 298.76 356.363 296.341 359.854 286.007C363.259 281.984 363.447 280.128 368.02 275.903C372.593 271.677 378.572 274.074 378.572 274.074C378.572 274.074 391.725 272.958 395.293 275.269C403.633 280.67 403.675 289.441 403.675 289.441C403.675 289.441 411.28 294.248 411.719 297.337C412.728 304.427 407.649 307.453 406.799 308.939C406.05 313.361 407.207 317.243 405.684 320.081C402.076 326.82 389.961 326.59 387.767 326.822C379.38 326.347 382.653 317.66 382.653 317.66L333.793 343.319L325.373 342.667" fill="white"/>
<path fill-rule="evenodd" clip-rule="evenodd" d="M325.373 342.667L375.156 288.206L378.057 292.226L325.373 342.667Z" fill="black"/>
<path fill-rule="evenodd" clip-rule="evenodd" d="M330.191 341.434L379.635 305.153L381.866 309.657L330.191 341.434Z" fill="black"/>
<path fill-rule="evenodd" clip-rule="evenodd" d="M333.793 343.319L387.449 311.744L388.527 316.063L333.793 343.319Z" fill="black"/>
<path fill-rule="evenodd" clip-rule="evenodd" d="M363.284 287.802C363.284 287.802 359.467 277.774 366.861 273.264C372.988 269.524 379.886 274.946 379.886 274.946C379.886 274.946 374.901 272.454 368.612 276.824C363.541 280.346 363.284 287.802 363.284 287.802" fill="black"/>
<path fill-rule="evenodd" clip-rule="evenodd" d="M407.906 307.995C411.531 304.842 413.49 299.961 411.912 295.223C411.152 292.94 409.321 291.147 407.35 289.87C406.502 289.322 404.821 288.359 403.56 288.428C404.357 283.437 403.495 277.158 396.072 273.274C391.706 270.987 386.156 270.38 382.314 271.901C377.078 273.973 374.194 278.914 374.194 278.914C374.194 278.914 377.72 275.894 382.923 274.722C387.089 273.785 390.861 274.833 394.726 277.146C405.843 283.792 400.933 296.108 400.933 296.108C400.933 296.108 402.231 293.857 403.08 290.669C403.71 291.04 404.56 291.207 405.177 291.492C407.031 292.341 408.448 293.574 409.698 295.192C412.579 298.923 410.286 304.147 407.649 307.453C406.743 305.739 405.215 304.509 402.879 304.275C402.337 304.22 401.881 304.854 402.352 305.281C406.558 309.067 407.295 313.395 404.934 318.6C402.94 323.001 397.476 326.406 392.629 325.916C393.439 325.317 394.148 324.589 394.686 323.756C395.684 322.21 395.632 319.891 393.931 318.918C393.598 318.727 393.163 319.016 393.188 319.391C393.271 320.64 393.562 321.672 392.905 322.825C392.192 324.081 390.678 324.876 389.373 325.347C386.15 326.514 382.523 325.579 382.299 321.622C382.286 321.381 381.895 321.333 381.866 321.586C381.627 323.679 381.74 325.635 383.703 326.881C385.503 328.023 387.696 327.898 389.68 327.356C390.513 327.128 391.319 326.766 392.06 326.299C396.821 329.333 404.032 324.378 406.573 320.45C408.534 317.421 409.528 311.762 407.906 307.995" fill="black"/>
<path fill-rule="evenodd" clip-rule="evenodd" d="M365.44 296.835C362.719 295.797 360.645 294.955 359.812 291.879C358.801 288.16 360.622 285.477 363.579 283.527C364.586 282.865 363.83 281.499 362.746 281.716C354.687 283.336 356.924 298.344 365.352 297.226C365.534 297.203 365.651 296.914 365.44 296.835Z" fill="black"/>
<path fill-rule="evenodd" clip-rule="evenodd" d="M396.342 300.941C396.331 298.197 394.228 296.021 391.65 295.899C391.94 295.041 392.108 294.139 392.183 293.308C392.583 288.886 389.657 285.525 385.139 286.762C384.884 286.833 384.976 287.183 385.214 287.191C388.686 287.304 390.354 289.466 389.967 292.829C389.833 293.999 389.456 295.271 388.761 296.238C388.155 297.086 387.767 296.835 386.876 297.132C386.401 297.289 386.129 297.793 386.277 298.274C386.874 300.223 389.121 299.411 390.172 298.396C390.427 298.147 390.645 297.864 390.844 297.565C391.806 297.743 392.744 297.877 393.531 298.567C394.439 299.367 394.558 300.8 394.464 301.92C394.253 304.438 393.052 306.817 391.463 308.734C391.264 308.975 391.532 309.272 391.798 309.14C394.736 307.684 396.354 304.092 396.342 300.941" fill="black"/>
<path fill-rule="evenodd" clip-rule="evenodd" d="M298.253 408.233L343.415 448.931C343.415 448.931 345.498 437.806 355.932 440.981C360.055 444.263 361.915 444.394 366.279 448.837C370.642 453.278 368.426 459.328 368.426 459.328C368.426 459.328 369.941 472.442 367.74 476.079C362.593 484.58 353.827 484.885 353.827 484.885C353.827 484.885 349.254 492.633 346.18 493.167C339.123 494.389 335.944 489.404 334.433 488.598C329.99 487.985 326.146 489.259 323.262 487.824C316.416 484.419 316.28 472.304 315.981 470.117C316.201 461.72 324.984 464.728 324.984 464.728L297.855 416.669L298.253 408.233" fill="white"/>
<path fill-rule="evenodd" clip-rule="evenodd" d="M298.253 408.233L354.197 456.342L350.267 459.364L298.253 408.233Z" fill="black"/>
<path fill-rule="evenodd" clip-rule="evenodd" d="M299.632 413.011L337.394 461.333L332.96 463.7L299.632 413.011Z" fill="black"/>
<path fill-rule="evenodd" clip-rule="evenodd" d="M297.855 416.669L331.043 469.342L326.759 470.55L297.855 416.669Z" fill="black"/>
<path fill-rule="evenodd" clip-rule="evenodd" d="M354.241 444.465C354.241 444.465 364.148 440.345 368.882 447.596C372.806 453.611 367.595 460.668 367.595 460.668C367.595 460.668 369.935 455.609 365.377 449.457C361.702 444.495 354.241 444.465 354.241 444.465" fill="black"/>
<path fill-rule="evenodd" clip-rule="evenodd" d="M335.408 489.678C338.671 493.204 343.61 495.014 348.298 493.296C350.556 492.468 352.293 490.58 353.509 488.571C354.032 487.709 354.944 485.999 354.838 484.741C359.85 485.386 366.099 484.335 369.757 476.795C371.908 472.362 372.348 466.798 370.711 463.003C368.48 457.832 363.456 455.099 363.456 455.099C363.456 455.099 366.582 458.533 367.909 463.698C368.972 467.833 368.039 471.634 365.846 475.57C359.538 486.882 347.08 482.347 347.08 482.347C347.08 482.347 349.369 483.575 352.582 484.327C352.23 484.969 352.088 485.823 351.822 486.451C351.031 488.328 349.84 489.78 348.262 491.08C344.621 494.073 339.33 491.94 335.944 489.404C337.631 488.447 338.811 486.882 338.976 484.54C339.016 483.998 338.365 483.561 337.955 484.044C334.297 488.362 329.994 489.23 324.718 487.028C320.261 485.168 316.69 479.81 317.036 474.951C317.657 475.742 318.406 476.429 319.254 476.941C320.832 477.893 323.149 477.768 324.07 476.041C324.25 475.702 323.946 475.275 323.571 475.311C322.326 475.432 321.305 475.755 320.133 475.133C318.856 474.457 318.015 472.969 317.505 471.678C316.238 468.493 317.063 464.837 321.012 464.495C321.253 464.475 321.29 464.081 321.035 464.062C318.938 463.884 316.983 464.058 315.799 466.059C314.713 467.892 314.905 470.081 315.506 472.046C315.759 472.873 316.146 473.666 316.634 474.394C313.746 479.243 318.917 486.302 322.921 488.724C326.007 490.59 331.694 491.411 335.408 489.678" fill="black"/>
<path fill-rule="evenodd" clip-rule="evenodd" d="M345.278 446.893C346.232 444.141 347.013 442.044 350.062 441.115C353.749 439.995 356.485 441.732 358.523 444.631C359.216 445.614 360.559 444.819 360.306 443.741C358.446 435.737 343.514 438.428 344.884 446.818C344.914 446.998 345.205 447.107 345.278 446.893Z" fill="black"/>
<path fill-rule="evenodd" clip-rule="evenodd" d="M342.109 477.904C344.853 477.812 346.965 475.644 347.009 473.061C347.873 473.325 348.781 473.465 349.614 473.515C354.044 473.783 357.315 470.755 355.943 466.276C355.867 466.025 355.518 466.128 355.516 466.364C355.509 469.838 353.398 471.573 350.026 471.289C348.85 471.186 347.567 470.849 346.579 470.186C345.715 469.604 345.954 469.21 345.634 468.327C345.46 467.858 344.947 467.603 344.47 467.764C342.54 468.419 343.419 470.642 344.468 471.661C344.723 471.908 345.012 472.117 345.318 472.308C345.171 473.277 345.064 474.216 344.399 475.022C343.624 475.953 342.197 476.117 341.073 476.058C338.552 475.924 336.137 474.794 334.174 473.264C333.927 473.074 333.638 473.35 333.778 473.612C335.32 476.506 338.96 478.013 342.109 477.904" fill="black"/>
<path fill-rule="evenodd" clip-rule="evenodd" d="M190.979 332.052L141.695 280.588C141.695 280.588 154.657 277.755 150.566 265.642C146.576 260.927 146.353 258.752 140.995 253.799C135.636 248.847 128.628 251.656 128.628 251.656C128.628 251.656 113.211 250.346 109.03 253.056C99.2534 259.387 99.205 269.668 99.205 269.668C99.205 269.668 90.2921 275.3 89.776 278.921C88.5938 287.231 94.5477 290.78 95.5435 292.519C96.4204 297.703 95.0649 302.253 96.8492 305.58C101.08 313.479 115.278 313.209 117.851 313.481C127.679 312.924 123.845 302.741 123.845 302.741L181.111 332.816L190.979 332.052" fill="white"/>
<path fill-rule="evenodd" clip-rule="evenodd" d="M190.979 332.052L132.631 268.22L129.232 272.933L190.979 332.052Z" fill="black"/>
<path fill-rule="evenodd" clip-rule="evenodd" d="M185.333 330.606L127.381 288.083L124.766 293.361L185.333 330.606Z" fill="black"/>
<path fill-rule="evenodd" clip-rule="evenodd" d="M181.111 332.816L118.223 295.809L116.96 300.87L181.111 332.816Z" fill="black"/>
<path fill-rule="evenodd" clip-rule="evenodd" d="M146.546 267.745C146.546 267.745 151.019 255.992 142.354 250.706C135.17 246.321 127.087 252.679 127.087 252.679C127.087 252.679 132.929 249.758 140.3 254.879C146.244 259.008 146.546 267.745 146.546 267.745" fill="black"/>
<path fill-rule="evenodd" clip-rule="evenodd" d="M94.2466 291.414C89.9972 287.721 87.7027 281.999 89.5498 276.445C90.4405 273.768 92.5877 271.669 94.8977 270.171C95.8922 269.528 97.861 268.398 99.3406 268.48C98.4052 262.63 99.4156 255.272 108.117 250.718C113.234 248.04 119.739 247.328 124.241 249.109C130.38 251.539 133.759 257.329 133.759 257.329C133.759 257.329 129.625 253.79 123.528 252.416C118.645 251.319 114.225 252.547 109.692 255.258C96.6636 263.047 102.418 277.483 102.418 277.483C102.418 277.483 100.898 274.842 99.9023 271.106C99.1636 271.541 98.1685 271.738 97.4431 272.071C95.2712 273.067 93.6104 274.513 92.1471 276.407C88.7692 280.781 91.4569 286.902 94.5478 290.78C95.6088 288.769 97.3992 287.329 100.137 287.053C100.771 286.988 101.306 287.733 100.754 288.231C95.8269 292.672 94.9623 297.743 97.7275 303.843C100.066 309.002 106.47 312.993 112.151 312.418C111.202 311.719 110.37 310.865 109.74 309.887C108.569 308.073 108.632 305.357 110.625 304.216C111.015 303.992 111.526 304.333 111.497 304.773C111.4 306.235 111.058 307.443 111.827 308.795C112.665 310.266 114.439 311.197 115.967 311.752C119.746 313.123 123.997 312.024 124.258 307.387C124.274 307.104 124.733 307.047 124.766 307.345C125.047 309.795 124.914 312.089 122.613 313.548C120.504 314.887 117.932 314.741 115.608 314.104C114.631 313.839 113.688 313.412 112.817 312.867C107.239 316.423 98.7858 310.616 95.8076 306.012C93.511 302.462 92.3455 295.83 94.2466 291.414" fill="black"/>
<path fill-rule="evenodd" clip-rule="evenodd" d="M144.02 278.334C147.209 277.119 149.637 276.129 150.616 272.523C151.8 268.166 149.666 265.022 146.198 262.735C145.02 261.961 145.905 260.36 147.175 260.615C156.621 262.513 153.999 280.101 144.12 278.793C143.908 278.766 143.771 278.429 144.02 278.334" fill="black"/>
<path fill-rule="evenodd" clip-rule="evenodd" d="M107.799 283.148C107.812 279.931 110.277 277.38 113.299 277.236C112.959 276.233 112.763 275.174 112.675 274.199C112.204 269.017 115.634 265.079 120.932 266.527C121.228 266.609 121.122 267.021 120.843 267.029C116.773 267.161 114.817 269.696 115.271 273.638C115.429 275.011 115.87 276.501 116.685 277.636C117.396 278.627 117.85 278.335 118.895 278.68C119.45 278.866 119.768 279.456 119.596 280.021C118.897 282.304 116.262 281.354 115.03 280.161C114.733 279.873 114.477 279.54 114.243 279.188C113.114 279.396 112.016 279.555 111.095 280.364C110.031 281.302 109.891 282.983 110.001 284.295C110.247 287.246 111.656 290.033 113.517 292.279C113.75 292.561 113.438 292.911 113.125 292.756C109.68 291.05 107.786 286.84 107.799 283.148" fill="black"/>
<path d="M211.792 340.333H233.667L240.958 320.292C241.099 319.909 241.145 319.497 241.093 319.092C241.041 318.687 240.892 318.301 240.659 317.966C240.426 317.631 240.116 317.357 239.755 317.167C239.393 316.977 238.992 316.877 238.583 316.875H227.792V310.5H232.375C232.707 310.5 233.024 310.368 233.259 310.134C233.493 309.9 233.625 309.582 233.625 309.25V304.542C233.625 304.206 233.495 303.884 233.262 303.643C233.028 303.402 232.71 303.261 232.375 303.25H226.375V297.25C226.394 297.063 226.371 296.874 226.309 296.697C226.247 296.519 226.148 296.357 226.017 296.222C225.886 296.087 225.727 295.983 225.551 295.916C225.376 295.848 225.188 295.82 225 295.833H220.375C220.044 295.833 219.726 295.965 219.491 296.199C219.257 296.434 219.125 296.752 219.125 297.083V303.083H213.125C212.782 303.083 212.454 303.219 212.212 303.462C211.969 303.704 211.833 304.032 211.833 304.375V309.083C211.833 309.251 211.867 309.417 211.932 309.572C211.998 309.726 212.094 309.866 212.214 309.982C212.335 310.099 212.477 310.19 212.634 310.25C212.79 310.311 212.957 310.339 213.125 310.333H217.667V316.708H206.875C206.467 316.71 206.065 316.81 205.704 317C205.343 317.19 205.032 317.464 204.799 317.799C204.566 318.134 204.418 318.521 204.365 318.926C204.313 319.33 204.36 319.742 204.5 320.125L211.792 340.333Z" fill="black"/>
<path d="M267.083 363.042C267.162 371.166 266.323 379.273 264.583 387.208H295.833C294.092 379.273 293.253 371.166 293.333 363.042L298.583 359.5C298.697 359.43 298.791 359.332 298.857 359.215C298.922 359.098 298.957 358.967 298.958 358.833V344.083C298.958 343.862 298.871 343.65 298.714 343.494C298.558 343.338 298.346 343.25 298.125 343.25H292.292C292.071 343.25 291.859 343.338 291.702 343.494C291.546 343.65 291.458 343.862 291.458 344.083V350.708H286.5V344.083C286.5 343.862 286.412 343.65 286.256 343.494C286.1 343.338 285.888 343.25 285.667 343.25H274.542C274.321 343.25 274.109 343.338 273.952 343.494C273.796 343.65 273.708 343.862 273.708 344.083V350.708H268.917V344.083C268.917 343.862 268.829 343.65 268.673 343.494C268.516 343.338 268.304 343.25 268.083 343.25H262.25C262.029 343.25 261.817 343.338 261.661 343.494C261.504 343.65 261.417 343.862 261.417 344.083V358.833C261.432 358.963 261.478 359.087 261.551 359.195C261.623 359.304 261.72 359.394 261.833 359.458L267.083 363.042ZM280.125 367.208C280.976 367.208 281.792 367.546 282.394 368.148C282.995 368.75 283.333 369.566 283.333 370.417V376.792H276.917V370.458C276.911 370.035 276.99 369.616 277.149 369.224C277.309 368.832 277.545 368.476 277.844 368.177C278.143 367.878 278.499 367.642 278.891 367.483C279.282 367.324 279.702 367.244 280.125 367.25V367.208Z" fill="black"/>
<path d="M302.167 395.167L299.292 392.917V389.625C299.297 389.518 299.281 389.41 299.244 389.309C299.206 389.208 299.149 389.116 299.075 389.038C299.001 388.96 298.912 388.898 298.813 388.856C298.714 388.813 298.607 388.791 298.5 388.792H261.75C261.529 388.792 261.317 388.879 261.161 389.036C261.004 389.192 260.917 389.404 260.917 389.625V392.917L258.042 395.125C257.94 395.205 257.858 395.306 257.8 395.421C257.743 395.536 257.711 395.663 257.708 395.792V403.167C257.719 403.38 257.811 403.582 257.967 403.729C258.122 403.877 258.328 403.959 258.542 403.958H301.667C301.774 403.964 301.881 403.948 301.982 403.91C302.083 403.873 302.176 403.816 302.254 403.742C302.332 403.668 302.394 403.578 302.436 403.48C302.478 403.381 302.5 403.274 302.5 403.167V395.833C302.507 395.703 302.48 395.573 302.422 395.456C302.363 395.339 302.275 395.239 302.167 395.167V395.167Z" fill="black"/>
<path d="M247.375 392.875L242.708 389.875V383.958C242.708 383.794 242.676 383.632 242.613 383.48C242.55 383.328 242.458 383.191 242.342 383.075C242.226 382.959 242.088 382.866 241.937 382.804C241.785 382.741 241.622 382.708 241.458 382.708H204.167C203.999 382.703 203.832 382.731 203.675 382.791C203.519 382.852 203.376 382.943 203.256 383.06C203.135 383.176 203.039 383.316 202.974 383.47C202.909 383.625 202.875 383.791 202.875 383.958V389.875L198.208 392.875C198.034 392.998 197.89 393.16 197.789 393.348C197.687 393.536 197.631 393.745 197.625 393.958V402.75C197.636 403.085 197.777 403.403 198.018 403.637C198.259 403.87 198.581 404 198.917 404H246.833C247.162 403.99 247.473 403.855 247.706 403.622C247.938 403.39 248.073 403.078 248.083 402.75V393.958C248.075 393.73 248.005 393.509 247.88 393.318C247.755 393.127 247.581 392.974 247.375 392.875V392.875Z" fill="black"/>
<path d="M237.875 348.833C238.218 348.833 238.546 348.697 238.788 348.455C239.031 348.213 239.167 347.884 239.167 347.542V343.167C239.167 342.999 239.133 342.833 239.068 342.678C239.002 342.524 238.907 342.384 238.786 342.268C238.665 342.151 238.523 342.06 238.366 342C238.21 341.939 238.043 341.911 237.875 341.917H207.583C207.418 341.911 207.253 341.939 207.098 342C206.944 342.061 206.804 342.153 206.687 342.27C206.569 342.387 206.477 342.527 206.417 342.681C206.356 342.836 206.328 343.001 206.333 343.167V347.542C206.328 347.709 206.356 347.876 206.416 348.033C206.477 348.189 206.568 348.332 206.684 348.453C206.801 348.573 206.941 348.669 207.095 348.734C207.25 348.8 207.416 348.833 207.583 348.833H213.042C213.577 359.725 212.339 370.631 209.375 381.125H236.125C233.122 370.639 231.883 359.726 232.458 348.833H237.875Z" fill="black"/>
<path d="M302.66 582H325.7C326.46 582 327.02 582.16 327.38 582.48C327.7 582.84 327.86 583.4 327.86 584.16V623.04C327.86 623.8 327.7 624.34 327.38 624.66C327.02 625.02 326.46 625.2 325.7 625.2H306.56C302.64 625.2 299.74 624.44 297.86 622.92C295.98 621.44 295.04 619.14 295.04 616.02V613.14C295.04 611.46 295.34 610.08 295.94 609C296.5 607.96 297.38 607.18 298.58 606.66C296.02 606.42 294.12 605.54 292.88 604.02C291.64 602.5 291.02 600.28 291.02 597.36V591.84C291.02 588.48 291.98 586 293.9 584.4C295.78 582.8 298.7 582 302.66 582ZM314.36 615V608.52H309.26C308.5 608.52 307.94 608.72 307.58 609.12C307.18 609.52 306.98 610.12 306.98 610.92V612.6C306.98 613.4 307.18 614 307.58 614.4C307.94 614.8 308.5 615 309.26 615H314.36ZM314.36 599.28V592.2H306.56C305.8 592.2 305.24 592.4 304.88 592.8C304.48 593.2 304.28 593.8 304.28 594.6V596.94C304.28 597.74 304.48 598.32 304.88 598.68C305.24 599.08 305.8 599.28 306.56 599.28H314.36ZM254.383 582H282.223C282.983 582 283.543 582.16 283.903 582.48C284.223 582.84 284.383 583.4 284.383 584.16V623.04C284.383 623.8 284.223 624.34 283.903 624.66C283.543 625.02 282.983 625.2 282.223 625.2H254.383C253.623 625.2 253.083 625.02 252.763 624.66C252.403 624.34 252.223 623.8 252.223 623.04V616.02C252.223 615.26 252.403 614.7 252.763 614.34C253.083 614.02 253.623 613.86 254.383 613.86H270.943V609.24H259.243C258.483 609.24 257.943 609.06 257.623 608.7C257.263 608.38 257.083 607.84 257.083 607.08V600.66C257.083 599.9 257.263 599.34 257.623 598.98C257.943 598.66 258.483 598.5 259.243 598.5H270.943V593.34H254.383C253.623 593.34 253.083 593.16 252.763 592.8C252.403 592.48 252.223 591.94 252.223 591.18V584.16C252.223 583.4 252.403 582.84 252.763 582.48C253.083 582.16 253.623 582 254.383 582ZM229.466 612.6L232.286 603.48H222.866L225.686 612.6C225.846 612.96 226.026 613.22 226.226 613.38C226.386 613.54 226.586 613.62 226.826 613.62H228.326C228.566 613.62 228.786 613.54 228.986 613.38C229.146 613.22 229.306 612.96 229.466 612.6ZM232.886 584.16C232.886 583.4 233.066 582.84 233.426 582.48C233.746 582.16 234.286 582 235.046 582H243.866C244.626 582 245.186 582.16 245.546 582.48C245.866 582.84 246.026 583.4 246.026 584.16V600C246.026 601.2 245.846 602.58 245.486 604.14C245.086 605.7 244.486 607.52 243.686 609.6L238.466 623.22C238.226 623.9 237.866 624.4 237.386 624.72C236.866 625.04 236.206 625.2 235.406 625.2H219.266C218.506 625.2 217.886 625.04 217.406 624.72C216.886 624.4 216.506 623.9 216.266 623.22L211.046 609.6C210.246 607.52 209.666 605.7 209.306 604.14C208.906 602.58 208.706 601.2 208.706 600V584.16C208.706 583.4 208.886 582.84 209.246 582.48C209.566 582.16 210.106 582 210.866 582H219.926C220.726 582 221.326 582.16 221.726 582.48C222.086 582.84 222.266 583.4 222.266 584.16V592.56H232.886V584.16ZM183.3 582H193.02C193.78 582 194.34 582.16 194.7 582.48C195.02 582.84 195.18 583.4 195.18 584.16V613.62H204C204.76 613.62 205.32 613.78 205.68 614.1C206 614.46 206.16 615.02 206.16 615.78V623.04C206.16 623.8 206 624.34 205.68 624.66C205.32 625.02 204.76 625.2 204 625.2H172.32C171.56 625.2 171.02 625.02 170.7 624.66C170.34 624.34 170.16 623.8 170.16 623.04V615.78C170.16 615.02 170.34 614.46 170.7 614.1C171.02 613.78 171.56 613.62 172.32 613.62H181.14V584.16C181.14 583.4 181.32 582.84 181.68 582.48C182 582.16 182.54 582 183.3 582ZM291.08 521.34C291.08 519.5 291.36 517.82 291.92 516.3C292.44 514.82 293.4 513.54 294.8 512.46C296.16 511.42 298.04 510.6 300.44 510C302.84 509.4 305.9 509.1 309.62 509.1C313.34 509.1 316.4 509.4 318.8 510C321.2 510.6 323.1 511.42 324.5 512.46C325.86 513.54 326.82 514.82 327.38 516.3C327.9 517.82 328.16 519.5 328.16 521.34V551.04C328.16 551.8 328 552.34 327.68 552.66C327.32 553.02 326.76 553.2 326 553.2H316.58C315.82 553.2 315.28 553.02 314.96 552.66C314.6 552.34 314.42 551.8 314.42 551.04V523.68C314.42 522.88 314.12 522.2 313.52 521.64C312.92 521.12 311.58 520.86 309.5 520.86C307.38 520.86 306.02 521.12 305.42 521.64C304.82 522.2 304.52 522.88 304.52 523.68V551.04C304.52 551.8 304.36 552.34 304.04 552.66C303.68 553.02 303.12 553.2 302.36 553.2H293.24C292.48 553.2 291.94 553.02 291.62 552.66C291.26 552.34 291.08 551.8 291.08 551.04V521.34ZM271.634 510H280.934C281.694 510 282.254 510.16 282.614 510.48C282.934 510.84 283.094 511.4 283.094 512.16V551.04C283.094 551.8 282.934 552.34 282.614 552.66C282.254 553.02 281.694 553.2 280.934 553.2H262.574C257.134 553.2 253.414 552.12 251.414 549.96C249.414 547.8 248.414 544.98 248.414 541.5V533.82C248.414 530.34 249.414 527.52 251.414 525.36C253.414 523.2 257.134 522.12 262.574 522.12H269.474V512.16C269.474 511.4 269.654 510.84 270.014 510.48C270.334 510.16 270.874 510 271.634 510ZM269.594 541.98V532.92H264.194C263.034 532.92 262.274 533.22 261.914 533.82C261.554 534.42 261.374 535.1 261.374 535.86V539.04C261.374 539.8 261.554 540.48 261.914 541.08C262.274 541.68 263.034 541.98 264.194 541.98H269.594Z" fill="black"/>
<path d="M197.34 118H174.3C173.54 118 172.98 117.84 172.62 117.52C172.3 117.16 172.14 116.6 172.14 115.84V76.96C172.14 76.2 172.3 75.66 172.62 75.34C172.98 74.98 173.54 74.8 174.3 74.8H193.44C197.36 74.8 200.26 75.56 202.14 77.08C204.02 78.56 204.96 80.86 204.96 83.98V86.86C204.96 88.54 204.66 89.92 204.06 91C203.5 92.04 202.62 92.82 201.42 93.34C203.98 93.58 205.88 94.46 207.12 95.98C208.36 97.5 208.98 99.72 208.98 102.64V108.16C208.98 111.52 208.02 114 206.1 115.6C204.22 117.2 201.3 118 197.34 118ZM185.64 85V91.48H190.74C191.5 91.48 192.06 91.28 192.42 90.88C192.82 90.48 193.02 89.88 193.02 89.08V87.4C193.02 86.6 192.82 86 192.42 85.6C192.06 85.2 191.5 85 190.74 85H185.64ZM185.64 100.72V107.8H193.44C194.2 107.8 194.76 107.6 195.12 107.2C195.52 106.8 195.72 106.2 195.72 105.4V103.06C195.72 102.26 195.52 101.68 195.12 101.32C194.76 100.92 194.2 100.72 193.44 100.72H185.64ZM245.617 118H217.777C217.017 118 216.457 117.84 216.097 117.52C215.777 117.16 215.617 116.6 215.617 115.84V76.96C215.617 76.2 215.777 75.66 216.097 75.34C216.457 74.98 217.017 74.8 217.777 74.8H245.617C246.377 74.8 246.917 74.98 247.237 75.34C247.597 75.66 247.777 76.2 247.777 76.96V83.98C247.777 84.74 247.597 85.3 247.237 85.66C246.917 85.98 246.377 86.14 245.617 86.14H229.057V90.76H240.757C241.517 90.76 242.057 90.94 242.377 91.3C242.737 91.62 242.917 92.16 242.917 92.92V99.34C242.917 100.1 242.737 100.66 242.377 101.02C242.057 101.34 241.517 101.5 240.757 101.5H229.057V106.66H245.617C246.377 106.66 246.917 106.84 247.237 107.2C247.597 107.52 247.777 108.06 247.777 108.82V115.84C247.777 116.6 247.597 117.16 247.237 117.52C246.917 117.84 246.377 118 245.617 118ZM270.534 87.4L267.714 96.52H277.134L274.314 87.4C274.154 87.04 273.974 86.78 273.774 86.62C273.614 86.46 273.414 86.38 273.174 86.38H271.674C271.434 86.38 271.214 86.46 271.014 86.62C270.854 86.78 270.694 87.04 270.534 87.4ZM267.114 115.84C267.114 116.6 266.934 117.16 266.574 117.52C266.254 117.84 265.714 118 264.954 118H256.134C255.374 118 254.814 117.84 254.454 117.52C254.134 117.16 253.974 116.6 253.974 115.84V100C253.974 98.8 254.154 97.42 254.514 95.86C254.914 94.3 255.514 92.48 256.314 90.4L261.534 76.78C261.774 76.1 262.134 75.6 262.614 75.28C263.134 74.96 263.794 74.8 264.594 74.8H280.734C281.494 74.8 282.114 74.96 282.594 75.28C283.114 75.6 283.494 76.1 283.734 76.78L288.954 90.4C289.754 92.48 290.334 94.3 290.694 95.86C291.094 97.42 291.294 98.8 291.294 100V115.84C291.294 116.6 291.114 117.16 290.754 117.52C290.434 117.84 289.894 118 289.134 118H280.074C279.274 118 278.674 117.84 278.274 117.52C277.914 117.16 277.734 116.6 277.734 115.84V107.44H267.114V115.84ZM316.7 118H306.98C306.22 118 305.66 117.84 305.3 117.52C304.98 117.16 304.82 116.6 304.82 115.84V86.38H296C295.24 86.38 294.68 86.22 294.32 85.9C294 85.54 293.84 84.98 293.84 84.22V76.96C293.84 76.2 294 75.66 294.32 75.34C294.68 74.98 295.24 74.8 296 74.8H327.68C328.44 74.8 328.98 74.98 329.3 75.34C329.66 75.66 329.84 76.2 329.84 76.96V84.22C329.84 84.98 329.66 85.54 329.3 85.9C328.98 86.22 328.44 86.38 327.68 86.38H318.86V115.84C318.86 116.6 318.68 117.16 318.32 117.52C318 117.84 317.46 118 316.7 118ZM208.92 178.66C208.92 180.5 208.64 182.18 208.08 183.7C207.56 185.18 206.6 186.46 205.2 187.54C203.84 188.58 201.96 189.4 199.56 190C197.16 190.6 194.1 190.9 190.38 190.9C186.66 190.9 183.6 190.6 181.2 190C178.8 189.4 176.9 188.58 175.5 187.54C174.14 186.46 173.18 185.18 172.62 183.7C172.1 182.18 171.84 180.5 171.84 178.66V148.96C171.84 148.2 172 147.66 172.32 147.34C172.68 146.98 173.24 146.8 174 146.8H183.42C184.18 146.8 184.72 146.98 185.04 147.34C185.4 147.66 185.58 148.2 185.58 148.96V176.32C185.58 177.12 185.88 177.8 186.48 178.36C187.08 178.88 188.42 179.14 190.5 179.14C192.62 179.14 193.98 178.88 194.58 178.36C195.18 177.8 195.48 177.12 195.48 176.32V148.96C195.48 148.2 195.64 147.66 195.96 147.34C196.32 146.98 196.88 146.8 197.64 146.8H206.76C207.52 146.8 208.06 146.98 208.38 147.34C208.74 147.66 208.92 148.2 208.92 148.96V178.66ZM228.366 190H219.066C218.306 190 217.746 189.84 217.386 189.52C217.066 189.16 216.906 188.6 216.906 187.84V148.96C216.906 148.2 217.066 147.66 217.386 147.34C217.746 146.98 218.306 146.8 219.066 146.8H237.426C242.866 146.8 246.586 147.88 248.586 150.04C250.586 152.2 251.586 155.02 251.586 158.5V166.18C251.586 169.66 250.586 172.48 248.586 174.64C246.586 176.8 242.866 177.88 237.426 177.88H230.526V187.84C230.526 188.6 230.346 189.16 229.986 189.52C229.666 189.84 229.126 190 228.366 190ZM230.406 158.02V167.08H235.806C236.966 167.08 237.726 166.78 238.086 166.18C238.446 165.58 238.626 164.9 238.626 164.14V160.96C238.626 160.2 238.446 159.52 238.086 158.92C237.726 158.32 236.966 158.02 235.806 158.02H230.406Z" fill="black"/>
</svg>
