<svg width="32" height="32" viewBox="0 0 32 32" fill="none" xmlns="http://www.w3.org/2000/svg">
<path d="M12.7762 20.0909C15.0384 20.8182 15.6039 31 11.6452 31H20.3548C16.3961 31 16.9616 20.8182 19.2238 20.0909H12.7762Z" fill="black"/>
<path d="M12.7762 20.0909C15.0384 20.8182 15.6039 31 11.6452 31H20.3548C16.3961 31 16.9616 20.8182 19.2238 20.0909M12.6129 20.0909H19.3871" stroke="black"/>
<path d="M16 1C13.871 1 1.48388 12.4286 1.24194 18.619C1.24194 22.9048 4.62904 25.2857 8.25807 25.2857C12.0791 25.2857 14.3065 22.7143 14.3065 21.9524H17.6936C17.6936 22.7143 19.9209 25.2857 23.7419 25.2857C27.371 25.2857 30.7581 22.9048 30.7581 18.619C30.5161 12.4286 18.129 1 16 1Z" fill="black" stroke="black"/>
</svg>
