<?xml version="1.0" encoding="UTF-8" standalone="no"?>
<svg
   xmlns:dc="http://purl.org/dc/elements/1.1/"
   xmlns:cc="http://creativecommons.org/ns#"
   xmlns:rdf="http://www.w3.org/1999/02/22-rdf-syntax-ns#"
   xmlns:svg="http://www.w3.org/2000/svg"
   xmlns="http://www.w3.org/2000/svg"
   xmlns:sodipodi="http://sodipodi.sourceforge.net/DTD/sodipodi-0.dtd"
   xmlns:inkscape="http://www.inkscape.org/namespaces/inkscape"
   version="1.1"
   id="svg2"
   xml:space="preserve"
   width="2829.3333"
   height="2829.3333"
   viewBox="0 0 2829.3333 2829.3333"
   sodipodi:docname="Explosion.eps"><metadata
     id="metadata8"><rdf:RDF><cc:Work
         rdf:about=""><dc:format>image/svg+xml</dc:format><dc:type
           rdf:resource="http://purl.org/dc/dcmitype/StillImage" /></cc:Work></rdf:RDF></metadata><defs
     id="defs6" /><sodipodi:namedview
     pagecolor="#ffffff"
     bordercolor="#666666"
     borderopacity="1"
     objecttolerance="10"
     gridtolerance="10"
     guidetolerance="10"
     inkscape:pageopacity="0"
     inkscape:pageshadow="2"
     inkscape:window-width="640"
     inkscape:window-height="480"
     id="namedview4" /><g
     id="g10"
     inkscape:groupmode="layer"
     inkscape:label="ink_ext_XXXXXX"
     transform="matrix(1.3333333,0,0,-1.3333333,0,2829.3333)"><g
       id="g12"
       transform="scale(0.1)"><path
         d="m 10222.8,13380 -481.39,1914.8 c 0,0 350.99,-109.3 418.49,238.4 -31.5,168.2 -7,223.6 -68.1,416.3 -61.2,192.8 -268.5,221.1 -268.5,221.1 0,0 -353.29,242.9 -491.12,235 -322.2,-18.5 -464.29,-265.4 -464.29,-265.4 0,0 -291.86,-13.5 -353.88,-93.6 -142.39,-183.9 -47.62,-350.9 -47.53,-406.5 -49.91,-136.8 -144.89,-227.8 -147.57,-332.4 -6.34,-248.2 339.27,-436.3 397.46,-478.1 244.36,-121.3 291.54,176.4 291.54,176.4 l 966.82,-1509.1 248.07,-116.9"
         style="fill:#ffffff;fill-opacity:1;fill-rule:evenodd;stroke:none"
         id="path14" /><path
         d="m 10222.8,13380 -530.12,2336.9 -146.47,-66.9 z"
         style="fill:#000000;fill-opacity:1;fill-rule:evenodd;stroke:none"
         id="path16" /><path
         d="m 10106.7,13492.3 -812.7,1818.3 -135.34,-91.3 z"
         style="fill:#000000;fill-opacity:1;fill-rule:evenodd;stroke:none"
         id="path18" /><path
         d="M 9974.73,13496.9 8967.55,15250 8867.8,15145.4 Z"
         style="fill:#000000;fill-opacity:1;fill-rule:evenodd;stroke:none"
         id="path20" /><path
         d="m 10034.2,15537.6 c 0,0 268.9,221.7 132.6,467.8 -112.9,204 -394.6,161.8 -394.6,161.8 0,0 180.7,-9.8 288,-234.1 86.6,-180.9 -26,-395.5 -26,-395.5"
         style="fill:#000000;fill-opacity:1;fill-rule:evenodd;stroke:none"
         id="path22" /><path
         d="m 8450.4,15684.5 c -51.64,147.2 -28.49,316.4 92.11,424.9 58.1,52.2 138.64,73.3 214.76,77.8 32.79,1.7 95.64,2 130.18,-20.3 57.69,153.8 182.83,317.1 454.79,307.5 159.92,-5.6 326.35,-77.7 410.35,-182.3 114.49,-142.6 116.54,-328.4 116.54,-328.4 0,0 -51.06,141.9 -179.08,258.6 -102.51,93.3 -225.79,124.3 -372.1,121.2 -420.51,-9 -479.78,-435.6 -479.78,-435.6 0,0 -0.41,84.5 26.85,188.1 -23.8,-0.4 -50.45,8.6 -72.5,10.5 -65.94,5.8 -125.77,-6.3 -186.96,-31.8 -141.29,-59 -160.49,-243.3 -139.17,-379 53.08,33.8 115.95,44 185.67,13.1 16.15,-7.1 18.81,-32.5 -1.29,-36.9 -179.51,-39.3 -269.86,-149.6 -286.89,-334.5 -14.37,-156.2 85.16,-340.1 229.81,-404.1 -13.25,29.8 -21.58,61.9 -23.36,94 -3.36,59.7 35.4,124.3 99.03,124.4 12.47,0.1 20.12,-15.1 13.35,-25.3 -22.39,-33.9 -47.16,-58.4 -47.16,-101.4 0,-46.9 29.93,-93.7 59.14,-128 72.26,-84.7 189.7,-116.6 259.54,-8.5 4.23,6.6 16.07,1.7 12.78,-5.9 -26.84,-62.9 -61.46,-116.3 -136.87,-119.9 -69.14,-3.3 -129.04,35.5 -176.32,82.5 -19.88,19.9 -36.76,43.1 -50.23,68.1 -183.07,-9.1 -307.04,246.6 -315.67,398.3 -6.65,116.9 56.2,292.6 162.48,372.9"
         style="fill:#000000;fill-opacity:1;fill-rule:evenodd;stroke:none"
         id="path24" /><path
         d="m 9828.3,15317.3 c 93.49,-14.5 165.53,-23.9 238.5,49.5 88.2,88.7 79.9,193.6 27.8,296.3 -17.8,34.8 25.5,61.2 52.6,37.6 201.4,-175.1 -102.8,-562.8 -322.77,-395.9 -4.71,3.6 -3.42,13.6 3.87,12.5"
         style="fill:#000000;fill-opacity:1;fill-rule:evenodd;stroke:none"
         id="path26" /><path
         d="m 8890.11,15697.8 c 44.41,77.3 138.71,104.9 213.44,66.9 5.56,28.9 15.37,57.2 26.6,81.7 59.69,131.3 196.28,179.2 304,71.6 5.99,-6 -2.19,-14.4 -9.06,-10.8 -99.78,52.5 -181.61,18.3 -224.73,-82.8 -14.98,-35.2 -24.82,-77.1 -20.75,-115.7 3.58,-33.5 18.51,-32.7 38.92,-55.4 10.87,-12.1 10.38,-30.7 -1.5,-41.9 -48.14,-45.4 -98.57,13.7 -111.87,59.2 -3.24,11.1 -4.85,22.5 -5.65,34.2 -30.01,10.5 -58.58,21.8 -91.89,14.9 -38.49,-8.1 -64.87,-46.6 -80.24,-79.7 -34.49,-74.4 -38.8,-160.9 -24.72,-240.5 1.73,-9.9 -10.63,-14.1 -16.03,-6.1 -59.54,88.3 -47.48,215.6 3.48,304.4"
         style="fill:#000000;fill-opacity:1;fill-rule:evenodd;stroke:none"
         id="path28" /><path
         d="M 5671.53,8038.1 3998.22,6990.2 c 0,0 -4.14,367.6 -355.76,324.7 -150.28,-81.7 -210.57,-75.6 -375.1,-193.1 -164.51,-117.6 -127.62,-323.5 -127.62,-323.5 0,0 -122.22,-410.9 -72.23,-539.6 116.8,-300.9 395.49,-360 395.49,-360 0,0 102.73,-273.5 198.07,-307.8 218.85,-78.8 348.57,62.8 401.34,80 145.6,-5.4 261.38,-67.7 361.72,-38 238.08,70.4 310.55,457.1 332.42,525.4 40.13,269.9 -257.68,223 -257.68,223 l 1137.92,1384.7 34.74,272.1"
         style="fill:#ffffff;fill-opacity:1;fill-rule:evenodd;stroke:none"
         id="path30" /><path
         d="M 5671.53,8038.1 3611.62,6813.8 3720.37,6695.1 Z"
         style="fill:#000000;fill-opacity:1;fill-rule:evenodd;stroke:none"
         id="path32" /><path
         d="m 5600.57,7893.1 -1479.6,-1333.4 128.6,-100.6 z"
         style="fill:#000000;fill-opacity:1;fill-rule:evenodd;stroke:none"
         id="path34" /><path
         d="M 5636.79,7766 4279.14,6267.7 4409.4,6205.1 Z"
         style="fill:#000000;fill-opacity:1;fill-rule:evenodd;stroke:none"
         id="path36" /><path
         d="m 3676.98,7194 c 0,0 -293.76,187.4 -485.89,-17.9 -159.35,-170.3 -32.33,-425.4 -32.33,-425.4 0,0 -46.38,175 133.98,346.2 145.43,138 384.24,97.1 384.24,97.1"
         style="fill:#000000;fill-opacity:1;fill-rule:evenodd;stroke:none"
         id="path38" /><path
         d="m 4025.14,5641.9 c -124.14,-94.5 -292.26,-124.6 -432.57,-43.2 -67.6,39.1 -112.49,109.2 -140.12,180.3 -11.89,30.7 -31.42,90.3 -20.93,130.1 -164.02,7.5 -357.92,76.2 -432.61,337.9 -43.88,153.9 -26.63,334.4 47.04,446.6 100.44,152.8 276.51,212 276.51,212 0,0 -119.26,-92.3 -190.81,-250 -57.25,-126.2 -48.7,-253.1 -0.71,-391.4 138.17,-397.2 562.14,-322.2 562.14,-322.2 0,0 -80.14,-26.4 -187.16,-32.5 7.72,-22.4 7.41,-50.5 12.4,-72.1 14.79,-64.5 44.7,-117.7 87.82,-168.1 99.71,-116.2 280.92,-77.7 403.5,-15.6 -48.62,40.1 -77.59,96.7 -69.72,172.6 1.83,17.5 25.07,27.9 35.5,10.1 92.71,-158.6 225.45,-210.7 406.55,-169.9 153.08,34.5 297.36,185.8 313.71,343.1 -24.34,-21.8 -52.21,-39.6 -82.22,-51.1 -55.78,-21.6 -129.18,-4.6 -148.89,55.9 -3.87,11.8 8.19,23.8 19.95,20.5 39.2,-10.9 70.06,-26.9 111.04,-13.6 44.63,14.4 79.87,57.2 103.53,95.6 58.39,94.9 52.47,216.4 -71.89,249.5 -7.55,2 -6.55,14.8 1.73,14 68.09,-6.1 129.58,-22.6 156.25,-93.2 24.43,-64.8 5.99,-133.7 -24.24,-193.2 -12.79,-25 -29.62,-48.2 -49.33,-68.8 65.11,-171.4 -139.95,-368 -281.63,-423 -109.21,-42.4 -295.69,-36.7 -404.84,39.7"
         style="fill:#000000;fill-opacity:1;fill-rule:evenodd;stroke:none"
         id="path40" /><path
         d="m 3950.03,7065.9 c -15.05,93.4 -28.23,164.8 -120.58,211.7 -111.59,56.6 -208.84,16.3 -290.37,-64.9 -27.68,-27.6 -66.12,5.4 -52.04,38.5 104.58,245.6 567.06,75.6 476.03,-185.1 -1.93,-5.6 -11.87,-7.5 -13.04,-0.2"
         style="fill:#000000;fill-opacity:1;fill-rule:evenodd;stroke:none"
         id="path42" /><path
         d="m 3877,6056.1 c -87.21,18.5 -142.56,99.7 -129.4,182.4 -29.16,-3.5 -59.02,-2.9 -85.92,0.2 -143.26,16.4 -230.86,131.5 -161.75,267.2 3.87,7.5 14.45,2.3 13.13,-5.3 -19.27,-111.1 38.46,-178.4 147.96,-188.3 38.1,-3.4 81.1,0.2 116.47,15.9 30.86,13.8 25.45,27.7 40.7,54.1 8.14,14.1 26,19.3 40.32,11.5 58.05,-31.8 17.42,-98 -21.8,-124.7 -9.52,-6.4 -20,-11.6 -30.84,-15.9 -0.71,-31.8 -2.66,-62.4 14.18,-92 19.44,-34.2 64.23,-47.4 100.51,-51.8 81.43,-9.9 165.01,12.7 236.39,50.6 8.96,4.7 16.71,-5.8 10.77,-13.4 -65.7,-83.9 -190.53,-111.6 -290.72,-90.5"
         style="fill:#000000;fill-opacity:1;fill-rule:evenodd;stroke:none"
         id="path44" /><path
         d="m 5540.69,11171.2 c 0,0 -569.84,176.6 -310.84,621.6 259,444.9 777.02,124.9 777.02,124.9 0,0 -336.71,1273.7 518.02,1832.5 1340.07,876.2 2123.86,-443.6 2123.86,-443.6 0,0 233.49,1638.6 1709.45,1539 1476,-99.6 1500.7,-1835 1500.7,-1835 0,0 1294.8,1861.2 2833.6,1004.2 1571.1,-875.2 820,-2325.6 820,-2325.6 0,0 1324,-388.6 1320.9,-1968.5 -2.5,-1271.5 -1657.6,-1424.5 -1657.6,-1424.5 0,0 569.8,-1709.5 -906.6,-2434.8 -1476.3,-725.2 -2206.4,1113.9 -2206.4,1113.9 0,0 134.4,-2072.1 -1419.7,-2072.1 -1554.02,0 -1476.31,1683.5 -1476.31,1683.5 0,0 -777.04,-647.5 -1346.85,-310.8 -569.84,336.7 -495.76,1424.7 -495.76,1424.7 0,0 -658.92,-560.6 -1047.42,-16.7 -388.52,543.9 -34.76,1016 -34.76,1016 0,0 -1063.97,-144.7 -1370.63,891.3 -330.84,1117.6 669.32,1580 669.32,1580"
         style="fill:#000000;fill-opacity:1;fill-rule:evenodd;stroke:none"
         id="path46" /><path
         d="m 5769.28,11158.4 c 0,0 -346.4,223.3 -200.7,505 142.85,276.2 550.89,77.7 550.89,77.7 0,0 -93.7,1335.7 765.81,1852.3 1257.14,755.4 1817.28,-618.7 1817.28,-618.7 0,0 337.93,1538.3 1690.04,1447.2 1352.1,-91.2 1379.2,-1699.8 1379.2,-1699.8 0,0 1129.7,1691 2573.9,971.3 1415.8,-705.6 772.9,-1988.2 772.9,-1988.2 0,0 1381.8,-494.9 1276.5,-1926 -85.5,-1161.7 -1379.2,-1340.4 -1379.2,-1340.4 0,0 488,-1462.8 -864.4,-2127.2 -1352.5,-664.3 -2118.9,917.4 -2118.9,917.4 0,0 55.5,-1888.6 -1368.1,-1888.6 -1423.58,0 -1427.74,1418.1 -1427.74,1418.1 0,0 -701.04,-459.2 -1214.1,-136 -648.49,408.4 -602.21,1194.6 -602.21,1194.6 0,0 -478.24,-352.7 -893.53,97.2 -349.7,378.8 -184.58,874.1 -184.58,874.1 0,0 -854.71,165.2 -1087.83,932.5 -310.33,1021.6 514.77,1437.5 514.77,1437.5"
         style="fill:#ffffff;fill-opacity:1;fill-rule:evenodd;stroke:none"
         id="path48" /><path
         d="m 14633.8,8982.7 c 0,0 357.9,-240 382.1,-543.9 433.8,0 1308.6,381 1379.2,1340.4 13.3,180.7 2.8,346.3 -25.6,498.1 C 15822,8866.1 14633.8,8982.7 14633.8,8982.7"
         style="fill:#d3d2d2;fill-opacity:1;fill-rule:evenodd;stroke:none"
         id="path50" /><path
         d="m 14177.5,7102.7 c -1352.4,-664.4 -2118.8,917.2 -2118.8,917.2 0,0 55.5,-1888.5 -1368.1,-1888.5 -1423.61,0 -1427.78,1418.1 -1427.78,1418.1 0,0 -701.04,-459.2 -1214.11,-136 -648.48,408.4 -602.17,1194.7 -602.17,1194.7 0,0 -478.27,-352.8 -893.61,97.1 -349.62,378.8 -184.53,874.1 -184.53,874.1 0,0 -854.7,165.1 -1087.81,932.5 -6.92,22.7 -12.61,44.9 -18.46,67.1 -85.53,-217.3 -116.3,-500.5 -7.62,-858.1 233.12,-767.3 1087.83,-932.5 1087.83,-932.5 0,0 -165.12,-495.3 184.58,-874.1 415.29,-449.9 893.53,-97.2 893.53,-97.2 0,0 -46.28,-786.2 602.21,-1194.6 513.06,-323.2 1214.1,136 1214.1,136 0,0 4.16,-1418.1 1427.74,-1418.1 1423.6,0 1368.1,1888.6 1368.1,1888.6 0,0 762.3,-1665.2 2225.7,-901.2 1159.3,605.4 1145.1,2185.1 375.5,2654.9 181.3,-686.5 101.9,-1605.8 -456.3,-1880"
         style="fill:#d3d2d2;fill-opacity:1;fill-rule:evenodd;stroke:none"
         id="path52" /><path
         d="m 14508.7,11139 2009.2,2098 c 0,0 -528.4,115.6 -361.6,609.4 162.7,192.2 171.7,280.9 390.2,482.8 218.5,201.9 504.2,87.4 504.2,87.4 0,0 628.5,53.3 799,-57.1 398.5,-258.1 400.5,-677.2 400.5,-677.2 0,0 363.4,-229.7 384.4,-377.3 48.2,-338.8 -194.5,-483.4 -235.1,-554.4 -35.8,-211.3 19.5,-396.8 -53.3,-532.4 -172.4,-322 -751.3,-311 -856.1,-322.1 -400.8,22.7 -244.4,437.8 -244.4,437.8 l -2334.7,-1226.1 -402.3,31.2"
         style="fill:#ffffff;fill-opacity:1;fill-rule:evenodd;stroke:none"
         id="path54" /><path
         d="m 14508.7,11139 2378.8,2602.3 138.6,-192.1 z"
         style="fill:#000000;fill-opacity:1;fill-rule:evenodd;stroke:none"
         id="path56" /><path
         d="m 14738.9,11197.9 2362.6,1733.6 106.6,-215.2 z"
         style="fill:#000000;fill-opacity:1;fill-rule:evenodd;stroke:none"
         id="path58" /><path
         d="m 14911,11107.8 2563.9,1508.8 51.5,-206.4 z"
         style="fill:#000000;fill-opacity:1;fill-rule:evenodd;stroke:none"
         id="path60" /><path
         d="m 16320.2,13760.6 c 0,0 -182.4,479.2 170.9,694.7 292.8,178.7 622.4,-80.4 622.4,-80.4 0,0 -238.2,119.1 -538.7,-89.7 -242.3,-168.3 -254.6,-524.6 -254.6,-524.6"
         style="fill:#000000;fill-opacity:1;fill-rule:evenodd;stroke:none"
         id="path62" /><path
         d="m 18452.4,12795.7 c 173.2,150.7 266.8,383.9 191.4,610.3 -36.3,109.1 -123.8,194.8 -218,255.8 -40.5,26.2 -120.8,72.2 -181.1,68.9 38.1,238.5 -3.1,538.5 -357.8,724.1 -208.6,109.3 -473.8,138.3 -657.4,65.6 -250.2,-99 -388,-335.1 -388,-335.1 0,0 168.5,144.3 417.1,200.3 199.1,44.8 379.3,-5.3 564,-115.8 531.2,-317.6 296.6,-906.1 296.6,-906.1 0,0 62,107.6 102.6,259.9 30.1,-17.7 70.7,-25.7 100.2,-39.3 88.6,-40.6 156.3,-99.5 216,-176.8 137.7,-178.3 28.1,-427.9 -97.9,-585.9 -43.3,81.9 -116.3,140.7 -227.9,151.9 -25.9,2.6 -47.7,-27.7 -25.2,-48.1 201,-180.9 236.2,-387.7 123.4,-636.4 -95.3,-210.3 -356.4,-373 -588,-349.6 38.7,28.6 72.6,63.4 98.3,103.2 47.7,73.9 45.2,184.7 -36.1,231.2 -15.9,9.1 -36.7,-4.7 -35.5,-22.6 4,-59.7 17.9,-109 -13.5,-164.1 -34.1,-60 -106.4,-98 -168.8,-120.5 -154,-55.8 -327.3,-11.1 -338,178 -0.6,11.5 -19.3,13.8 -20.7,1.7 -11.4,-100 -6,-193.5 87.8,-253 86,-54.6 190.8,-48.6 285.6,-22.7 39.8,10.9 78.3,28.2 113.7,50.5 227.5,-145 572.1,91.8 693.5,279.5 93.7,144.7 141.2,415.1 63.7,595.1"
         style="fill:#000000;fill-opacity:1;fill-rule:evenodd;stroke:none"
         id="path64" /><path
         d="m 16423.2,13329 c -130,49.6 -229.1,89.8 -268.9,236.8 -48.3,177.7 38.7,305.9 180,399.1 48.1,31.6 12,96.9 -39.8,86.5 -385.1,-77.4 -278.2,-794.5 124.5,-741.1 8.7,1.1 14.3,14.9 4.2,18.7"
         style="fill:#000000;fill-opacity:1;fill-rule:evenodd;stroke:none"
         id="path66" /><path
         d="m 17899.8,13132.8 c -0.5,131.1 -101,235.1 -224.2,240.9 13.9,41 21.9,84.1 25.5,123.8 19.1,211.3 -120.7,371.9 -336.6,312.8 -12.2,-3.4 -7.8,-20.1 3.6,-20.5 165.9,-5.4 245.6,-108.7 227.1,-269.4 -6.4,-55.9 -24.4,-116.7 -57.6,-162.9 -29,-40.5 -47.5,-28.5 -90.1,-42.7 -22.7,-7.5 -35.7,-31.6 -28.6,-54.6 28.5,-93.1 135.9,-54.3 186.1,-5.8 12.2,11.9 22.6,25.4 32.1,39.7 46,-8.5 90.8,-14.9 128.4,-47.9 43.4,-38.2 49.1,-106.7 44.6,-160.2 -10.1,-120.3 -67.5,-234 -143.4,-325.6 -9.5,-11.5 3.3,-25.7 16,-19.4 140.4,69.6 217.7,241.2 217.1,391.8"
         style="fill:#000000;fill-opacity:1;fill-rule:evenodd;stroke:none"
         id="path68" /><path
         d="m 13212.8,8006 2158,-1944.7 c 0,0 99.5,531.6 598.1,379.9 197,-156.8 285.9,-163.1 494.4,-375.4 208.5,-212.2 102.6,-501.3 102.6,-501.3 0,0 72.4,-626.6 -32.8,-800.4 -245.9,-406.2 -664.8,-420.8 -664.8,-420.8 0,0 -218.5,-370.2 -365.4,-395.7 -337.2,-58.4 -489.1,179.8 -561.3,218.3 -212.3,29.3 -396,-31.6 -533.8,37 -327.1,162.7 -333.6,741.6 -347.9,846.1 10.5,401.2 430.2,257.5 430.2,257.5 l -1296.3,2296.4 19,403.1"
         style="fill:#ffffff;fill-opacity:1;fill-rule:evenodd;stroke:none"
         id="path70" /><path
         d="M 13212.8,8006 15886,5707.2 15698.2,5562.8 Z"
         style="fill:#000000;fill-opacity:1;fill-rule:evenodd;stroke:none"
         id="path72" /><path
         d="m 13278.7,7777.7 1804.4,-2309 -211.9,-113.1 z"
         style="fill:#000000;fill-opacity:1;fill-rule:evenodd;stroke:none"
         id="path74" /><path
         d="M 13193.8,7602.9 14779.6,5086 14574.9,5028.3 Z"
         style="fill:#000000;fill-opacity:1;fill-rule:evenodd;stroke:none"
         id="path76" /><path
         d="m 15888.1,6274.7 c 0,0 473.4,196.9 699.6,-149.6 187.5,-287.4 -61.5,-624.6 -61.5,-624.6 0,0 111.8,241.7 -106,535.7 -175.6,237.1 -532.1,238.5 -532.1,238.5"
         style="fill:#000000;fill-opacity:1;fill-rule:evenodd;stroke:none"
         id="path78" /><path
         d="m 14988.2,4114.3 c 155.9,-168.5 391.9,-255 615.9,-172.9 107.9,39.6 190.9,129.8 249,225.8 25,41.2 68.6,122.9 63.5,183 239.5,-30.8 538.1,19.4 712.9,379.7 102.8,211.8 123.8,477.7 45.6,659 -106.6,247.1 -346.7,377.7 -346.7,377.7 0,0 149.4,-164.1 212.8,-410.9 50.8,-197.6 6.2,-379.2 -98.6,-567.3 -301.4,-540.5 -896.7,-323.8 -896.7,-323.8 0,0 109.4,-58.7 262.9,-94.6 -16.8,-30.7 -23.6,-71.5 -36.3,-101.5 -37.8,-89.7 -94.7,-159.1 -170.1,-221.2 -174,-143 -426.8,-41.1 -588.6,80.1 80.6,45.7 137,120.5 144.9,232.4 1.9,25.9 -29.2,46.8 -48.8,23.7 -174.8,-206.3 -380.4,-247.8 -632.5,-142.6 -213,88.9 -383.6,344.9 -367.1,577.1 29.7,-37.8 65.5,-70.6 106,-95.1 75.4,-45.5 186.1,-39.5 230.1,43 8.6,16.2 -5.9,36.6 -23.8,34.9 -59.5,-5.8 -108.3,-21.2 -164.3,8.5 -61,32.3 -101.2,103.4 -125.6,165.1 -60.5,152.2 -21.1,326.9 167.6,343.2 11.5,1 13.3,19.8 1.1,20.7 -100.2,8.5 -193.6,0.2 -250.2,-95.4 -51.9,-87.6 -42.7,-192.2 -14,-286.1 12.1,-39.5 30.6,-77.4 53.9,-112.2 -138,-231.7 109.1,-569 300.4,-684.7 147.5,-89.2 419.2,-128.4 596.7,-45.6"
         style="fill:#000000;fill-opacity:1;fill-rule:evenodd;stroke:none"
         id="path80" /><path
         d="m 15459.8,6158.7 c 45.6,131.5 82.9,231.7 228.6,276.1 176.2,53.5 306.9,-29.5 404.3,-168 33.1,-47 97.3,-9 85.2,42.5 -88.9,382.5 -802.4,253.9 -736.9,-147 1.4,-8.6 15.3,-13.8 18.8,-3.6"
         style="fill:#000000;fill-opacity:1;fill-rule:evenodd;stroke:none"
         id="path82" /><path
         d="m 15308.4,4676.9 c 131.1,4.4 232,108 234.1,231.4 41.3,-12.6 84.7,-19.3 124.5,-21.7 211.7,-12.8 368,131.9 302.4,345.9 -3.6,12 -20.3,7.1 -20.4,-4.2 -0.3,-166 -101.2,-248.9 -262.3,-235.3 -56.2,4.9 -117.5,21 -164.7,52.7 -41.3,27.8 -29.9,46.6 -45.2,88.8 -8.3,22.4 -32.8,34.6 -55.6,26.9 -92.2,-31.3 -50.2,-137.5 -0.1,-186.2 12.2,-11.8 26,-21.8 40.6,-30.9 -7,-46.3 -12.1,-91.2 -43.9,-129.7 -37,-44.5 -105.2,-52.3 -158.9,-49.5 -120.5,6.4 -235.9,60.4 -329.7,133.5 -11.8,9.1 -25.6,-4.1 -18.9,-16.6 73.7,-138.3 247.6,-210.3 398.1,-205.1"
         style="fill:#000000;fill-opacity:1;fill-rule:evenodd;stroke:none"
         id="path84" /><path
         d="m 8086.88,11646.2 -2354.94,2459.1 c 0,0 619.34,135.4 423.87,714.2 -190.67,225.3 -201.29,329.2 -457.34,565.9 -256.05,236.6 -590.93,102.4 -590.93,102.4 0,0 -736.66,62.6 -936.46,-66.9 -467.16,-302.5 -469.47,-793.8 -469.47,-793.8 0,0 -425.89,-269.1 -450.55,-442.1 -56.49,-397.1 228.01,-566.7 275.59,-649.8 41.9,-247.7 -22.87,-465.1 62.39,-624.1 202.16,-377.4 880.6,-364.5 1003.52,-377.5 469.64,26.6 286.43,513.2 286.43,513.2 l 2736.37,-1437.1 471.52,36.5"
         style="fill:#ffffff;fill-opacity:1;fill-rule:evenodd;stroke:none"
         id="path86" /><path
         d="m 8086.88,11646.2 -2788.04,3050.1 -162.46,-225.2 z"
         style="fill:#000000;fill-opacity:1;fill-rule:evenodd;stroke:none"
         id="path88" /><path
         d="M 7817.11,11715.3 5047.93,13747.2 4922.98,13495 Z"
         style="fill:#000000;fill-opacity:1;fill-rule:evenodd;stroke:none"
         id="path90" /><path
         d="M 7615.36,11609.7 4610.34,13378 4549.98,13136.2 Z"
         style="fill:#000000;fill-opacity:1;fill-rule:evenodd;stroke:none"
         id="path92" /><path
         d="m 5963.71,14719 c 0,0 213.76,561.6 -200.3,814.2 -343.25,209.5 -729.49,-94.3 -729.49,-94.3 0,0 279.12,139.6 631.35,-105.1 284.04,-197.3 298.44,-614.8 298.44,-614.8"
         style="fill:#000000;fill-opacity:1;fill-rule:evenodd;stroke:none"
         id="path94" /><path
         d="m 3464.68,13588 c -203.05,176.5 -312.69,449.9 -224.43,715.3 42.56,127.9 145.16,228.2 255.54,299.8 47.52,30.7 141.6,84.7 212.3,80.8 -44.7,279.5 3.58,631.1 419.36,848.7 244.5,128 555.34,162 770.47,76.9 293.32,-116.1 454.78,-392.8 454.78,-392.8 0,0 -197.54,169.1 -488.86,234.8 -233.3,52.4 -444.53,-6.3 -661.12,-135.8 -622.55,-372.2 -347.57,-1062 -347.57,-1062 0,0 -72.62,126.2 -120.22,304.7 -35.3,-20.8 -82.85,-30.2 -117.51,-46.1 -103.78,-47.6 -183.14,-116.7 -253.06,-207.2 -161.41,-209 -32.98,-501.5 114.71,-686.8 50.7,96.1 136.25,164.9 267.07,178.1 30.3,3.1 55.88,-32.5 29.5,-56.3 -235.45,-212.2 -276.76,-454.5 -144.63,-746 111.74,-246.5 417.76,-437.2 689.18,-409.7 -45.34,33.4 -85.07,74.2 -115.18,120.9 -55.96,86.7 -52.93,216.5 42.27,271 18.66,10.7 43.07,-5.6 41.66,-26.6 -4.63,-69.9 -20.96,-127.6 15.8,-192.2 40.03,-70.3 124.8,-114.8 197.83,-141.3 180.54,-65.5 383.7,-13 396.18,208.6 0.75,13.5 22.65,16.2 24.23,2 13.45,-117.1 7.07,-226.7 -102.85,-296.4 -100.8,-64 -223.67,-57 -334.71,-26.6 -46.69,12.7 -91.78,33.1 -133.39,59.1 -266.55,-169.9 -670.45,107.6 -812.76,327.6 -109.74,169.6 -165.43,486.5 -74.59,697.5"
         style="fill:#000000;fill-opacity:1;fill-rule:evenodd;stroke:none"
         id="path96" /><path
         d="m 5843,14213 c 152.42,58.1 268.43,105.4 315.2,277.7 56.56,208.2 -45.38,358.4 -211.11,467.7 -56.27,37 -13.98,113.5 46.67,101.3 451.4,-90.7 326.09,-931.1 -145.94,-868.6 -10.13,1.3 -16.71,17.4 -4.82,21.9"
         style="fill:#000000;fill-opacity:1;fill-rule:evenodd;stroke:none"
         id="path98" /><path
         d="m 4112.27,13983 c 0.61,153.7 118.39,275.6 262.78,282.5 -16.25,47.9 -25.58,98.5 -29.79,145.1 -22.51,247.6 141.38,435.8 394.54,366.6 14.15,-3.9 9.06,-23.6 -4.27,-24 -194.44,-6.3 -287.91,-127.4 -266.23,-315.8 7.55,-65.6 28.62,-136.8 67.55,-191 34,-47.4 55.66,-33.4 105.6,-49.9 26.55,-8.9 41.75,-37.1 33.52,-64.1 -33.4,-109.1 -159.34,-63.7 -218.17,-6.7 -14.22,13.8 -26.43,29.7 -37.61,46.5 -53.96,-9.9 -106.41,-17.5 -150.43,-56.2 -50.84,-44.8 -57.56,-125.1 -52.3,-187.8 11.79,-141 79.12,-274.2 168.04,-381.5 11.13,-13.5 -3.8,-30.2 -18.76,-22.8 -164.58,81.5 -255.12,282.7 -254.47,459.1"
         style="fill:#000000;fill-opacity:1;fill-rule:evenodd;stroke:none"
         id="path100" /></g></g></svg>
