<svg id="visual" viewBox="0 0 2000 500" width="2000" height="500" xmlns="http://www.w3.org/2000/svg" xmlns:xlink="http://www.w3.org/1999/xlink" version="1.1"><rect x="0" y="0" width="2000" height="500" fill="#002233"></rect><path d="M0 247L30.3 247.7C60.7 248.3 121.3 249.7 182 243.2C242.7 236.7 303.3 222.3 363.8 245.2C424.3 268 484.7 328 545.2 325.5C605.7 323 666.3 258 727 241.2C787.7 224.3 848.3 255.7 909 294.5C969.7 333.3 1030.3 379.7 1091 383.2C1151.7 386.7 1212.3 347.3 1273 340C1333.7 332.7 1394.3 357.3 1454.8 345.2C1515.3 333 1575.7 284 1636.2 254.5C1696.7 225 1757.3 215 1818 213.8C1878.7 212.7 1939.3 220.3 1969.7 224.2L2000 228L2000 501L1969.7 501C1939.3 501 1878.7 501 1818 501C1757.3 501 1696.7 501 1636.2 501C1575.7 501 1515.3 501 1454.8 501C1394.3 501 1333.7 501 1273 501C1212.3 501 1151.7 501 1091 501C1030.3 501 969.7 501 909 501C848.3 501 787.7 501 727 501C666.3 501 605.7 501 545.2 501C484.7 501 424.3 501 363.8 501C303.3 501 242.7 501 182 501C121.3 501 60.7 501 30.3 501L0 501Z" fill="#0066FF" stroke-linecap="round" stroke-linejoin="miter"></path></svg>