<svg width="500" height="500" viewBox="0 0 500 500" fill="none" xmlns="http://www.w3.org/2000/svg">
<g clip-path="url(#clip0_123_785)">
<ellipse cx="214.632" cy="258.344" rx="176.675" ry="176.925" transform="rotate(-15 214.632 258.344)" fill="#FFC3A2"/>
<ellipse cx="212.341" cy="258.958" rx="122.112" ry="122.237" transform="rotate(-15 212.341 258.958)" fill="#FF8D4D"/>
<path d="M400.526 247.654C416.631 276.504 363.199 337.008 281.182 382.793C209.712 422.691 140.12 438.247 112.746 422.497C110.765 421.358 130.459 403.918 128.936 402.448C127.353 400.92 104.571 415.348 103.516 413.457C87.4102 384.607 140.842 324.103 222.859 278.317C304.877 232.532 384.421 218.803 400.526 247.654Z" fill="#976F52"/>
<path d="M431.542 228.694C436.452 237.49 434.076 252.842 409.004 266.838C400.159 271.776 364.659 323.016 357.839 324.81C345.326 328.102 350.231 281.553 347.053 275.86C343.875 270.167 301.677 249.913 311.046 240.989C316.153 236.125 380.389 236.361 389.234 231.424C414.306 217.427 426.632 219.899 431.542 228.694Z" fill="#976F52"/>
<path d="M464.034 270.733C459.307 273.179 435.448 256.796 418.388 260.729C395.722 265.955 368.873 279.84 362.657 267.827C357.976 258.781 378.971 242.847 399.187 226.334C415.696 211.067 407.382 182.574 413.153 179.588C422.107 174.955 430.824 195.405 443.992 220.854C457.159 246.302 472.988 266.1 464.034 270.733Z" fill="#976F52"/>
<mask id="mask0_123_785" style="mask-type:alpha" maskUnits="userSpaceOnUse" x="100" y="178" width="367" height="251">
<path d="M400.526 247.654C416.631 276.504 363.199 337.008 281.182 382.793C209.712 422.691 140.12 438.247 112.746 422.497C110.765 421.358 130.459 403.918 128.936 402.448C127.353 400.92 104.571 415.348 103.516 413.457C87.4101 384.607 140.842 324.103 222.859 278.317C304.877 232.532 384.421 218.803 400.526 247.654Z" fill="#976F52"/>
<path d="M431.542 228.694C436.452 237.49 434.076 252.842 409.004 266.838C400.159 271.776 364.659 323.016 357.839 324.81C345.326 328.102 350.231 281.553 347.053 275.86C343.875 270.167 301.677 249.913 311.046 240.989C316.153 236.125 380.389 236.361 389.234 231.424C414.306 217.427 426.632 219.899 431.542 228.694Z" fill="#976F52"/>
<path d="M464.034 270.733C459.307 273.179 435.448 256.796 418.388 260.729C395.722 265.955 368.873 279.84 362.657 267.827C357.976 258.781 378.971 242.847 399.187 226.334C415.696 211.067 407.382 182.574 413.153 179.588C422.107 174.955 430.824 195.405 443.991 220.854C457.159 246.302 472.988 266.1 464.034 270.733Z" fill="#976F52"/>
</mask>
<g mask="url(#mask0_123_785)">
<path d="M203.88 374.07C203.65 373.658 203.797 373.137 204.21 372.907L208.687 370.408C209.099 370.178 209.62 370.325 209.85 370.737L231.513 409.543C231.743 409.955 231.595 410.476 231.183 410.706L226.706 413.205C226.293 413.435 225.773 413.288 225.543 412.876L203.88 374.07Z" fill="black" fill-opacity="0.27"/>
<path d="M244.56 355.766C244.215 355.147 244.436 354.366 245.054 354.021L248.786 351.938C249.404 351.593 250.185 351.815 250.53 352.433L271.776 390.492C272.121 391.11 271.9 391.891 271.282 392.236L267.55 394.319C266.932 394.664 266.151 394.443 265.806 393.825L244.56 355.766Z" fill="black" fill-opacity="0.27"/>
<path d="M280.38 335.769C280.035 335.151 280.257 334.37 280.875 334.025L284.606 331.942C285.224 331.597 286.005 331.818 286.35 332.436L307.597 370.496C307.942 371.114 307.72 371.895 307.102 372.24L303.371 374.323C302.753 374.668 301.972 374.447 301.627 373.828L280.38 335.769Z" fill="black" fill-opacity="0.27"/>
<path d="M314.534 312.788C314.189 312.17 314.411 311.389 315.029 311.043L318.76 308.961C319.378 308.615 320.159 308.837 320.504 309.455L341.751 347.514C342.096 348.132 341.874 348.913 341.256 349.258L337.525 351.341C336.907 351.686 336.126 351.465 335.781 350.847L314.534 312.788Z" fill="black" fill-opacity="0.27"/>
<path d="M343.829 288.115C343.484 287.496 343.705 286.715 344.323 286.37L348.054 284.287C348.673 283.942 349.454 284.164 349.799 284.782L371.045 322.841C371.39 323.459 371.169 324.24 370.55 324.585L366.819 326.668C366.201 327.013 365.42 326.792 365.075 326.174L343.829 288.115Z" fill="black" fill-opacity="0.27"/>
<path d="M153.533 394.345C153.188 393.727 153.409 392.946 154.027 392.601L157.759 390.518C158.377 390.173 159.158 390.395 159.503 391.013L180.749 429.072C181.094 429.69 180.873 430.471 180.255 430.816L176.523 432.899C175.905 433.244 175.124 433.023 174.779 432.405L153.533 394.345Z" fill="black" fill-opacity="0.27"/>
<ellipse cx="437.608" cy="215.453" rx="19.6573" ry="94.2266" transform="rotate(-29.1721 437.608 215.453)" fill="#7C5538"/>
<path d="M138.936 350.42C113.24 381.973 120.979 428.341 107.024 416.976C93.0699 405.612 102.589 370.82 128.286 339.267C153.983 307.715 186.126 291.349 200.081 302.714C214.035 314.079 164.633 318.868 138.936 350.42Z" fill="#C4C4C4" fill-opacity="0.33"/>
</g>
<ellipse cx="138.48" cy="367.756" rx="13.2778" ry="9.61496" transform="rotate(-29.1721 138.48 367.756)" fill="#B8854D"/>
<ellipse cx="138.08" cy="367.98" rx="10.9885" ry="7.78354" transform="rotate(-29.1721 138.08 367.98)" fill="#CF9E68"/>
<path d="M217.972 343.834C233.504 371.658 265.24 364.442 264.182 369.118C263.309 372.981 229.244 374.037 213.711 346.213C198.179 318.389 219.023 291.664 221.274 292.254C223.524 292.843 202.439 316.01 217.972 343.834Z" fill="white"/>
<path d="M215.598 345.16C231.13 372.984 265.4 364.609 264.343 369.284C263.469 373.147 226.869 375.362 211.337 347.539C195.804 319.715 218.999 291.5 221.25 292.09C223.5 292.679 200.065 317.336 215.598 345.16Z" fill="#CDCDCD"/>
<path d="M212.397 349.39C224.511 371.09 237.082 389.894 231.958 390.007C229.027 394.048 219.285 374.007 207.171 352.307C195.057 330.607 180.947 309.912 186.773 309.065C188.695 304.212 200.282 327.689 212.397 349.39Z" fill="#C93A2B"/>
<path d="M215.361 347.735C227.475 369.435 237.134 389.723 232.009 389.835C230.734 389.863 222.25 372.352 210.136 350.652C198.022 328.952 185.748 311.722 186.799 309.071C188.724 304.21 203.247 326.034 215.361 347.735Z" fill="#D6734B"/>
<path d="M263.064 323.552C275.178 345.252 287.75 364.057 282.625 364.169C279.694 368.21 269.952 348.17 257.838 326.469C245.724 304.769 231.615 284.074 237.441 283.227C239.363 278.375 250.95 301.852 263.064 323.552Z" fill="#C93A2B"/>
<path d="M266.029 321.897C278.143 343.597 287.801 363.885 282.677 363.997C281.401 364.025 272.917 346.514 260.803 324.814C248.689 303.114 236.416 285.884 237.466 283.233C239.392 278.372 253.915 300.196 266.029 321.897Z" fill="#D6734B"/>
<path d="M233.791 337.743C246.294 360.14 259.219 379.577 254.057 379.621C251.158 383.721 241.068 363.057 228.565 340.66C216.062 318.263 201.562 296.869 207.421 296.081C209.292 291.136 221.288 315.346 233.791 337.743Z" fill="#70743E"/>
<path d="M236.756 336.088C249.259 358.485 259.268 379.402 254.106 379.446C252.821 379.457 244.033 361.402 231.53 339.005C219.027 316.608 206.425 298.789 207.447 296.087C209.321 291.134 224.253 313.691 236.756 336.088Z" fill="#A9C39E"/>
<path d="M243.267 332.161C258.799 359.985 290.535 352.77 289.477 357.445C288.604 361.308 254.538 362.364 239.006 334.54C223.474 306.716 244.318 279.992 246.568 280.581C248.818 281.17 227.734 304.337 243.267 332.161Z" fill="white"/>
<path d="M240.892 333.487C256.425 361.311 290.695 352.935 289.638 357.611C288.764 361.474 252.164 363.689 236.632 335.865C221.099 308.041 244.294 279.827 246.544 280.416C248.794 281.006 225.36 305.663 240.892 333.487Z" fill="#CDCDCD"/>
<path d="M275.443 316.157C290.975 343.981 322.711 336.765 321.653 341.441C320.78 345.304 286.714 346.359 271.182 318.535C255.65 290.712 276.494 263.987 278.744 264.577C280.994 265.166 259.91 288.333 275.443 316.157Z" fill="white"/>
<path d="M273.068 317.483C288.601 345.307 322.871 336.931 321.814 341.607C320.94 345.47 284.34 347.685 268.808 319.861C253.275 292.037 276.47 263.823 278.72 264.413C280.971 265.002 257.536 289.659 273.068 317.483Z" fill="#CDCDCD"/>
<path d="M293.658 305.286C306.049 327.484 318.805 346.779 313.825 346.747C311.09 350.734 301.051 330.275 288.659 308.077C276.267 285.879 261.964 264.637 267.604 263.949C269.336 259.116 281.266 283.088 293.658 305.286Z" fill="#70743E"/>
<path d="M296.493 303.703C308.885 325.901 318.85 346.607 313.87 346.575C312.631 346.567 303.887 328.692 291.495 306.493C279.103 284.295 266.683 266.596 267.629 263.955C269.364 259.114 284.102 281.505 296.493 303.703Z" fill="#A9C39E"/>
<path d="M169.804 374.15C185.336 401.974 217.072 394.758 216.014 399.434C215.141 403.297 181.076 404.352 165.543 376.529C150.011 348.705 170.855 321.98 173.106 322.57C175.356 323.159 154.271 346.326 169.804 374.15Z" fill="white"/>
<path d="M167.43 375.475C182.962 403.299 217.232 394.924 216.175 399.6C215.301 403.462 178.701 405.678 163.169 377.854C147.636 350.03 170.831 321.816 173.082 322.405C175.332 322.995 151.897 347.652 167.43 375.475Z" fill="#CDCDCD"/>
<path d="M188.019 363.28C200.411 385.478 213.166 404.772 208.186 404.74C205.451 408.727 195.412 388.268 183.02 366.07C170.628 343.872 156.325 322.63 161.965 321.942C163.697 317.109 175.627 341.081 188.019 363.28Z" fill="#70743E"/>
<path d="M190.855 361.696C203.246 383.894 213.211 404.6 208.231 404.568C206.992 404.56 198.248 386.685 185.856 364.487C173.464 342.289 161.044 324.589 161.99 321.948C163.725 317.107 178.463 339.498 190.855 361.696Z" fill="#A9C39E"/>
<path d="M196.079 354.588C211.611 382.412 243.346 375.196 242.289 379.872C241.416 383.735 207.35 384.79 191.818 356.967C176.285 329.143 197.13 302.418 199.38 303.008C201.63 303.597 180.546 326.764 196.079 354.588Z" fill="white"/>
<path d="M193.704 355.913C209.237 383.737 243.507 375.362 242.449 380.038C241.576 383.9 204.976 386.116 189.443 358.292C173.911 330.468 197.106 302.254 199.356 302.843C201.606 303.433 178.172 328.089 193.704 355.913Z" fill="#CDCDCD"/>
<path d="M319.745 295.336C331.859 317.036 344.431 335.841 339.307 335.953C336.376 339.994 326.634 319.954 314.519 298.253C302.405 276.553 288.296 255.858 294.122 255.011C296.044 250.159 307.631 273.636 319.745 295.336Z" fill="#C93A2B"/>
<path d="M322.71 293.681C334.824 315.381 344.482 335.669 339.358 335.781C338.082 335.809 329.598 318.299 317.484 296.598C305.37 274.898 293.097 257.668 294.147 255.017C296.073 250.156 310.596 271.981 322.71 293.681Z" fill="#D6734B"/>
<path d="M303.427 300.534C318.96 328.358 350.695 321.143 349.638 325.818C348.764 329.681 314.699 330.737 299.167 302.913C283.634 275.089 304.479 248.365 306.729 248.954C308.979 249.543 287.895 272.71 303.427 300.534Z" fill="white"/>
<path d="M301.053 301.86C316.585 329.684 350.855 321.308 349.798 325.984C348.925 329.847 312.325 332.062 296.792 304.238C281.26 276.414 304.455 248.2 306.705 248.79C308.955 249.379 285.52 274.036 301.053 301.86Z" fill="#CDCDCD"/>
<circle cx="160.912" cy="188.182" r="68.7787" transform="rotate(-15 160.912 188.182)" fill="#E7E7E7"/>
<mask id="mask1_123_785" style="mask-type:alpha" maskUnits="userSpaceOnUse" x="92" y="119" width="138" height="138">
<circle cx="160.912" cy="188.182" r="68.7787" transform="rotate(-15 160.912 188.182)" fill="#C4C4C4"/>
</mask>
<g mask="url(#mask1_123_785)">
<path d="M129.822 132.854C130.514 135.439 125.787 131.081 121.689 132.179C117.592 133.277 115.676 139.415 114.984 136.83C114.291 134.245 117.051 131.26 121.149 130.162C125.246 129.064 129.129 130.269 129.822 132.854Z" fill="#D9D8D8"/>
<path d="M125.229 139.168C125.641 136.524 128.203 142.422 132.394 143.075C136.585 143.728 140.82 138.89 140.408 141.534C139.996 144.178 136.264 145.792 132.072 145.138C127.881 144.485 124.817 141.812 125.229 139.168Z" fill="#D9D8D8"/>
<path d="M131.828 169.011C129.829 167.232 136.173 168.273 138.993 165.104C141.812 161.934 140.039 155.754 142.038 157.533C144.037 159.311 143.373 163.322 140.553 166.492C137.734 169.661 133.828 170.789 131.828 169.011Z" fill="#D9D8D8"/>
<path d="M127.365 148.534C129.752 147.324 126.462 152.848 128.381 156.631C130.299 160.415 136.7 161.025 134.313 162.235C131.927 163.445 128.437 161.359 126.518 157.576C124.599 153.793 124.979 149.744 127.365 148.534Z" fill="#D9D8D8"/>
<path d="M120.444 139.648C123.11 139.876 117.404 142.839 117.043 147.066C116.681 151.293 121.801 155.182 119.135 154.954C116.469 154.726 114.6 151.115 114.962 146.888C115.323 142.661 117.778 139.42 120.444 139.648Z" fill="#D9D8D8"/>
<path d="M172.576 168.014C170.309 166.592 176.738 166.564 178.991 162.97C181.245 159.376 178.468 153.577 180.735 154.998C183.003 156.419 183.014 160.485 180.761 164.079C178.508 167.673 174.843 169.435 172.576 168.014Z" fill="#D9D8D8"/>
<path d="M171.64 160.263C173.139 162.48 167.247 159.905 163.733 162.281C160.219 164.656 160.412 171.083 158.913 168.866C157.415 166.649 159.049 162.926 162.563 160.55C166.078 158.175 170.142 158.046 171.64 160.263Z" fill="#D9D8D8"/>
<path d="M146.486 142.901C149.161 142.842 143.806 146.4 143.899 150.641C143.993 154.882 149.5 158.2 146.825 158.259C144.15 158.318 141.905 154.928 141.812 150.687C141.718 146.446 143.811 142.96 146.486 142.901Z" fill="#D9D8D8"/>
<path d="M163.698 154.859C162.774 157.37 161.422 151.084 157.441 149.62C153.459 148.156 148.357 152.068 149.28 149.556C150.204 147.045 154.18 146.196 158.162 147.66C162.143 149.124 164.622 152.347 163.698 154.859Z" fill="#D9D8D8"/>
<path d="M174.818 156.653C172.71 158.301 174.871 152.246 172.257 148.904C169.644 145.563 163.246 146.201 165.354 144.552C167.462 142.904 171.289 144.276 173.902 147.618C176.516 150.959 176.926 155.004 174.818 156.653Z" fill="#D9D8D8"/>
<path d="M160.965 140.499C158.697 139.077 165.127 139.049 167.38 135.455C169.633 131.861 166.856 126.061 169.124 127.483C171.391 128.904 171.402 132.97 169.149 136.564C166.896 140.158 163.232 141.92 160.965 140.499Z" fill="#D9D8D8"/>
<path d="M160.029 132.748C161.527 134.965 155.636 132.39 152.121 134.766C148.607 137.141 148.801 143.568 147.302 141.351C145.803 139.134 147.438 135.411 150.952 133.035C154.466 130.66 158.53 130.531 160.029 132.748Z" fill="#D9D8D8"/>
<path d="M134.874 115.386C137.55 115.327 132.194 118.885 132.288 123.126C132.382 127.367 137.889 130.685 135.213 130.744C132.538 130.803 130.294 127.413 130.2 123.172C130.106 118.931 132.199 115.445 134.874 115.386Z" fill="#D9D8D8"/>
<path d="M152.086 127.343C151.163 129.854 149.81 123.569 145.829 122.104C141.848 120.64 136.745 124.552 137.669 122.041C138.592 119.529 142.569 118.68 146.55 120.144C150.531 121.609 153.01 124.831 152.086 127.343Z" fill="#D9D8D8"/>
<path d="M163.206 129.137C161.098 130.786 163.259 124.73 160.646 121.389C158.032 118.048 151.634 118.686 153.742 117.037C155.85 115.389 159.677 116.761 162.291 120.102C164.904 123.444 165.314 127.489 163.206 129.137Z" fill="#D9D8D8"/>
<path d="M79.6425 198.174C77.6431 196.396 83.9878 197.437 86.8072 194.267C89.6265 191.098 87.8529 184.918 89.8523 186.696C91.8517 188.475 91.1869 192.486 88.3676 195.655C85.5482 198.825 81.6419 199.953 79.6425 198.174Z" fill="#D9D8D8"/>
<path d="M120.39 197.178C118.123 195.757 124.553 195.728 126.806 192.134C129.059 188.54 126.282 182.741 128.55 184.162C130.817 185.583 130.828 189.649 128.575 193.243C126.322 196.837 122.658 198.599 120.39 197.178Z" fill="#D9D8D8"/>
<path d="M119.454 189.426C120.953 191.643 115.062 189.069 111.547 191.444C108.033 193.82 108.226 200.247 106.728 198.03C105.229 195.813 106.863 192.09 110.378 189.714C113.892 187.338 117.956 187.21 119.454 189.426Z" fill="#D9D8D8"/>
<path d="M94.3003 172.065C96.9755 172.006 91.6201 175.564 91.7138 179.805C91.8074 184.046 97.3146 187.364 94.6393 187.423C91.9641 187.482 89.7195 184.092 89.6258 179.851C89.5322 175.61 91.625 172.124 94.3003 172.065Z" fill="#D9D8D8"/>
<path d="M111.512 184.022C110.589 186.534 109.236 180.248 105.255 178.784C101.274 177.319 96.171 181.231 97.0946 178.72C98.0183 176.208 101.995 175.359 105.976 176.824C109.957 178.288 112.436 181.511 111.512 184.022Z" fill="#D9D8D8"/>
<path d="M122.632 185.816C120.524 187.465 122.685 181.409 120.072 178.068C117.458 174.726 111.06 175.364 113.168 173.716C115.276 172.067 119.103 173.44 121.717 176.781C124.33 180.122 124.74 184.168 122.632 185.816Z" fill="#D9D8D8"/>
<path d="M108.779 169.662C106.512 168.241 112.941 168.213 115.194 164.618C117.447 161.024 114.671 155.225 116.938 156.646C119.205 158.068 119.217 162.133 116.964 165.728C114.711 169.322 111.046 171.083 108.779 169.662Z" fill="#D9D8D8"/>
<path d="M107.843 161.911C109.342 164.128 103.45 161.553 99.9358 163.929C96.4214 166.305 96.6149 172.731 95.1163 170.515C93.6177 168.298 95.2518 164.575 98.7662 162.199C102.281 159.823 106.344 159.694 107.843 161.911Z" fill="#D9D8D8"/>
<path d="M99.9007 156.507C98.9771 159.018 97.6247 152.733 93.6434 151.268C89.6621 149.804 84.5594 153.716 85.4831 151.205C86.4067 148.693 90.383 147.844 94.3643 149.308C98.3456 150.773 100.824 153.996 99.9007 156.507Z" fill="#D9D8D8"/>
<path d="M111.021 158.301C108.913 159.95 111.073 153.894 108.46 150.553C105.847 147.211 99.4488 147.849 101.557 146.201C103.664 144.552 107.492 145.925 110.105 149.266C112.718 152.607 113.128 156.652 111.021 158.301Z" fill="#D9D8D8"/>
<path d="M182.888 211.182C182.438 208.544 186.742 213.321 190.924 212.607C195.105 211.893 197.581 205.959 198.031 208.597C198.481 211.234 195.457 213.951 191.275 214.665C187.094 215.379 183.339 213.82 182.888 211.182Z" fill="#D9D8D8"/>
<path d="M188.046 205.321C187.391 207.915 185.386 201.806 181.273 200.768C177.16 199.729 172.496 204.155 173.151 201.561C173.806 198.966 177.671 197.705 181.784 198.743C185.897 199.781 188.701 202.726 188.046 205.321Z" fill="#D9D8D8"/>
<path d="M184.237 174.995C186.063 176.951 179.842 175.327 176.741 178.222C173.641 181.117 174.835 187.435 173.009 185.479C171.182 183.523 172.215 179.591 175.316 176.696C178.417 173.801 182.41 173.039 184.237 174.995Z" fill="#D9D8D8"/>
<path d="M186.785 195.797C184.297 196.781 188.084 191.585 186.524 187.641C184.963 183.696 178.647 182.496 181.135 181.512C183.623 180.528 186.905 182.928 188.466 186.872C190.026 190.817 189.274 194.813 186.785 195.797Z" fill="#D9D8D8"/>
<path d="M192.855 205.286C190.221 204.812 196.177 202.389 196.928 198.214C197.679 194.039 192.941 189.693 195.575 190.167C198.208 190.64 199.734 194.409 198.983 198.584C198.232 202.759 195.488 205.759 192.855 205.286Z" fill="#D9D8D8"/>
<path d="M143.571 172.217C145.697 173.842 139.293 173.275 136.717 176.645C134.141 180.016 136.369 186.047 134.243 184.422C132.117 182.797 132.482 178.747 135.058 175.377C137.634 172.007 141.445 170.592 143.571 172.217Z" fill="#D9D8D8"/>
<path d="M143.786 180.021C142.499 177.675 148.127 180.784 151.846 178.744C155.565 176.704 155.967 170.287 157.254 172.633C158.541 174.979 156.57 178.535 152.85 180.575C149.131 182.615 145.073 182.368 143.786 180.021Z" fill="#D9D8D8"/>
<path d="M167.225 199.635C164.556 199.447 170.218 196.4 170.517 192.168C170.816 187.937 165.64 184.123 168.309 184.312C170.978 184.501 172.9 188.084 172.6 192.316C172.301 196.547 169.895 199.824 167.225 199.635Z" fill="#D9D8D8"/>
<path d="M151.194 186.138C152.346 183.722 153.111 190.106 156.94 191.933C160.768 193.759 166.211 190.336 165.059 192.751C163.907 195.167 159.869 195.644 156.04 193.818C152.212 191.991 150.042 188.553 151.194 186.138Z" fill="#D9D8D8"/>
<path d="M140.288 183.322C142.539 181.875 139.827 187.705 142.12 191.274C144.413 194.843 150.843 194.799 148.591 196.246C146.34 197.692 142.656 195.972 140.363 192.403C138.07 188.834 138.037 184.768 140.288 183.322Z" fill="#D9D8D8"/>
<path d="M152.587 200.689C154.713 202.314 148.308 201.747 145.732 205.117C143.156 208.487 145.384 214.518 143.258 212.893C141.132 211.268 141.497 207.219 144.073 203.849C146.649 200.478 150.461 199.064 152.587 200.689Z" fill="#D9D8D8"/>
<path d="M152.802 208.493C151.514 206.147 157.142 209.256 160.862 207.216C164.581 205.176 164.983 198.759 166.27 201.105C167.557 203.451 165.585 207.007 161.866 209.047C158.147 211.087 154.089 210.839 152.802 208.493Z" fill="#D9D8D8"/>
<path d="M176.241 228.108C173.572 227.919 179.234 224.872 179.533 220.64C179.832 216.409 174.656 212.595 177.325 212.784C179.994 212.973 181.915 216.556 181.616 220.788C181.317 225.019 178.91 228.296 176.241 228.108Z" fill="#D9D8D8"/>
<path d="M160.209 214.609C161.362 212.194 162.126 218.578 165.955 220.404C169.784 222.231 175.227 218.808 174.074 221.223C172.922 223.638 168.885 224.116 165.056 222.289C161.227 220.463 159.057 217.024 160.209 214.609Z" fill="#D9D8D8"/>
<path d="M149.303 211.793C151.555 210.347 148.843 216.177 151.136 219.745C153.429 223.314 159.858 223.271 157.607 224.717C155.356 226.164 151.672 224.443 149.379 220.874C147.086 217.305 147.052 213.24 149.303 211.793Z" fill="#D9D8D8"/>
<path d="M227.1 171.144C226.649 168.506 230.954 173.282 235.135 172.568C239.317 171.854 241.792 165.92 242.242 168.558C242.693 171.196 239.668 173.913 235.487 174.627C231.305 175.341 227.55 173.781 227.1 171.144Z" fill="#D9D8D8"/>
<path d="M232.257 165.282C231.602 167.877 229.598 161.768 225.485 160.729C221.372 159.691 216.708 164.116 217.363 161.522C218.018 158.927 221.883 157.666 225.996 158.704C230.109 159.743 232.912 162.688 232.257 165.282Z" fill="#D9D8D8"/>
<path d="M228.448 134.956C230.274 136.912 224.053 135.288 220.953 138.183C217.852 141.078 219.046 147.396 217.22 145.44C215.394 143.484 216.427 139.552 219.527 136.657C222.628 133.762 226.622 133.001 228.448 134.956Z" fill="#D9D8D8"/>
<path d="M230.997 155.758C228.508 156.743 232.295 151.547 230.735 147.602C229.175 143.657 222.858 142.458 225.347 141.473C227.835 140.489 231.117 142.889 232.677 146.834C234.237 150.779 233.485 154.774 230.997 155.758Z" fill="#D9D8D8"/>
<path d="M187.783 132.178C189.909 133.803 183.504 133.236 180.928 136.606C178.352 139.976 180.58 146.008 178.454 144.383C176.328 142.758 176.693 138.708 179.269 135.338C181.845 131.968 185.657 130.553 187.783 132.178Z" fill="#D9D8D8"/>
<path d="M187.998 139.983C186.71 137.637 192.338 140.746 196.058 138.706C199.777 136.665 200.179 130.248 201.466 132.594C202.753 134.94 200.781 138.496 197.062 140.537C193.343 142.577 189.285 142.329 187.998 139.983Z" fill="#D9D8D8"/>
<path d="M211.437 159.597C208.768 159.408 214.429 156.361 214.729 152.13C215.028 147.898 209.851 144.085 212.521 144.273C215.19 144.462 217.111 148.046 216.812 152.277C216.513 156.508 214.106 159.786 211.437 159.597Z" fill="#D9D8D8"/>
<path d="M195.405 146.099C196.558 143.684 197.322 150.068 201.151 151.894C204.98 153.72 210.423 150.298 209.27 152.713C208.118 155.128 204.081 155.605 200.252 153.779C196.423 151.953 194.253 148.514 195.405 146.099Z" fill="#D9D8D8"/>
<path d="M184.499 143.283C186.751 141.837 184.039 147.666 186.332 151.235C188.625 154.804 195.054 154.761 192.803 156.207C190.552 157.654 186.868 155.933 184.575 152.364C182.282 148.795 182.248 144.729 184.499 143.283Z" fill="#D9D8D8"/>
<path d="M196.798 160.65C198.924 162.275 192.52 161.708 189.944 165.078C187.368 168.449 189.596 174.48 187.47 172.855C185.344 171.23 185.708 167.18 188.284 163.81C190.86 160.44 194.672 159.025 196.798 160.65Z" fill="#D9D8D8"/>
<path d="M197.013 168.455C195.726 166.108 201.354 169.217 205.073 167.177C208.792 165.137 209.194 158.72 210.481 161.066C211.768 163.412 209.797 166.968 206.077 169.008C202.358 171.048 198.3 170.801 197.013 168.455Z" fill="#D9D8D8"/>
<path d="M220.452 188.07C217.783 187.881 223.445 184.834 223.744 180.602C224.043 176.371 218.867 172.557 221.536 172.746C224.205 172.935 226.127 176.518 225.827 180.75C225.528 184.981 223.122 188.258 220.452 188.07Z" fill="#D9D8D8"/>
<path d="M204.421 174.571C205.573 172.155 206.338 178.539 210.167 180.366C213.995 182.192 219.438 178.769 218.286 181.185C217.134 183.6 213.096 184.077 209.267 182.251C205.439 180.424 203.269 176.986 204.421 174.571Z" fill="#D9D8D8"/>
<path d="M193.515 171.755C195.766 170.308 193.054 176.138 195.347 179.707C197.64 183.276 204.07 183.232 201.818 184.679C199.567 186.125 195.883 184.405 193.59 180.836C191.297 177.267 191.263 173.201 193.515 171.755Z" fill="#D9D8D8"/>
<path d="M93.0497 246.294C90.7663 244.899 97.195 244.797 99.4068 241.178C101.619 237.558 98.7759 231.791 101.059 233.186C103.343 234.581 103.401 238.647 101.189 242.267C98.9771 245.886 95.333 247.69 93.0497 246.294Z" fill="#D9D8D8"/>
<path d="M123.14 251.654C120.731 252.818 124.127 247.358 122.282 243.539C120.437 239.719 114.05 238.985 116.459 237.821C118.869 236.657 122.318 238.81 124.163 242.63C126.007 246.45 125.55 250.49 123.14 251.654Z" fill="#D9D8D8"/>
<path d="M102.518 247.916C102.317 245.248 106.155 250.406 110.385 250.086C114.615 249.766 117.635 244.09 117.836 246.758C118.038 249.426 114.773 251.849 110.543 252.168C106.313 252.488 102.72 250.584 102.518 247.916Z" fill="#D9D8D8"/>
<path d="M91.6565 250.898C92.8902 248.524 93.4371 254.93 97.2013 256.886C100.966 258.842 106.522 255.606 105.288 257.981C104.054 260.355 100.003 260.695 96.2385 258.739C92.4742 256.783 90.4228 253.273 91.6565 250.898Z" fill="#D9D8D8"/>
<path d="M137.857 213.643C135.674 215.191 138.116 209.243 135.661 205.784C133.207 202.324 126.786 202.662 128.969 201.114C131.151 199.566 134.91 201.115 137.365 204.575C139.819 208.035 140.039 212.095 137.857 213.643Z" fill="#D9D8D8"/>
<path d="M130.34 211.532C132.962 210.999 128.324 215.451 129.169 219.608C130.014 223.765 136.023 226.053 133.401 226.586C130.778 227.119 127.967 224.181 127.122 220.024C126.277 215.867 127.718 212.065 130.34 211.532Z" fill="#D9D8D8"/>
<path d="M104.655 228.098C105.627 225.605 106.857 231.916 110.81 233.457C114.762 234.998 119.939 231.186 118.967 233.679C117.995 236.172 114.003 236.944 110.051 235.403C106.099 233.862 103.683 230.592 104.655 228.098Z" fill="#D9D8D8"/>
<path d="M122.302 216.792C124.266 218.609 117.943 217.446 115.063 220.56C112.183 223.675 113.837 229.888 111.872 228.071C109.908 226.254 110.65 222.257 113.529 219.142C116.409 216.028 120.337 214.976 122.302 216.792Z" fill="#D9D8D8"/>
<path d="M128.226 207.213C128.939 209.792 124.177 205.473 120.088 206.604C116 207.735 114.134 213.888 113.42 211.309C112.707 208.73 115.443 205.722 119.531 204.591C123.62 203.46 127.513 204.634 128.226 207.213Z" fill="#D9D8D8"/>
<path d="M107.992 213.806C105.81 215.355 108.251 209.407 105.797 205.947C103.342 202.487 96.9218 202.825 99.1043 201.277C101.287 199.729 105.046 201.278 107.5 204.738C109.955 208.198 110.175 212.258 107.992 213.806Z" fill="#D9D8D8"/>
<path d="M100.476 211.696C103.098 211.163 98.4593 215.615 99.3044 219.772C100.149 223.929 106.158 226.216 103.536 226.75C100.914 227.283 98.1029 224.345 97.2578 220.188C96.4127 216.031 97.8534 212.229 100.476 211.696Z" fill="#D9D8D8"/>
<path d="M92.437 216.956C94.4017 218.773 88.0783 217.609 85.1983 220.724C82.3184 223.838 83.9724 230.051 82.0077 228.235C80.043 226.418 80.785 222.42 83.665 219.306C86.545 216.191 90.4723 215.139 92.437 216.956Z" fill="#D9D8D8"/>
<path d="M98.3615 207.376C99.075 209.955 94.3122 205.636 90.2237 206.767C86.1352 207.898 84.2693 214.051 83.5558 211.472C82.8424 208.893 85.5784 205.885 89.6669 204.754C93.7553 203.623 97.6481 204.797 98.3615 207.376Z" fill="#D9D8D8"/>
<path d="M187.861 241.088C185.679 242.636 188.12 236.688 185.666 233.228C183.212 229.768 176.791 230.107 178.973 228.559C181.156 227.01 184.915 228.56 187.369 232.02C189.824 235.48 190.044 239.54 187.861 241.088Z" fill="#D9D8D8"/>
<path d="M180.345 238.977C182.967 238.444 178.328 242.896 179.173 247.053C180.019 251.21 186.027 253.498 183.405 254.031C180.783 254.564 177.972 251.626 177.127 247.469C176.282 243.312 177.722 239.51 180.345 238.977Z" fill="#D9D8D8"/>
<path d="M154.66 255.543C155.632 253.05 156.862 259.361 160.814 260.902C164.766 262.443 169.944 258.631 168.972 261.124C168 263.617 164.008 264.389 160.055 262.848C156.103 261.307 153.687 258.036 154.66 255.543Z" fill="#D9D8D8"/>
<path d="M172.306 244.238C174.271 246.054 167.947 244.891 165.067 248.006C162.187 251.12 163.841 257.333 161.877 255.516C159.912 253.7 160.654 249.702 163.534 246.588C166.414 243.473 170.341 242.421 172.306 244.238Z" fill="#D9D8D8"/>
<path d="M178.231 234.658C178.944 237.237 174.181 232.918 170.093 234.049C166.004 235.18 164.138 241.333 163.425 238.754C162.711 236.175 165.447 233.167 169.536 232.036C173.624 230.905 177.517 232.079 178.231 234.658Z" fill="#D9D8D8"/>
<path d="M157.997 241.251C155.814 242.799 158.256 236.851 155.801 233.391C153.347 229.932 146.926 230.27 149.109 228.722C151.291 227.174 155.05 228.723 157.505 232.183C159.959 235.643 160.179 239.703 157.997 241.251Z" fill="#D9D8D8"/>
<path d="M150.48 239.141C153.102 238.608 148.464 243.06 149.309 247.217C150.154 251.374 156.163 253.661 153.541 254.194C150.918 254.728 148.107 251.79 147.262 247.633C146.417 243.476 147.858 239.674 150.48 239.141Z" fill="#D9D8D8"/>
<path d="M124.795 255.706C125.767 253.213 126.997 259.524 130.95 261.065C134.902 262.606 140.079 258.794 139.107 261.287C138.135 263.78 134.143 264.552 130.191 263.011C126.239 261.47 123.823 258.199 124.795 255.706Z" fill="#D9D8D8"/>
<path d="M142.442 244.401C144.406 246.217 138.083 245.054 135.203 248.169C132.323 251.283 133.977 257.496 132.012 255.68C130.048 253.863 130.79 249.865 133.669 246.751C136.549 243.636 140.477 242.584 142.442 244.401Z" fill="#D9D8D8"/>
<path d="M148.366 234.821C149.079 237.4 144.317 233.081 140.228 234.212C136.14 235.343 134.274 241.496 133.56 238.917C132.847 236.338 135.583 233.33 139.671 232.199C143.76 231.068 147.653 232.242 148.366 234.821Z" fill="#D9D8D8"/>
<path d="M225.914 194.011C228.567 194.361 222.732 197.06 222.177 201.266C221.623 205.471 226.559 209.591 223.906 209.241C221.253 208.891 219.552 205.198 220.107 200.992C220.661 196.787 223.262 193.661 225.914 194.011Z" fill="#D9D8D8"/>
<path d="M241.1 208.454C239.804 210.795 239.427 204.377 235.716 202.322C232.004 200.268 226.364 203.355 227.661 201.014C228.957 198.673 233.016 198.44 236.727 200.495C240.438 202.55 242.396 206.113 241.1 208.454Z" fill="#D9D8D8"/>
<path d="M192.749 217.705C195.423 217.609 190.117 221.241 190.27 225.48C190.422 229.719 195.975 232.961 193.301 233.057C190.626 233.153 188.335 229.794 188.183 225.555C188.03 221.316 190.074 217.801 192.749 217.705Z" fill="#D9D8D8"/>
<path d="M197.873 223.596C195.389 222.602 201.71 221.426 203.285 217.488C204.861 213.549 201.094 208.339 203.578 209.332C206.063 210.326 206.8 214.325 205.224 218.263C203.649 222.202 200.358 224.589 197.873 223.596Z" fill="#D9D8D8"/>
<path d="M228.436 223.848C226.255 225.398 228.691 219.447 226.233 215.99C223.776 212.532 217.355 212.877 219.536 211.327C221.717 209.776 225.478 211.322 227.935 214.78C230.393 218.238 230.617 222.297 228.436 223.848Z" fill="#D9D8D8"/>
<path d="M207.48 223.611C206.835 221.014 211.482 225.458 215.599 224.435C219.716 223.412 221.744 217.311 222.389 219.908C223.034 222.505 220.219 225.439 216.102 226.462C211.985 227.484 208.125 226.208 207.48 223.611Z" fill="#D9D8D8"/>
<path d="M197.269 228.366C198.089 225.819 199.699 232.044 203.737 233.342C207.776 234.641 212.713 230.522 211.893 233.07C211.074 235.617 207.136 236.629 203.098 235.33C199.06 234.032 196.45 230.914 197.269 228.366Z" fill="#D9D8D8"/>
<path d="M217.802 233.962C220.476 233.866 215.17 237.498 215.323 241.737C215.475 245.976 221.028 249.218 218.353 249.314C215.679 249.41 213.388 246.051 213.235 241.812C213.083 237.573 215.127 234.058 217.802 233.962Z" fill="#D9D8D8"/>
<path d="M222.926 239.852C220.442 238.858 226.763 237.683 228.338 233.744C229.914 229.805 226.147 224.595 228.631 225.589C231.116 226.583 231.853 230.581 230.277 234.52C228.702 238.458 225.411 240.846 222.926 239.852Z" fill="#D9D8D8"/>
<path d="M222.322 244.624C223.142 242.076 224.752 248.301 228.79 249.6C232.829 250.898 237.766 246.78 236.946 249.327C236.127 251.874 232.189 252.887 228.151 251.588C224.113 250.289 221.503 247.171 222.322 244.624Z" fill="#D9D8D8"/>
</g>
<circle cx="160.759" cy="188.093" r="45.3935" transform="rotate(-13.8322 160.759 188.093)" fill="#B5B5B5" fill-opacity="0.21"/>
<circle cx="271.707" cy="177.146" r="70.2737" transform="rotate(-15 271.707 177.146)" fill="#E7E7E7"/>
<mask id="mask2_123_785" style="mask-type:alpha" maskUnits="userSpaceOnUse" x="201" y="106" width="141" height="142">
<circle cx="271.707" cy="177.146" r="70.2737" transform="rotate(-15 271.707 177.146)" fill="#C4C4C4"/>
</mask>
<g mask="url(#mask2_123_785)">
<path d="M239.941 120.615C240.649 123.256 235.818 118.804 231.632 119.926C227.445 121.048 225.488 127.319 224.78 124.678C224.072 122.037 226.893 118.987 231.079 117.865C235.266 116.743 239.233 117.975 239.941 120.615Z" fill="#D9D8D8"/>
<path d="M235.249 127.066C235.67 124.365 238.286 130.39 242.569 131.058C246.852 131.726 251.178 126.782 250.757 129.484C250.336 132.185 246.523 133.834 242.24 133.166C237.958 132.499 234.828 129.768 235.249 127.066Z" fill="#D9D8D8"/>
<path d="M241.991 157.558C239.948 155.741 246.431 156.805 249.311 153.566C252.192 150.328 250.38 144.013 252.423 145.83C254.465 147.648 253.786 151.746 250.906 154.984C248.025 158.223 244.034 159.375 241.991 157.558Z" fill="#D9D8D8"/>
<path d="M237.431 136.636C239.87 135.399 236.508 141.044 238.468 144.909C240.429 148.775 246.968 149.398 244.53 150.635C242.091 151.871 238.526 149.74 236.565 145.874C234.605 142.009 234.993 137.873 237.431 136.636Z" fill="#D9D8D8"/>
<path d="M230.359 127.557C233.083 127.79 227.253 130.818 226.884 135.136C226.515 139.455 231.746 143.429 229.022 143.196C226.298 142.963 224.389 139.273 224.758 134.955C225.127 130.636 227.635 127.324 230.359 127.557Z" fill="#D9D8D8"/>
<path d="M283.624 156.54C281.308 155.087 287.877 155.058 290.179 151.386C292.481 147.714 289.644 141.789 291.961 143.241C294.277 144.693 294.289 148.847 291.987 152.519C289.685 156.192 285.941 157.992 283.624 156.54Z" fill="#D9D8D8"/>
<path d="M282.668 148.62C284.199 150.885 278.18 148.254 274.589 150.681C270.998 153.109 271.196 159.675 269.665 157.41C268.134 155.145 269.803 151.341 273.394 148.914C276.985 146.486 281.137 146.355 282.668 148.62Z" fill="#D9D8D8"/>
<path d="M256.967 130.881C259.701 130.821 254.229 134.456 254.324 138.789C254.42 143.122 260.047 146.513 257.314 146.573C254.58 146.633 252.287 143.169 252.191 138.836C252.096 134.503 254.234 130.941 256.967 130.881Z" fill="#D9D8D8"/>
<path d="M274.553 143.098C273.61 145.664 272.228 139.241 268.16 137.745C264.092 136.249 258.879 140.246 259.822 137.68C260.766 135.114 264.829 134.246 268.897 135.743C272.964 137.239 275.497 140.531 274.553 143.098Z" fill="#D9D8D8"/>
<path d="M285.915 144.931C283.761 146.615 285.969 140.428 283.299 137.014C280.628 133.6 274.092 134.252 276.245 132.567C278.399 130.883 282.309 132.285 284.979 135.699C287.65 139.113 288.068 143.246 285.915 144.931Z" fill="#D9D8D8"/>
<path d="M271.761 128.426C269.444 126.974 276.013 126.945 278.315 123.272C280.617 119.6 277.78 113.675 280.097 115.127C282.414 116.579 282.425 120.733 280.123 124.406C277.821 128.078 274.077 129.878 271.761 128.426Z" fill="#D9D8D8"/>
<path d="M270.804 120.506C272.335 122.771 266.316 120.141 262.725 122.568C259.134 124.995 259.332 131.562 257.801 129.297C256.27 127.032 257.939 123.228 261.53 120.8C265.121 118.373 269.273 118.241 270.804 120.506Z" fill="#D9D8D8"/>
<path d="M245.103 102.768C247.837 102.707 242.365 106.343 242.461 110.676C242.556 115.009 248.183 118.399 245.45 118.46C242.716 118.52 240.423 115.056 240.327 110.723C240.232 106.39 242.37 102.828 245.103 102.768Z" fill="#D9D8D8"/>
<path d="M262.689 114.985C261.746 117.551 260.364 111.128 256.296 109.632C252.228 108.136 247.015 112.133 247.958 109.567C248.902 107.001 252.965 106.134 257.033 107.63C261.1 109.126 263.633 112.419 262.689 114.985Z" fill="#D9D8D8"/>
<path d="M274.051 116.818C271.897 118.502 274.105 112.315 271.435 108.901C268.764 105.487 262.228 106.139 264.381 104.455C266.535 102.77 270.445 104.172 273.115 107.586C275.786 111 276.205 115.134 274.051 116.818Z" fill="#D9D8D8"/>
<path d="M188.671 187.355C186.628 185.538 193.11 186.602 195.991 183.364C198.872 180.125 197.06 173.811 199.102 175.628C201.145 177.445 200.466 181.543 197.585 184.782C194.705 188.02 190.714 189.172 188.671 187.355Z" fill="#D9D8D8"/>
<path d="M230.304 186.337C227.988 184.885 234.557 184.856 236.859 181.184C239.161 177.511 236.324 171.586 238.641 173.038C240.957 174.49 240.969 178.645 238.667 182.317C236.365 185.989 232.621 187.789 230.304 186.337Z" fill="#D9D8D8"/>
<path d="M229.348 178.417C230.879 180.682 224.86 178.051 221.269 180.479C217.678 182.906 217.876 189.472 216.345 187.207C214.814 184.942 216.483 181.138 220.074 178.711C223.665 176.284 227.817 176.152 229.348 178.417Z" fill="#D9D8D8"/>
<path d="M203.647 160.678C206.38 160.618 200.909 164.253 201.004 168.586C201.1 172.92 206.727 176.31 203.993 176.37C201.26 176.431 198.967 172.967 198.871 168.634C198.775 164.3 200.914 160.739 203.647 160.678Z" fill="#D9D8D8"/>
<path d="M221.233 172.895C220.289 175.461 218.908 169.039 214.84 167.543C210.772 166.047 205.558 170.043 206.502 167.477C207.446 164.911 211.509 164.044 215.576 165.54C219.644 167.036 222.177 170.329 221.233 172.895Z" fill="#D9D8D8"/>
<path d="M232.595 174.728C230.441 176.412 232.649 170.225 229.978 166.811C227.308 163.397 220.771 164.049 222.925 162.365C225.079 160.68 228.989 162.083 231.659 165.497C234.329 168.911 234.748 173.044 232.595 174.728Z" fill="#D9D8D8"/>
<path d="M218.44 158.223C216.124 156.771 222.693 156.742 224.995 153.07C227.297 149.397 224.46 143.472 226.777 144.924C229.093 146.377 229.105 150.531 226.803 154.203C224.501 157.875 220.757 159.675 218.44 158.223Z" fill="#D9D8D8"/>
<path d="M217.484 150.304C219.015 152.569 212.996 149.938 209.405 152.365C205.814 154.793 206.012 161.359 204.481 159.094C202.95 156.829 204.619 153.025 208.21 150.598C211.801 148.17 215.953 148.039 217.484 150.304Z" fill="#D9D8D8"/>
<path d="M209.369 144.782C208.426 147.348 207.044 140.926 202.976 139.43C198.908 137.934 193.695 141.931 194.638 139.364C195.582 136.798 199.645 135.931 203.712 137.427C207.78 138.923 210.313 142.216 209.369 144.782Z" fill="#D9D8D8"/>
<path d="M220.731 146.615C218.577 148.3 220.785 142.112 218.115 138.698C215.444 135.284 208.908 135.936 211.061 134.252C213.215 132.568 217.125 133.97 219.795 137.384C222.466 140.798 222.884 144.931 220.731 146.615Z" fill="#D9D8D8"/>
<path d="M294.161 200.646C293.701 197.951 298.098 202.831 302.371 202.102C306.643 201.372 309.172 195.309 309.633 198.004C310.093 200.7 307.002 203.476 302.73 204.205C298.458 204.935 294.621 203.341 294.161 200.646Z" fill="#D9D8D8"/>
<path d="M299.43 194.658C298.761 197.308 296.713 191.067 292.511 190.006C288.308 188.945 283.543 193.466 284.212 190.815C284.881 188.165 288.831 186.876 293.033 187.937C297.235 188.998 300.099 192.007 299.43 194.658Z" fill="#D9D8D8"/>
<path d="M295.539 163.673C297.405 165.671 291.048 164.012 287.88 166.97C284.712 169.928 285.932 176.383 284.066 174.384C282.2 172.386 283.256 168.368 286.424 165.41C289.592 162.452 293.673 161.674 295.539 163.673Z" fill="#D9D8D8"/>
<path d="M298.143 184.926C295.6 185.932 299.469 180.623 297.875 176.593C296.281 172.562 289.827 171.337 292.37 170.331C294.912 169.325 298.265 171.778 299.86 175.808C301.454 179.838 300.685 183.921 298.143 184.926Z" fill="#D9D8D8"/>
<path d="M304.344 194.622C301.653 194.138 307.738 191.663 308.506 187.397C309.273 183.131 304.432 178.69 307.123 179.174C309.814 179.658 311.373 183.509 310.606 187.775C309.838 192.04 307.035 195.106 304.344 194.622Z" fill="#D9D8D8"/>
<path d="M253.989 160.834C256.162 162.494 249.618 161.915 246.986 165.359C244.354 168.802 246.63 174.964 244.458 173.304C242.286 171.644 242.658 167.506 245.29 164.063C247.922 160.619 251.817 159.174 253.989 160.834Z" fill="#D9D8D8"/>
<path d="M254.209 168.808C252.894 166.411 258.644 169.588 262.444 167.503C266.244 165.418 266.655 158.862 267.97 161.259C269.285 163.656 267.27 167.289 263.47 169.374C259.67 171.458 255.524 171.205 254.209 168.808Z" fill="#D9D8D8"/>
<path d="M278.158 188.849C275.43 188.656 281.215 185.543 281.521 181.219C281.827 176.896 276.538 172.999 279.265 173.192C281.992 173.385 283.955 177.046 283.649 181.37C283.344 185.693 280.885 189.042 278.158 188.849Z" fill="#D9D8D8"/>
<path d="M261.778 175.057C262.955 172.59 263.736 179.112 267.648 180.978C271.56 182.845 277.121 179.347 275.944 181.815C274.767 184.283 270.641 184.77 266.73 182.904C262.818 181.038 260.601 177.525 261.778 175.057Z" fill="#D9D8D8"/>
<path d="M250.634 172.18C252.935 170.702 250.164 176.659 252.507 180.305C254.85 183.952 261.419 183.907 259.119 185.385C256.818 186.863 253.054 185.105 250.712 181.459C248.369 177.812 248.334 173.658 250.634 172.18Z" fill="#D9D8D8"/>
<path d="M263.201 189.925C265.373 191.585 258.829 191.006 256.197 194.449C253.565 197.893 255.841 204.055 253.669 202.395C251.497 200.735 251.87 196.597 254.502 193.154C257.134 189.71 261.028 188.264 263.201 189.925Z" fill="#D9D8D8"/>
<path d="M263.42 197.899C262.105 195.502 267.855 198.678 271.655 196.594C275.455 194.509 275.866 187.953 277.181 190.35C278.496 192.747 276.482 196.38 272.682 198.464C268.882 200.549 264.735 200.296 263.42 197.899Z" fill="#D9D8D8"/>
<path d="M287.369 217.94C284.642 217.747 290.427 214.633 290.732 210.31C291.038 205.987 285.749 202.09 288.476 202.283C291.204 202.476 293.167 206.137 292.861 210.461C292.555 214.784 290.096 218.133 287.369 217.94Z" fill="#D9D8D8"/>
<path d="M270.989 204.148C272.166 201.68 272.948 208.203 276.86 210.069C280.772 211.935 286.333 208.438 285.155 210.905C283.978 213.373 279.853 213.861 275.941 211.995C272.029 210.129 269.812 206.615 270.989 204.148Z" fill="#D9D8D8"/>
<path d="M259.846 201.27C262.146 199.793 259.375 205.749 261.718 209.395C264.061 213.042 270.63 212.998 268.33 214.475C266.03 215.953 262.266 214.195 259.923 210.549C257.58 206.902 257.546 202.748 259.846 201.27Z" fill="#D9D8D8"/>
<path d="M339.333 159.737C338.873 157.042 343.271 161.922 347.543 161.193C351.816 160.463 354.345 154.4 354.805 157.095C355.265 159.79 352.175 162.567 347.902 163.296C343.63 164.026 339.794 162.432 339.333 159.737Z" fill="#D9D8D8"/>
<path d="M344.603 153.748C343.933 156.399 341.885 150.157 337.683 149.096C333.481 148.035 328.715 152.557 329.384 149.906C330.054 147.255 334.003 145.967 338.205 147.028C342.408 148.088 345.272 151.098 344.603 153.748Z" fill="#D9D8D8"/>
<path d="M340.711 122.763C342.577 124.761 336.221 123.102 333.053 126.06C329.885 129.018 331.105 135.473 329.239 133.475C327.373 131.476 328.428 127.459 331.596 124.501C334.764 121.543 338.845 120.765 340.711 122.763Z" fill="#D9D8D8"/>
<path d="M343.315 144.017C340.772 145.022 344.642 139.714 343.048 135.683C341.453 131.653 335 130.427 337.542 129.421C340.084 128.416 343.438 130.868 345.032 134.898C346.626 138.929 345.857 143.011 343.315 144.017Z" fill="#D9D8D8"/>
<path d="M299.162 119.925C301.334 121.585 294.79 121.006 292.158 124.449C289.526 127.893 291.803 134.055 289.63 132.395C287.458 130.735 287.831 126.597 290.463 123.154C293.095 119.71 296.989 118.264 299.162 119.925Z" fill="#D9D8D8"/>
<path d="M299.381 127.899C298.066 125.502 303.816 128.678 307.616 126.594C311.416 124.509 311.827 117.953 313.142 120.35C314.457 122.747 312.443 126.38 308.643 128.464C304.843 130.549 300.696 130.296 299.381 127.899Z" fill="#D9D8D8"/>
<path d="M323.33 147.94C320.603 147.747 326.387 144.633 326.693 140.31C326.999 135.987 321.71 132.09 324.437 132.283C327.164 132.476 329.127 136.137 328.822 140.461C328.516 144.784 326.057 148.133 323.33 147.94Z" fill="#D9D8D8"/>
<path d="M306.95 134.148C308.127 131.681 308.909 138.203 312.821 140.069C316.733 141.935 322.294 138.438 321.116 140.906C319.939 143.374 315.814 143.861 311.902 141.995C307.99 140.129 305.773 136.616 306.95 134.148Z" fill="#D9D8D8"/>
<path d="M295.807 131.271C298.107 129.793 295.336 135.749 297.679 139.396C300.022 143.042 306.591 142.998 304.291 144.476C301.991 145.954 298.227 144.196 295.884 140.549C293.541 136.903 293.507 132.749 295.807 131.271Z" fill="#D9D8D8"/>
<path d="M308.373 149.016C310.545 150.676 304.002 150.097 301.37 153.54C298.738 156.984 301.014 163.146 298.842 161.486C296.669 159.825 297.042 155.688 299.674 152.244C302.306 148.801 306.201 147.355 308.373 149.016Z" fill="#D9D8D8"/>
<path d="M308.592 156.99C307.277 154.593 313.028 157.769 316.828 155.685C320.628 153.6 321.038 147.043 322.353 149.441C323.668 151.838 321.654 155.471 317.854 157.555C314.054 159.64 309.907 159.387 308.592 156.99Z" fill="#D9D8D8"/>
<path d="M332.541 177.03C329.814 176.838 335.599 173.724 335.905 169.401C336.21 165.077 330.921 161.181 333.649 161.374C336.376 161.567 338.339 165.228 338.033 169.551C337.727 173.875 335.269 177.223 332.541 177.03Z" fill="#D9D8D8"/>
<path d="M316.161 163.239C317.338 160.771 318.12 167.294 322.032 169.16C325.944 171.026 331.505 167.529 330.328 169.996C329.151 172.464 325.025 172.952 321.113 171.086C317.201 169.219 314.984 165.706 316.161 163.239Z" fill="#D9D8D8"/>
<path d="M305.018 160.361C307.318 158.883 304.548 164.84 306.891 168.486C309.233 172.133 315.802 172.088 313.502 173.566C311.202 175.044 307.438 173.286 305.095 169.64C302.752 165.993 302.718 161.839 305.018 160.361Z" fill="#D9D8D8"/>
<path d="M202.369 236.522C200.036 235.096 206.605 234.992 208.865 231.294C211.125 227.595 208.22 221.703 210.553 223.128C212.886 224.554 212.945 228.708 210.686 232.406C208.426 236.105 204.702 237.947 202.369 236.522Z" fill="#D9D8D8"/>
<path d="M233.114 241.997C230.652 243.187 234.122 237.609 232.237 233.706C230.352 229.803 223.826 229.053 226.288 227.864C228.75 226.675 232.274 228.875 234.159 232.778C236.044 236.681 235.576 240.808 233.114 241.997Z" fill="#D9D8D8"/>
<path d="M212.044 238.179C211.838 235.453 215.76 240.723 220.082 240.396C224.404 240.069 227.489 234.269 227.695 236.996C227.901 239.722 224.565 242.197 220.243 242.524C215.921 242.85 212.25 240.905 212.044 238.179Z" fill="#D9D8D8"/>
<path d="M200.946 241.225C202.206 238.799 202.765 245.344 206.611 247.343C210.457 249.341 216.134 246.035 214.874 248.462C213.613 250.888 209.474 251.235 205.627 249.236C201.781 247.238 199.685 243.651 200.946 241.225Z" fill="#D9D8D8"/>
<path d="M248.151 203.16C245.921 204.742 248.415 198.665 245.907 195.13C243.4 191.594 236.839 191.94 239.069 190.358C241.299 188.777 245.14 190.36 247.648 193.895C250.155 197.43 250.38 201.578 248.151 203.16Z" fill="#D9D8D8"/>
<path d="M240.471 201.004C243.15 200.46 238.41 205.009 239.274 209.256C240.137 213.503 246.277 215.841 243.598 216.385C240.918 216.93 238.046 213.928 237.183 209.681C236.319 205.434 237.791 201.549 240.471 201.004Z" fill="#D9D8D8"/>
<path d="M214.227 217.93C215.22 215.383 216.477 221.83 220.515 223.405C224.553 224.98 229.843 221.085 228.85 223.632C227.857 226.179 223.778 226.968 219.74 225.393C215.702 223.819 213.234 220.477 214.227 217.93Z" fill="#D9D8D8"/>
<path d="M232.257 206.378C234.264 208.235 227.804 207.046 224.861 210.228C221.918 213.41 223.608 219.759 221.601 217.902C219.594 216.046 220.352 211.962 223.294 208.78C226.237 205.597 230.25 204.522 232.257 206.378Z" fill="#D9D8D8"/>
<path d="M238.31 196.591C239.039 199.226 234.173 194.813 229.996 195.969C225.818 197.124 223.912 203.411 223.183 200.776C222.454 198.141 225.249 195.068 229.427 193.912C233.604 192.756 237.581 193.956 238.31 196.591Z" fill="#D9D8D8"/>
<path d="M217.637 203.328C215.407 204.909 217.901 198.832 215.394 195.297C212.886 191.762 206.326 192.108 208.556 190.526C210.786 188.944 214.626 190.527 217.134 194.062C219.642 197.598 219.867 201.746 217.637 203.328Z" fill="#D9D8D8"/>
<path d="M209.957 201.171C212.636 200.626 207.897 205.175 208.76 209.422C209.624 213.67 215.763 216.007 213.084 216.552C210.405 217.097 207.533 214.095 206.669 209.848C205.806 205.6 207.278 201.716 209.957 201.171Z" fill="#D9D8D8"/>
<path d="M201.743 206.545C203.751 208.402 197.29 207.213 194.347 210.395C191.405 213.577 193.095 219.926 191.087 218.069C189.08 216.213 189.838 212.129 192.781 208.947C195.723 205.764 199.736 204.689 201.743 206.545Z" fill="#D9D8D8"/>
<path d="M207.797 196.757C208.526 199.392 203.659 194.979 199.482 196.135C195.305 197.29 193.398 203.577 192.669 200.942C191.94 198.307 194.736 195.234 198.913 194.078C203.09 192.922 207.068 194.122 207.797 196.757Z" fill="#D9D8D8"/>
<path d="M299.242 231.202C297.012 232.784 299.506 226.706 296.999 223.171C294.491 219.636 287.931 219.982 290.161 218.4C292.391 216.818 296.231 218.401 298.739 221.937C301.247 225.472 301.472 229.62 299.242 231.202Z" fill="#D9D8D8"/>
<path d="M291.562 229.045C294.241 228.501 289.502 233.05 290.365 237.297C291.229 241.544 297.368 243.882 294.689 244.426C292.01 244.971 289.138 241.969 288.274 237.722C287.411 233.475 288.883 229.59 291.562 229.045Z" fill="#D9D8D8"/>
<path d="M265.318 245.97C266.312 243.423 267.569 249.871 271.607 251.446C275.645 253.02 280.935 249.125 279.942 251.672C278.948 254.22 274.87 255.008 270.831 253.434C266.793 251.859 264.325 248.518 265.318 245.97Z" fill="#D9D8D8"/>
<path d="M283.348 234.419C285.356 236.275 278.895 235.086 275.952 238.269C273.01 241.451 274.7 247.799 272.692 245.943C270.685 244.087 271.443 240.002 274.386 236.82C277.328 233.638 281.341 232.563 283.348 234.419Z" fill="#D9D8D8"/>
<path d="M289.402 224.631C290.131 227.267 285.264 222.854 281.087 224.009C276.91 225.165 275.003 231.451 274.274 228.816C273.545 226.181 276.341 223.108 280.518 221.953C284.695 220.797 288.673 221.996 289.402 224.631Z" fill="#D9D8D8"/>
<path d="M268.728 231.368C266.498 232.95 268.993 226.873 266.485 223.338C263.977 219.803 257.417 220.148 259.647 218.566C261.877 216.985 265.718 218.568 268.225 222.103C270.733 225.638 270.958 229.786 268.728 231.368Z" fill="#D9D8D8"/>
<path d="M261.048 229.212C263.727 228.667 258.988 233.216 259.851 237.463C260.715 241.711 266.854 244.048 264.175 244.593C261.496 245.138 258.624 242.136 257.76 237.889C256.897 233.641 258.369 229.757 261.048 229.212Z" fill="#D9D8D8"/>
<path d="M234.805 246.137C235.798 243.59 237.055 250.038 241.093 251.613C245.131 253.187 250.421 249.292 249.428 251.839C248.435 254.387 244.356 255.175 240.318 253.601C236.28 252.026 233.811 248.685 234.805 246.137Z" fill="#D9D8D8"/>
<path d="M252.835 234.586C254.842 236.443 248.381 235.254 245.439 238.436C242.496 241.618 244.186 247.967 242.179 246.11C240.171 244.254 240.93 240.17 243.872 236.988C246.815 233.805 250.827 232.73 252.835 234.586Z" fill="#D9D8D8"/>
<path d="M258.888 224.798C259.617 227.433 254.751 223.02 250.573 224.176C246.396 225.331 244.489 231.618 243.76 228.983C243.032 226.348 245.827 223.275 250.004 222.119C254.182 220.963 258.159 222.163 258.888 224.798Z" fill="#D9D8D8"/>
<path d="M338.122 183.101C340.832 183.459 334.87 186.217 334.303 190.514C333.737 194.811 338.78 199.02 336.07 198.662C333.359 198.305 331.621 194.532 332.188 190.235C332.755 185.938 335.411 182.744 338.122 183.101Z" fill="#D9D8D8"/>
<path d="M353.638 197.859C352.314 200.251 351.928 193.693 348.136 191.594C344.344 189.494 338.582 192.649 339.906 190.257C341.23 187.865 345.378 187.628 349.17 189.727C352.962 191.826 354.962 195.467 353.638 197.859Z" fill="#D9D8D8"/>
<path d="M304.235 207.311C306.968 207.213 301.547 210.923 301.702 215.255C301.858 219.586 307.531 222.898 304.799 222.996C302.067 223.095 299.726 219.663 299.57 215.332C299.414 211 301.503 207.409 304.235 207.311Z" fill="#D9D8D8"/>
<path d="M309.471 213.329C306.933 212.314 313.391 211.113 315.001 207.088C316.611 203.064 312.762 197.74 315.3 198.756C317.839 199.771 318.592 203.857 316.982 207.881C315.373 211.905 312.01 214.344 309.471 213.329Z" fill="#D9D8D8"/>
<path d="M340.698 213.586C338.47 215.17 340.959 209.09 338.447 205.558C335.936 202.025 329.377 202.377 331.605 200.793C333.833 199.209 337.676 200.789 340.187 204.321C342.698 207.854 342.927 212.002 340.698 213.586Z" fill="#D9D8D8"/>
<path d="M319.287 213.345C318.628 210.692 323.376 215.232 327.582 214.187C331.789 213.142 333.861 206.908 334.52 209.562C335.179 212.215 332.303 215.213 328.097 216.258C323.89 217.303 319.946 215.999 319.287 213.345Z" fill="#D9D8D8"/>
<path d="M308.854 218.204C309.691 215.601 311.337 221.961 315.463 223.288C319.589 224.615 324.633 220.407 323.796 223.009C322.959 225.612 318.936 226.646 314.81 225.319C310.683 223.992 308.017 220.807 308.854 218.204Z" fill="#D9D8D8"/>
<path d="M329.833 223.921C332.565 223.823 327.144 227.533 327.3 231.865C327.455 236.196 333.129 239.508 330.397 239.606C327.664 239.705 325.323 236.273 325.167 231.941C325.012 227.61 327.1 224.019 329.833 223.921Z" fill="#D9D8D8"/>
<path d="M335.069 229.938C332.53 228.923 338.989 227.722 340.598 223.698C342.208 219.673 338.359 214.35 340.898 215.365C343.436 216.38 344.189 220.466 342.58 224.49C340.97 228.514 337.607 230.954 335.069 229.938Z" fill="#D9D8D8"/>
<path d="M334.452 234.814C335.289 232.211 336.934 238.571 341.06 239.898C345.187 241.225 350.231 237.017 349.394 239.62C348.557 242.223 344.533 243.257 340.407 241.93C336.281 240.603 333.615 237.417 334.452 234.814Z" fill="#D9D8D8"/>
</g>
<circle cx="271.55" cy="177.056" r="46.3802" transform="rotate(-13.8322 271.55 177.056)" fill="#B5B5B5" fill-opacity="0.21"/>
<circle cx="113.568" cy="292.136" r="47.821" transform="rotate(-15 113.568 292.136)" fill="#002F61"/>
<circle cx="113.568" cy="292.136" r="47.821" transform="rotate(-15 113.568 292.136)" fill="#002F61"/>
<circle cx="113.568" cy="292.136" r="43.5758" transform="rotate(-15 113.568 292.136)" fill="#C12D06"/>
<path d="M122.987 269.168C122.849 272.487 115.615 268.861 106.52 268.483C97.4254 268.105 89.9148 271.118 90.0528 267.798C90.1908 264.479 97.6753 262.095 106.77 262.473C115.864 262.851 123.125 265.849 122.987 269.168Z" fill="#E05D18"/>
<path d="M96.4226 281.505C99.4955 282.767 93.619 288.33 90.1606 296.75C86.7021 305.17 86.9714 313.258 83.8985 311.995C80.8256 310.733 81.1381 302.884 84.5966 294.465C88.055 286.045 93.3497 280.242 96.4226 281.505Z" fill="#E05D18"/>
<path d="M114.702 295.06C112.399 292.666 120.019 289.942 126.577 283.63C133.135 277.318 136.147 269.807 138.451 272.2C140.755 274.594 137.306 281.651 130.748 287.964C124.19 294.276 117.006 297.453 114.702 295.06Z" fill="#E05D18"/>
<path d="M138.234 321.748C137.268 324.926 131.175 319.601 122.466 316.953C113.757 314.305 105.731 315.337 106.697 312.158C107.664 308.98 115.507 308.55 124.216 311.198C132.924 313.846 139.201 318.569 138.234 321.748Z" fill="#E05D18"/>
</g>
<defs>
<clipPath id="clip0_123_785">
<rect width="500" height="500" fill="white"/>
</clipPath>
</defs>
</svg>
