<svg width="500" height="500" viewBox="0 0 500 500" fill="none" xmlns="http://www.w3.org/2000/svg">
<path d="M211.389 119.474L273.523 154.261L143.235 397.905L63.0629 364.558L143.802 100.304L211.389 119.474Z" fill="#555555"/>
<path d="M213.953 113.304L264.993 163.696L142.6 392.574L67.2873 361.248L143.134 113.01L213.953 113.304Z" fill="#ECECEC"/>
<path d="M208.024 127.571L264.871 151.216L151.062 363.944L80.9155 334.767L151.372 104.007L208.024 127.571Z" fill="#F1BF00"/>
<path d="M176.978 109.248C169.652 126.879 149.363 135.203 131.661 127.839C113.958 120.476 105.546 100.214 112.871 82.5835C120.197 64.9526 140.486 56.629 158.189 63.9923C175.891 71.3555 184.303 91.6173 176.978 109.248Z" fill="#D6D6D6"/>
<path d="M167.665 154.764C160.339 172.395 140.05 180.719 122.347 173.355C104.645 165.992 96.2327 145.73 103.558 128.099C110.884 110.468 131.173 102.145 148.875 109.508C166.578 116.871 174.99 137.133 167.665 154.764Z" fill="#D6D6D6"/>
<path d="M139.585 187.695C134.753 199.324 121.371 204.814 109.695 199.957C98.0187 195.101 92.4702 181.736 97.3019 170.108C102.134 158.479 115.516 152.989 127.192 157.845C138.868 162.702 144.417 176.066 139.585 187.695Z" fill="#D6D6D6"/>
<path d="M206.28 111.877C198.954 129.508 178.665 137.831 160.963 130.468C143.26 123.105 134.848 102.843 142.173 85.2119C149.499 67.581 169.788 59.2574 187.491 66.6207C205.193 73.9839 213.605 94.2457 206.28 111.877Z" fill="#D6D6D6"/>
<path d="M230.454 153.796C223.129 171.427 202.84 179.751 185.137 172.388C167.435 165.024 159.022 144.763 166.348 127.132C173.674 109.501 193.963 101.177 211.665 108.54C229.368 115.904 237.78 136.165 230.454 153.796Z" fill="#D6D6D6"/>
<path d="M264.79 125.061C257.464 142.692 237.175 151.015 219.472 143.652C201.77 136.289 193.358 116.027 200.683 98.3963C208.009 80.7653 228.298 72.4417 246 79.805C263.703 87.1682 272.115 107.43 264.79 125.061Z" fill="#D6D6D6"/>
<path d="M284.872 165.279C277.547 182.91 257.257 191.233 239.555 183.87C221.852 176.507 213.44 156.245 220.766 138.614C228.091 120.983 248.38 112.66 266.083 120.023C283.785 127.386 292.198 147.648 284.872 165.279Z" fill="#D6D6D6"/>
<path d="M169.221 104.82C163.984 117.423 149.529 123.392 136.933 118.153C124.338 112.914 118.372 98.4506 123.608 85.8482C128.844 73.2458 143.3 67.2766 155.895 72.5157C168.491 77.7547 174.457 92.2181 169.221 104.82Z" fill="#F1F1F1"/>
<path d="M169.221 104.82C163.984 117.423 149.529 123.392 136.933 118.153C124.338 112.914 118.372 98.4506 123.608 85.8482C128.844 73.2458 143.3 67.2766 155.895 72.5157C168.491 77.7547 174.457 92.2181 169.221 104.82Z" fill="#F1F1F1"/>
<path d="M169.221 104.82C163.984 117.423 149.529 123.392 136.933 118.153C124.338 112.914 118.372 98.4506 123.608 85.8482C128.844 73.2458 143.3 67.2766 155.895 72.5157C168.491 77.7547 174.457 92.2181 169.221 104.82Z" fill="#F1F1F1"/>
<path d="M170.651 112.106C165.851 123.658 152.601 129.13 141.055 124.328C129.509 119.525 124.04 106.267 128.84 94.7149C133.64 83.1628 146.891 77.691 158.437 82.4935C169.982 87.2959 175.451 100.554 170.651 112.106Z" fill="#F1F1F1"/>
<path d="M170.651 112.106C165.851 123.658 152.601 129.13 141.055 124.328C129.509 119.525 124.04 106.267 128.84 94.7149C133.64 83.1628 146.891 77.691 158.437 82.4935C169.982 87.2959 175.451 100.554 170.651 112.106Z" fill="#F1F1F1"/>
<path d="M170.651 112.106C165.851 123.658 152.601 129.13 141.055 124.328C129.509 119.525 124.04 106.267 128.84 94.7149C133.64 83.1628 146.891 77.691 158.437 82.4935C169.982 87.2959 175.451 100.554 170.651 112.106Z" fill="#D6D6D6"/>
<path d="M194.12 102.782C189.636 113.573 177.258 118.684 166.473 114.198C155.688 109.712 150.579 97.3272 155.063 86.5361C159.547 75.745 171.925 70.6337 182.71 75.1198C193.495 79.6059 198.604 91.9905 194.12 102.782Z" fill="#F1F1F1"/>
<path d="M194.12 102.782C189.636 113.573 177.258 118.684 166.473 114.198C155.688 109.712 150.579 97.3272 155.063 86.5361C159.547 75.745 171.925 70.6337 182.71 75.1198C193.495 79.6059 198.604 91.9905 194.12 102.782Z" fill="#F1F1F1"/>
<path d="M194.12 102.782C189.636 113.573 177.258 118.684 166.473 114.198C155.688 109.712 150.579 97.3272 155.063 86.5361C159.547 75.745 171.925 70.6337 182.71 75.1198C193.495 79.6059 198.604 91.9905 194.12 102.782Z" fill="#F1F1F1"/>
<path d="M195.345 109.02C191.235 118.912 179.889 123.597 170.002 119.485C160.116 115.373 155.433 104.02 159.543 94.1285C163.653 84.2367 174.999 79.5514 184.886 83.6636C194.772 87.7758 199.455 99.1284 195.345 109.02Z" fill="#F1F1F1"/>
<path d="M195.345 109.02C191.235 118.912 179.889 123.597 170.002 119.485C160.116 115.373 155.433 104.02 159.543 94.1285C163.653 84.2367 174.999 79.5514 184.886 83.6636C194.772 87.7758 199.455 99.1284 195.345 109.02Z" fill="#F1F1F1"/>
<path d="M195.345 109.02C191.235 118.912 179.889 123.597 170.002 119.485C160.116 115.373 155.433 104.02 159.543 94.1285C163.653 84.2367 174.999 79.5514 184.886 83.6636C194.772 87.7758 199.455 99.1284 195.345 109.02Z" fill="#D6D6D6"/>
<path d="M131.281 254.784C130.68 256.232 129.019 256.918 127.572 256.316C126.124 255.714 125.439 254.053 126.041 252.605C126.642 251.157 128.303 250.471 129.75 251.073C131.198 251.675 131.883 253.336 131.281 254.784Z" fill="#E0C971"/>
<path d="M131.281 254.784C130.68 256.232 129.019 256.918 127.572 256.316C126.124 255.714 125.439 254.053 126.041 252.605C126.642 251.157 128.303 250.471 129.75 251.073C131.198 251.675 131.883 253.336 131.281 254.784Z" fill="#E0C971"/>
<path d="M131.281 254.784C130.68 256.232 129.019 256.918 127.572 256.316C126.124 255.714 125.439 254.053 126.041 252.605C126.642 251.157 128.303 250.471 129.75 251.073C131.198 251.675 131.883 253.336 131.281 254.784Z" fill="#EBD685"/>
<path d="M172.148 220.533C171.145 222.946 168.377 224.089 165.965 223.086C163.553 222.083 162.41 219.313 163.413 216.9C164.416 214.486 167.184 213.343 169.596 214.347C172.008 215.35 173.151 218.12 172.148 220.533Z" fill="#E0C971"/>
<path d="M172.148 220.533C171.145 222.946 168.377 224.089 165.965 223.086C163.553 222.083 162.41 219.313 163.413 216.9C164.416 214.486 167.184 213.343 169.596 214.347C172.008 215.35 173.151 218.12 172.148 220.533Z" fill="#E0C971"/>
<path d="M172.148 220.533C171.145 222.946 168.377 224.089 165.965 223.086C163.553 222.083 162.41 219.313 163.413 216.9C164.416 214.486 167.184 213.343 169.596 214.347C172.008 215.35 173.151 218.12 172.148 220.533Z" fill="#EBD685"/>
<path d="M126.669 310.265C126.068 311.713 124.407 312.399 122.96 311.797C121.512 311.195 120.827 309.533 121.428 308.085C122.03 306.637 123.691 305.952 125.138 306.554C126.585 307.156 127.271 308.817 126.669 310.265Z" fill="#E0C971"/>
<path d="M126.669 310.265C126.068 311.713 124.407 312.399 122.96 311.797C121.512 311.195 120.827 309.533 121.428 308.085C122.03 306.637 123.691 305.952 125.138 306.554C126.585 307.156 127.271 308.817 126.669 310.265Z" fill="#E0C971"/>
<path d="M126.669 310.265C126.068 311.713 124.407 312.399 122.96 311.797C121.512 311.195 120.827 309.533 121.428 308.085C122.03 306.637 123.691 305.952 125.138 306.554C126.585 307.156 127.271 308.817 126.669 310.265Z" fill="#EBD685"/>
<path d="M179.264 292.167C178.462 294.098 176.247 295.012 174.317 294.21C172.388 293.407 171.474 291.191 172.276 289.261C173.078 287.33 175.293 286.416 177.222 287.218C179.152 288.021 180.066 290.237 179.264 292.167Z" fill="#E0C971"/>
<path d="M179.264 292.167C178.462 294.098 176.247 295.012 174.317 294.21C172.388 293.407 171.474 291.191 172.276 289.261C173.078 287.33 175.293 286.416 177.222 287.218C179.152 288.021 180.066 290.237 179.264 292.167Z" fill="#E0C971"/>
<path d="M179.264 292.167C178.462 294.098 176.247 295.012 174.317 294.21C172.388 293.407 171.474 291.191 172.276 289.261C173.078 287.33 175.293 286.416 177.222 287.218C179.152 288.021 180.066 290.237 179.264 292.167Z" fill="#EBD685"/>
<path d="M152.361 149.465C147.827 160.376 135.312 165.544 124.408 161.008C113.503 156.472 108.338 143.951 112.871 133.04C117.404 122.129 129.919 116.962 140.824 121.497C151.729 126.033 156.894 138.555 152.361 149.465Z" fill="#F1F1F1"/>
<path d="M152.361 149.465C147.827 160.376 135.312 165.544 124.408 161.008C113.503 156.472 108.338 143.951 112.871 133.04C117.404 122.129 129.919 116.962 140.824 121.497C151.729 126.033 156.894 138.555 152.361 149.465Z" fill="#F1F1F1"/>
<path d="M152.361 149.465C147.827 160.376 135.312 165.544 124.408 161.008C113.503 156.472 108.338 143.951 112.871 133.04C117.404 122.129 129.919 116.962 140.824 121.497C151.729 126.033 156.894 138.555 152.361 149.465Z" fill="#F1F1F1"/>
<path d="M153.599 155.773C149.444 165.775 137.972 170.512 127.976 166.354C117.98 162.196 113.245 150.718 117.401 140.717C121.556 130.715 133.028 125.978 143.024 130.136C153.02 134.294 157.755 145.772 153.599 155.773Z" fill="#F1F1F1"/>
<path d="M153.599 155.773C149.444 165.775 137.972 170.512 127.976 166.354C117.98 162.196 113.245 150.718 117.401 140.717C121.556 130.715 133.028 125.978 143.024 130.136C153.02 134.294 157.755 145.772 153.599 155.773Z" fill="#F1F1F1"/>
<path d="M153.599 155.773C149.444 165.775 137.972 170.512 127.976 166.354C117.98 162.196 113.245 150.718 117.401 140.717C121.556 130.715 133.028 125.978 143.024 130.136C153.02 134.294 157.755 145.772 153.599 155.773Z" fill="#D6D6D6"/>
<path d="M288.956 144.152L360.925 133.59L407.128 412.078L321.451 435.047L222.296 170.756L288.956 144.152Z" fill="#555555"/>
<path d="M287.19 137.558L359.893 146.548L403.296 408.157L322.811 429.734L229.665 181.461L287.19 137.558Z" fill="#ECECEC"/>
<path d="M291.273 152.805L352.024 136.519L392.321 379.701L317.358 399.799L230.731 169.037L291.273 152.805Z" fill="#F1BF00"/>
<path d="M254.727 157.32C259.773 176.162 248.527 195.548 229.609 200.62C210.691 205.691 191.264 194.529 186.218 175.687C181.172 156.845 192.418 137.459 211.336 132.388C230.254 127.316 249.681 138.478 254.727 157.32Z" fill="#D6D6D6"/>
<path d="M275.525 199.979C280.571 218.821 269.325 238.207 250.407 243.279C231.489 248.351 212.062 237.188 207.016 218.346C201.97 199.504 213.216 180.119 232.134 175.047C251.052 169.975 270.479 181.138 275.525 199.979Z" fill="#D6D6D6"/>
<path d="M273.292 244.145C276.62 256.573 269.203 269.359 256.725 272.704C244.247 276.05 231.434 268.687 228.105 256.26C224.777 243.832 232.195 231.046 244.673 227.7C257.151 224.355 269.964 231.718 273.292 244.145Z" fill="#D6D6D6"/>
<path d="M280.089 141.184C285.135 160.026 273.889 179.412 254.971 184.484C236.053 189.556 216.626 178.393 211.58 159.551C206.534 140.71 217.78 121.324 236.698 116.252C255.617 111.18 275.043 122.343 280.089 141.184Z" fill="#D6D6D6"/>
<path d="M325.763 160.059C330.809 178.901 319.563 198.286 300.645 203.358C281.727 208.43 262.3 197.268 257.254 178.426C252.208 159.584 263.454 140.198 282.372 135.126C301.291 130.055 320.717 141.217 325.763 160.059Z" fill="#D6D6D6"/>
<path d="M335.673 115.391C340.719 134.233 329.473 153.618 310.555 158.69C291.637 163.762 272.21 152.6 267.164 133.758C262.118 114.916 273.364 95.5303 292.282 90.4584C311.2 85.3865 330.627 96.5492 335.673 115.391Z" fill="#D6D6D6"/>
<path d="M376.974 135.438C382.02 154.28 370.775 173.665 351.856 178.737C332.938 183.809 313.511 172.646 308.465 153.805C303.42 134.963 314.665 115.577 333.584 110.505C352.502 105.433 371.928 116.596 376.974 135.438Z" fill="#D6D6D6"/>
<path d="M327.44 118.671C331.199 132.706 322.875 147.131 308.848 150.892C294.821 154.652 280.403 146.324 276.645 132.289C272.886 118.255 281.21 103.829 295.237 100.068C309.264 96.3079 323.682 104.637 327.44 118.671Z" fill="#F1F1F1"/>
<path d="M327.44 118.671C331.199 132.706 322.875 147.131 308.848 150.892C294.821 154.652 280.403 146.324 276.645 132.289C272.886 118.255 281.21 103.829 295.237 100.068C309.264 96.3079 323.682 104.637 327.44 118.671Z" fill="#F1F1F1"/>
<path d="M327.44 118.671C331.199 132.706 322.875 147.131 308.848 150.892C294.821 154.652 280.403 146.324 276.645 132.289C272.886 118.255 281.21 103.829 295.237 100.068C309.264 96.3079 323.682 104.637 327.44 118.671Z" fill="#F1F1F1"/>
<path d="M333.375 123.889C336.82 136.754 329.19 149.978 316.332 153.425C303.474 156.872 290.257 149.238 286.812 136.373C283.367 123.508 290.997 110.284 303.855 106.837C316.713 103.39 329.929 111.024 333.375 123.889Z" fill="#F1F1F1"/>
<path d="M333.375 123.889C336.82 136.754 329.19 149.978 316.332 153.425C303.474 156.872 290.257 149.238 286.812 136.373C283.367 123.508 290.997 110.284 303.855 106.837C316.713 103.39 329.929 111.024 333.375 123.889Z" fill="#F1F1F1"/>
<path d="M333.375 123.889C336.82 136.754 329.19 149.978 316.332 153.425C303.474 156.872 290.257 149.238 286.812 136.373C283.367 123.508 290.997 110.284 303.855 106.837C316.713 103.39 329.929 111.024 333.375 123.889Z" fill="#D6D6D6"/>
<path d="M327.44 118.671C331.199 132.706 322.875 147.131 308.848 150.892C294.821 154.652 280.403 146.324 276.645 132.289C272.886 118.255 281.21 103.829 295.237 100.068C309.264 96.3079 323.682 104.637 327.44 118.671Z" fill="#F1F1F1"/>
<path d="M327.44 118.671C331.199 132.706 322.875 147.131 308.848 150.892C294.821 154.652 280.403 146.324 276.645 132.289C272.886 118.255 281.21 103.829 295.237 100.068C309.264 96.3079 323.682 104.637 327.44 118.671Z" fill="#F1F1F1"/>
<path d="M327.44 118.671C331.199 132.706 322.875 147.131 308.848 150.892C294.821 154.652 280.403 146.324 276.645 132.289C272.886 118.255 281.21 103.829 295.237 100.068C309.264 96.3079 323.682 104.637 327.44 118.671Z" fill="#F1F1F1"/>
<path d="M333.375 123.889C336.82 136.754 329.19 149.978 316.332 153.425C303.474 156.872 290.257 149.238 286.812 136.373C283.367 123.508 290.997 110.284 303.855 106.837C316.713 103.39 329.929 111.024 333.375 123.889Z" fill="#F1F1F1"/>
<path d="M333.375 123.889C336.82 136.754 329.19 149.978 316.332 153.425C303.474 156.872 290.257 149.238 286.812 136.373C283.367 123.508 290.997 110.284 303.855 106.837C316.713 103.39 329.929 111.024 333.375 123.889Z" fill="#F1F1F1"/>
<path d="M333.375 123.889C336.82 136.754 329.19 149.978 316.332 153.425C303.474 156.872 290.257 149.238 286.812 136.373C283.367 123.508 290.997 110.284 303.855 106.837C316.713 103.39 329.929 111.024 333.375 123.889Z" fill="#D6D6D6"/>
<path d="M367.094 137.186C370.853 151.22 362.528 165.646 348.501 169.407C334.475 173.167 320.057 164.838 316.298 150.804C312.54 136.77 320.864 122.344 334.891 118.583C348.918 114.823 363.336 123.151 367.094 137.186Z" fill="#F1F1F1"/>
<path d="M367.094 137.186C370.853 151.22 362.528 165.646 348.501 169.407C334.475 173.167 320.057 164.838 316.298 150.804C312.54 136.77 320.864 122.344 334.891 118.583C348.918 114.823 363.336 123.151 367.094 137.186Z" fill="#F1F1F1"/>
<path d="M367.094 137.186C370.853 151.22 362.528 165.646 348.501 169.407C334.475 173.167 320.057 164.838 316.298 150.804C312.54 136.77 320.864 122.344 334.891 118.583C348.918 114.823 363.336 123.151 367.094 137.186Z" fill="#F1F1F1"/>
<path d="M373.028 142.404C376.474 155.269 368.843 168.493 355.985 171.94C343.127 175.387 329.911 167.752 326.466 154.888C323.02 142.023 330.651 128.799 343.509 125.352C356.367 121.905 369.583 129.539 373.028 142.404Z" fill="#F1F1F1"/>
<path d="M373.028 142.404C376.474 155.269 368.843 168.493 355.985 171.94C343.127 175.387 329.911 167.752 326.466 154.888C323.02 142.023 330.651 128.799 343.509 125.352C356.367 121.905 369.583 129.539 373.028 142.404Z" fill="#F1F1F1"/>
<path d="M373.028 142.404C376.474 155.269 368.843 168.493 355.985 171.94C343.127 175.387 329.911 167.752 326.466 154.888C323.02 142.023 330.651 128.799 343.509 125.352C356.367 121.905 369.583 129.539 373.028 142.404Z" fill="#D6D6D6"/>
<path d="M303.151 301.138C303.553 302.638 302.662 304.181 301.163 304.583C299.663 304.985 298.121 304.094 297.719 302.594C297.317 301.093 298.208 299.551 299.707 299.149C301.207 298.747 302.749 299.637 303.151 301.138Z" fill="#E0C971"/>
<path d="M303.151 301.138C303.553 302.638 302.662 304.181 301.163 304.583C299.663 304.985 298.121 304.094 297.719 302.594C297.317 301.093 298.208 299.551 299.707 299.149C301.207 298.747 302.749 299.637 303.151 301.138Z" fill="#E0C971"/>
<path d="M303.151 301.138C303.553 302.638 302.662 304.181 301.163 304.583C299.663 304.985 298.121 304.094 297.719 302.594C297.317 301.093 298.208 299.551 299.707 299.149C301.207 298.747 302.749 299.637 303.151 301.138Z" fill="#EBD685"/>
<path d="M314.559 249.542C315.228 252.043 313.745 254.614 311.245 255.284C308.746 255.954 306.176 254.47 305.506 251.969C304.837 249.468 306.32 246.897 308.82 246.227C311.319 245.557 313.889 247.041 314.559 249.542Z" fill="#E0C971"/>
<path d="M314.559 249.542C315.228 252.043 313.745 254.614 311.245 255.284C308.746 255.954 306.176 254.47 305.506 251.969C304.837 249.468 306.32 246.897 308.82 246.227C311.319 245.557 313.889 247.041 314.559 249.542Z" fill="#E0C971"/>
<path d="M314.559 249.542C315.228 252.043 313.745 254.614 311.245 255.284C308.746 255.954 306.176 254.47 305.506 251.969C304.837 249.468 306.32 246.897 308.82 246.227C311.319 245.557 313.889 247.041 314.559 249.542Z" fill="#EBD685"/>
<path d="M333.027 347.489C333.429 348.99 332.539 350.532 331.039 350.934C329.54 351.336 327.998 350.446 327.596 348.945C327.194 347.445 328.084 345.902 329.584 345.5C331.084 345.098 332.625 345.988 333.027 347.489Z" fill="#E0C971"/>
<path d="M333.027 347.489C333.429 348.99 332.539 350.532 331.039 350.934C329.54 351.336 327.998 350.446 327.596 348.945C327.194 347.445 328.084 345.902 329.584 345.5C331.084 345.098 332.625 345.988 333.027 347.489Z" fill="#E0C971"/>
<path d="M333.027 347.489C333.429 348.99 332.539 350.532 331.039 350.934C329.54 351.336 327.998 350.446 327.596 348.945C327.194 347.445 328.084 345.902 329.584 345.5C331.084 345.098 332.625 345.988 333.027 347.489Z" fill="#EBD685"/>
<path d="M363.398 301.488C363.933 303.489 362.747 305.546 360.747 306.082C358.747 306.618 356.692 305.431 356.156 303.43C355.62 301.429 356.807 299.373 358.806 298.836C360.806 298.3 362.862 299.488 363.398 301.488Z" fill="#E0C971"/>
<path d="M363.398 301.488C363.933 303.489 362.747 305.546 360.747 306.082C358.747 306.618 356.692 305.431 356.156 303.43C355.62 301.429 356.807 299.373 358.806 298.836C360.806 298.3 362.862 299.488 363.398 301.488Z" fill="#E0C971"/>
<path d="M363.398 301.488C363.933 303.489 362.747 305.546 360.747 306.082C358.747 306.618 356.692 305.431 356.156 303.43C355.62 301.429 356.807 299.373 358.806 298.836C360.806 298.3 362.862 299.488 363.398 301.488Z" fill="#EBD685"/>
<path d="M271.905 147.121C275.33 159.91 267.745 173.055 254.963 176.482C242.181 179.909 229.042 172.319 225.617 159.53C222.192 146.741 229.778 133.596 242.56 130.169C255.342 126.742 268.481 134.332 271.905 147.121Z" fill="#F1F1F1"/>
<path d="M271.905 147.121C275.33 159.91 267.745 173.055 254.963 176.482C242.181 179.909 229.042 172.319 225.617 159.53C222.192 146.741 229.778 133.596 242.56 130.169C255.342 126.742 268.481 134.332 271.905 147.121Z" fill="#F1F1F1"/>
<path d="M271.905 147.121C275.33 159.91 267.745 173.055 254.963 176.482C242.181 179.909 229.042 172.319 225.617 159.53C222.192 146.741 229.778 133.596 242.56 130.169C255.342 126.742 268.481 134.332 271.905 147.121Z" fill="#F1F1F1"/>
<path d="M277.313 151.876C280.453 163.599 273.499 175.649 261.782 178.791C250.065 181.932 238.022 174.975 234.882 163.252C231.743 151.528 238.696 139.478 250.413 136.337C262.13 133.196 274.174 140.153 277.313 151.876Z" fill="#F1F1F1"/>
<path d="M277.313 151.876C280.453 163.599 273.499 175.649 261.782 178.791C250.065 181.932 238.022 174.975 234.882 163.252C231.743 151.528 238.696 139.478 250.413 136.337C262.13 133.196 274.174 140.153 277.313 151.876Z" fill="#F1F1F1"/>
<path d="M277.313 151.876C280.453 163.599 273.499 175.649 261.782 178.791C250.065 181.932 238.022 174.975 234.882 163.252C231.743 151.528 238.696 139.478 250.413 136.337C262.13 133.196 274.174 140.153 277.313 151.876Z" fill="#D6D6D6"/>
</svg>
