<svg width="500" height="500" viewBox="0 0 500 500" fill="none" xmlns="http://www.w3.org/2000/svg">
<ellipse cx="250.795" cy="325.041" rx="175.202" ry="62.9594" fill="#002F61"/>
<ellipse cx="250.795" cy="234.1" rx="175.202" ry="62.9594" fill="#002F61"/>
<rect x="75.5933" y="236.723" width="350.404" height="88.3181" fill="#002F61"/>
<path d="M456.279 212.54L441.145 182.597C435.73 171.884 424.311 169.768 415.639 177.871L391.433 200.489C382.762 208.592 382.27 235.114 386.492 233.299C392.403 230.759 394.257 211.562 400.861 205.392L418.326 189.26C424.93 183.089 431.635 184.032 435.758 192.19L447.046 216.136C451.17 224.294 449.876 232.429 443.272 238.599L425.147 256.359C418.543 262.529 404.939 254.068 403.885 260.691C403.007 266.211 417.504 277.331 426.176 269.228L450.382 246.61C459.053 238.507 461.693 223.253 456.279 212.54Z" fill="#002F61"/>
<path d="M62.0609 185.929L40.8825 215.793C33.3049 226.478 33.5937 242.038 41.5275 250.546L63.6744 274.298C71.6082 282.806 92.765 274.412 90.5943 269.544C87.5566 262.727 71.9845 266.857 65.9429 260.377L50.1125 243.176C44.0709 236.696 43.6633 227.663 49.4333 219.525L66.5111 196.701C72.2812 188.564 78.9674 187.475 85.009 193.955L102.246 211.458C108.288 217.938 103.912 238.498 109.357 237.612C113.894 236.873 120.228 214.247 112.294 205.739L90.1469 181.987C82.2131 173.479 69.6386 175.243 62.0609 185.929Z" fill="#002F61"/>
<ellipse cx="250.795" cy="251.388" rx="154.847" ry="55.4092" fill="#F59204"/>
<ellipse rx="45.8029" ry="24.3106" transform="matrix(0.707764 0.708182 -0.494972 0.870122 211.794 227.596)" fill="#3B211F"/>
<ellipse rx="25.3142" ry="13.5071" transform="matrix(0.70776 0.708189 -0.494967 0.870126 211.794 227.596)" fill="#E3A47C"/>
<path d="M190.2 201.486C185.642 205.972 187.992 220.517 185.018 214.844C182.044 209.172 183.328 200.937 187.886 196.451C192.445 191.965 198.551 192.928 201.525 198.6C204.499 204.273 194.758 197 190.2 201.486Z" fill="#643B38"/>
<path d="M307.015 259.715C301.111 257.498 315.26 246.952 313.599 232.185C313.085 227.62 310.606 221.918 304.022 218.814C297.324 215.657 291.647 216.135 288.46 218.027C277.409 224.591 283.101 251.815 264.518 235.332C253.606 228.449 264.975 209.085 283.073 203.869C289.793 201.933 297.44 202.249 305.219 205.443C333.949 221.96 312.919 261.931 307.015 259.715Z" fill="#D74D4A"/>
<ellipse rx="4.5128" ry="1.3617" transform="matrix(0.886819 -0.462117 0.288889 0.957363 303.617 259.942)" fill="#D74D4A"/>
<ellipse rx="5.56949" ry="1.09525" transform="matrix(0.209312 -0.977849 0.937968 0.346721 306.294 263.175)" fill="#D74D4A"/>
<ellipse rx="8.05843" ry="4.24102" transform="matrix(0.765073 0.643944 -0.438124 0.898914 269.467 228.972)" fill="#E9A17A"/>
<path d="M159.76 221.206C163.259 228.483 146.456 223.287 139.933 236.254C137.916 240.264 136.853 247.002 140.419 255.605C144.047 264.357 148.796 269.339 152.325 270.882C164.56 276.231 174.504 249.847 180.469 280.089C185.457 295.69 166.175 299.923 149.075 286.89C142.726 282.052 136.838 274.599 132.374 264.8C118.39 224.966 156.261 213.929 159.76 221.206Z" fill="#D74D4A"/>
<ellipse rx="5.28844" ry="1.29479" transform="matrix(-0.808495 -0.402248 0.293765 -1.04631 162.931 224.051)" fill="#D74D4A"/>
<ellipse rx="5.34543" ry="1.33073" transform="matrix(-0.717635 0.590173 -0.46257 -0.963058 162.577 219.023)" fill="#D74D4A"/>
<ellipse rx="9.05201" ry="4.1851" transform="matrix(-0.231782 -1.09017 0.823504 -0.286253 172.985 280.133)" fill="#E9A17A"/>
<ellipse rx="45.5285" ry="23.4933" transform="matrix(-0.641747 0.767109 -0.568388 -0.822932 351.525 251.193)" fill="#3B211F"/>
<ellipse rx="25.1612" ry="13.0522" transform="matrix(-0.641746 0.76711 -0.568387 -0.822932 351.525 251.194)" fill="#E9A17A"/>
<path d="M374.616 228.468C372.206 221.902 361.397 222.186 365.972 219.484C370.546 216.782 376.209 219.915 378.619 226.481C381.03 233.047 379.276 240.56 374.702 243.262C370.127 245.964 377.027 235.034 374.616 228.468Z" fill="#643B38"/>
<ellipse cx="170.464" cy="252.821" rx="2.54443" ry="3.34367" fill="#02AC16"/>
<ellipse cx="214.083" cy="284.347" rx="2.54443" ry="3.34367" fill="#02AC16"/>
<ellipse cx="253.34" cy="218.429" rx="2.54443" ry="3.34367" fill="#02AC16"/>
<ellipse cx="267.152" cy="276.704" rx="2.54442" ry="3.34366" fill="#02AC16"/>
<ellipse cx="336.942" cy="225.116" rx="2.54443" ry="3.34366" fill="#02AC16"/>
<ellipse cx="391.466" cy="265.24" rx="2.54442" ry="3.34366" fill="#02AC16"/>
<ellipse cx="110.125" cy="250.91" rx="2.54442" ry="3.34367" fill="#02AC16"/>
<ellipse cx="150.109" cy="213.652" rx="2.54443" ry="3.34366" fill="#02AC16"/>
<ellipse cx="305.682" cy="284.347" rx="2.54443" ry="3.34367" fill="#02AC16"/>
</svg>
