<svg width="500" height="500" viewBox="0 0 500 500" fill="none" xmlns="http://www.w3.org/2000/svg">
<path d="M450.165 234.114C503.581 318.89 336.561 384.375 223.376 356.346C110.192 328.317 -9.4754 175.62 84.0835 132.964C174.295 99.9735 142.296 221.79 255.48 249.819C368.665 277.848 373.857 157.025 450.165 234.114Z" fill="#AE391D"/>
<path d="M349.578 251.552C357.258 221.323 387.991 203.043 418.221 210.724C448.45 218.405 466.73 249.137 459.049 279.367C451.368 309.597 420.636 327.876 390.406 320.195C360.176 312.515 341.897 281.782 349.578 251.552Z" fill="#AE391D"/>
<ellipse cx="106.701" cy="183.122" rx="56.4748" ry="56.4748" transform="rotate(-165.744 106.701 183.122)" fill="#AE391D"/>
<ellipse cx="71.7776" cy="128.299" rx="22.632" ry="10.5077" transform="rotate(34.7277 71.7776 128.299)" fill="#AE391D"/>
<ellipse cx="92.4578" cy="120.081" rx="22.632" ry="10.5077" transform="rotate(103.536 92.4578 120.081)" fill="#AE391D"/>
<ellipse cx="449.719" cy="225.748" rx="22.632" ry="10.5077" transform="rotate(113.588 449.719 225.748)" fill="#AE391D"/>
<ellipse cx="461.778" cy="244.451" rx="22.632" ry="10.5077" transform="rotate(-177.604 461.778 244.451)" fill="#AE391D"/>
<line y1="-1" x2="37.2162" y2="-1" transform="matrix(-0.746513 0.66537 -0.665371 -0.746513 183.486 205.841)" stroke="black" stroke-width="2"/>
<line x1="217.324" y1="234.519" x2="197.828" y2="266.22" stroke="black" stroke-width="2"/>
<line x1="249.879" y1="248.026" x2="240.861" y2="284.133" stroke="black" stroke-width="2"/>
<line y1="-1" x2="37.2162" y2="-1" transform="matrix(0.0788984 0.996883 -0.996883 0.0788999 286.709 253.054)" stroke="black" stroke-width="2"/>
<line x1="320.942" y1="247.375" x2="330.25" y2="283.408" stroke="black" stroke-width="2"/>
<path d="M89.4749 162.408C71.8801 176.529 88.735 224.882 74.6138 207.287C60.4927 189.692 63.3086 163.981 80.9034 149.86C98.4981 135.739 124.209 138.555 138.33 156.15C152.451 173.744 107.07 148.287 89.4749 162.408Z" fill="#CD5B40"/>
<path d="M365.48 246.021C369.778 243.27 383.648 245.75 384.983 240.357C386.319 234.964 372.622 236.342 363.873 240.853C355.124 245.364 358.514 254.79 346.392 257.512C334.27 260.234 326.94 269.866 304.477 268.12C282.015 266.373 287.613 259.173 270.313 255.843C253.012 252.513 235.077 267.151 221.817 262.913C208.557 258.675 213.693 245.638 190.315 236.032C166.936 226.427 149.413 223.995 143.095 210.983C136.778 197.971 153.961 175.515 146.771 173.734C139.58 171.953 128.885 199.833 135.203 212.845C141.52 225.857 166.953 234.063 190.332 243.668C213.71 253.274 207.221 264.069 220.481 268.306C233.742 272.544 252.74 258.169 270.04 261.499C287.341 264.83 282.641 272.252 305.104 273.998C327.567 275.745 334.568 266.031 346.69 263.309C358.811 260.587 361.183 248.773 365.48 246.021Z" fill="#DCA71B" stroke="#DCA71B"/>
</svg>
