<svg width="500" height="500" viewBox="0 0 500 500" fill="none" xmlns="http://www.w3.org/2000/svg">
<path d="M434.682 203.249C445.541 219.635 382.625 268.06 294.153 311.411C205.681 354.761 129.399 368.937 118.54 352.551C107.68 336.166 166.355 295.424 254.827 252.073C343.298 208.723 423.822 186.863 434.682 203.249Z" fill="#AC511F"/>
<path d="M447.056 221.92C457.916 238.306 394.999 286.731 306.527 330.082C218.056 373.432 145.229 395.721 134.37 379.336C123.51 362.95 178.73 314.095 267.201 270.744C355.673 227.394 436.197 205.534 447.056 221.92Z" fill="#AC511F"/>
<ellipse rx="10.3849" ry="19.6376" transform="matrix(0.897993 -0.44001 0.552439 0.833553 433.7 216.266)" fill="#AC511F"/>
<ellipse rx="10.3849" ry="19.6376" transform="matrix(0.897993 -0.440011 0.552439 0.833553 134.822 363.45)" fill="#AC511F"/>
<ellipse rx="12.0003" ry="46.7928" transform="matrix(0.897993 -0.440011 0.552439 0.833553 265.548 298.49)" fill="#FFCC00"/>
<ellipse rx="12.0003" ry="46.7928" transform="matrix(0.897992 -0.440011 0.552439 0.833554 289.588 286.711)" fill="#FFCC00"/>
<rect width="26.7699" height="93.5855" transform="matrix(0.897992 -0.440011 0.552438 0.833554 239.698 259.486)" fill="#FFCC00"/>
<ellipse rx="57.6937" ry="24.4136" transform="matrix(0.897993 -0.440011 0.552439 0.833553 276.325 293.21)" fill="#DFB300"/>
<path d="M258.729 296.345C259.254 297.355 259.398 298.264 259.161 299.071C258.925 299.872 258.325 300.509 257.362 300.981C256.318 301.492 255.226 301.52 254.087 301.063C252.952 300.605 251.959 299.734 251.109 298.45L250.532 297.581C249.975 296.741 249.631 295.93 249.5 295.15C249.373 294.367 249.466 293.675 249.779 293.071C250.09 292.464 250.599 291.987 251.308 291.64C252.247 291.179 253.178 291.08 254.101 291.34C255.022 291.597 255.843 292.176 256.565 293.079L255.393 293.653C254.814 292.982 254.248 292.568 253.694 292.412C253.144 292.254 252.565 292.323 251.958 292.621C251.213 292.986 250.815 293.554 250.763 294.325C250.715 295.094 251.036 295.999 251.725 297.038L252.305 297.914C252.955 298.895 253.673 299.577 254.458 299.96C255.243 300.344 255.995 300.359 256.716 300.006C257.363 299.688 257.76 299.296 257.907 298.83C258.055 298.357 257.938 297.72 257.558 296.919L258.729 296.345Z" fill="black"/>
<path d="M266.225 290.871C266.812 291.757 267.179 292.603 267.327 293.408C267.472 294.209 267.392 294.914 267.089 295.524C266.785 296.133 266.277 296.613 265.564 296.962C264.868 297.303 264.136 297.431 263.367 297.347C262.595 297.259 261.846 296.966 261.118 296.466C260.392 295.961 259.742 295.284 259.169 294.435L258.737 293.783C258.16 292.914 257.799 292.073 257.653 291.262C257.506 290.451 257.586 289.737 257.891 289.121C258.197 288.5 258.699 288.018 259.395 287.677C260.103 287.33 260.843 287.2 261.615 287.289C262.387 287.371 263.14 287.673 263.874 288.197C264.604 288.717 265.262 289.418 265.846 290.3L266.225 290.871ZM264.678 290.855C263.968 289.783 263.212 289.064 262.413 288.699C261.61 288.33 260.831 288.331 260.074 288.702C259.337 289.063 258.947 289.635 258.904 290.419C258.861 291.196 259.172 292.097 259.834 293.122L260.275 293.786C260.964 294.825 261.718 295.539 262.538 295.927C263.36 296.309 264.145 296.316 264.893 295.949C265.646 295.581 266.044 295.015 266.086 294.254C266.126 293.489 265.805 292.579 265.123 291.526L264.678 290.855Z" fill="black"/>
<path d="M277.57 290.914L276.398 291.489L273.628 287.309L269.172 289.493L271.942 293.672L270.776 294.243L264.783 285.201L265.949 284.63L268.526 288.518L272.982 286.334L270.405 282.446L271.577 281.872L277.57 290.914Z" fill="black"/>
<path d="M280.891 289.287L279.725 289.858L273.733 280.816L274.898 280.245L280.891 289.287Z" fill="black"/>
<path d="M283.028 288.24L277.035 279.198L279.925 277.782C280.885 277.312 281.739 277.162 282.49 277.331C283.245 277.499 283.885 277.98 284.412 278.775C284.692 279.198 284.823 279.63 284.805 280.072C284.784 280.51 284.631 280.917 284.344 281.293C284.912 281.196 285.461 281.272 285.992 281.523C286.523 281.767 286.965 282.154 287.316 282.684C287.854 283.495 288.019 284.259 287.813 284.974C287.606 285.69 287.033 286.278 286.094 286.738L283.028 288.24ZM281.391 283.44L283.548 286.694L285.472 285.751C286.015 285.485 286.347 285.133 286.469 284.695C286.593 284.25 286.487 283.775 286.153 283.27C285.431 282.181 284.491 281.92 283.334 282.488L281.391 283.44ZM280.757 282.483L282.518 281.62C283.028 281.371 283.348 281.041 283.479 280.631C283.613 280.22 283.533 279.79 283.236 279.343C282.907 278.846 282.527 278.556 282.095 278.471C281.661 278.382 281.154 278.479 280.576 278.763L278.851 279.608L280.757 282.483Z" fill="black"/>
<path d="M294.092 279.692L290.389 281.507L291.121 284.274L289.919 284.863L287.302 274.167L288.322 273.667L297.696 281.053L296.5 281.639L294.092 279.692ZM290.091 280.353L293.096 278.881L288.787 275.389L290.091 280.353Z" fill="black"/>
<path d="M269.816 314.371L263.823 305.329L266.318 304.106C267.087 303.73 267.882 303.57 268.704 303.628C269.525 303.687 270.309 303.958 271.054 304.443C271.803 304.926 272.455 305.583 273.011 306.413L273.393 306.991C273.959 307.844 274.292 308.67 274.394 309.471C274.499 310.269 274.366 310.987 273.995 311.624C273.628 312.259 273.05 312.775 272.262 313.172L269.816 314.371ZM265.639 305.739L270.335 312.825L271.562 312.224C272.46 311.784 272.969 311.156 273.088 310.341C273.211 309.524 272.923 308.587 272.223 307.531L271.874 307.003C271.193 305.977 270.428 305.296 269.579 304.96C268.73 304.619 267.871 304.657 266.999 305.073L265.639 305.739Z" fill="black"/>
<path d="M280.202 303.745L276.371 305.622L278.495 308.827L282.945 306.646L283.591 307.621L277.976 310.373L271.983 301.331L277.538 298.609L278.188 299.59L273.799 301.741L275.725 304.647L279.556 302.77L280.202 303.745ZM273.613 297.225L274.973 296.558L274.556 299.182L273.651 299.625L273.613 297.225Z" fill="black"/>
<path d="M285.043 306.91L279.05 297.868L281.94 296.452C282.899 295.982 283.754 295.832 284.504 296.001C285.259 296.169 285.9 296.651 286.427 297.446C286.707 297.868 286.837 298.3 286.819 298.742C286.799 299.18 286.645 299.587 286.358 299.964C286.926 299.866 287.476 299.943 288.006 300.193C288.538 300.437 288.979 300.824 289.331 301.354C289.868 302.165 290.034 302.929 289.827 303.644C289.62 304.36 289.048 304.948 288.109 305.408L285.043 306.91ZM283.405 302.11L285.562 305.364L287.487 304.421C288.029 304.155 288.361 303.803 288.484 303.365C288.607 302.92 288.502 302.445 288.167 301.94C287.445 300.851 286.506 300.591 285.348 301.158L283.405 302.11ZM282.771 301.153L284.532 300.291C285.042 300.041 285.362 299.711 285.493 299.302C285.628 298.89 285.547 298.461 285.251 298.013C284.921 297.517 284.541 297.226 284.11 297.141C283.675 297.052 283.169 297.15 282.59 297.433L280.866 298.278L282.771 301.153Z" fill="black"/>
<path d="M294.04 302.501L292.875 303.073L286.882 294.03L288.047 293.459L294.04 302.501Z" fill="black"/>
<path d="M296.703 299.905L300.892 297.852L301.538 298.827L296.177 301.454L290.185 292.412L291.356 291.838L296.703 299.905Z" fill="black"/>
<path d="M147.823 357.017C155.35 368.374 156.258 380.686 149.505 383.994C142.753 387.303 130.896 380.356 123.37 369C115.844 357.643 114.093 344.059 120.845 340.751C127.598 337.442 140.297 345.661 147.823 357.017Z" fill="#C4C4C4"/>
<path d="M144.059 358.747C150.552 368.544 151.419 379.125 145.697 381.929C139.974 384.734 129.829 378.699 123.335 368.901C116.842 359.104 115.248 347.425 120.97 344.621C126.693 341.817 137.566 348.949 144.059 358.747Z" fill="#858585"/>
<ellipse rx="1.15387" ry="1.27154" transform="matrix(0.897992 -0.440011 0.552438 0.833554 129.361 361.009)" fill="black"/>
<ellipse rx="1.15387" ry="1.27154" transform="matrix(0.897992 -0.440011 0.552438 0.833554 129.361 361.009)" fill="black"/>
<ellipse rx="1.15387" ry="1.27154" transform="matrix(0.897992 -0.440011 0.552438 0.833554 129.361 361.009)" fill="black"/>
<ellipse rx="1.15387" ry="1.27153" transform="matrix(0.897991 -0.440014 0.552436 0.833555 132.36 371.334)" fill="black"/>
<ellipse rx="1.15387" ry="1.27153" transform="matrix(0.897991 -0.440014 0.552436 0.833555 132.36 371.334)" fill="black"/>
<ellipse rx="1.15387" ry="1.27153" transform="matrix(0.897991 -0.440014 0.552436 0.833555 132.36 371.334)" fill="black"/>
<ellipse rx="1.15387" ry="1.27154" transform="matrix(0.897992 -0.440012 0.552437 0.833554 141.506 370.222)" fill="black"/>
<ellipse rx="1.15387" ry="1.27154" transform="matrix(0.897992 -0.440012 0.552437 0.833554 141.506 370.222)" fill="black"/>
<ellipse rx="1.15387" ry="1.27154" transform="matrix(0.897992 -0.440012 0.552437 0.833554 141.506 370.222)" fill="black"/>
<ellipse rx="1.15387" ry="1.27154" transform="matrix(0.897992 -0.440011 0.552438 0.833554 122.512 354.817)" fill="black"/>
<ellipse rx="1.15387" ry="1.27154" transform="matrix(0.897992 -0.440011 0.552438 0.833554 122.512 354.817)" fill="black"/>
<ellipse rx="1.15387" ry="1.27154" transform="matrix(0.897992 -0.440011 0.552438 0.833554 122.512 354.817)" fill="black"/>
<ellipse rx="1.15388" ry="1.27154" transform="matrix(0.897991 -0.440014 0.552436 0.833555 133.463 353.944)" fill="black"/>
<ellipse rx="1.15388" ry="1.27154" transform="matrix(0.897991 -0.440014 0.552436 0.833555 133.463 353.944)" fill="black"/>
<ellipse rx="1.15388" ry="1.27154" transform="matrix(0.897991 -0.440014 0.552436 0.833555 133.463 353.944)" fill="black"/>
<ellipse rx="1.15387" ry="1.27154" transform="matrix(0.897992 -0.440011 0.552438 0.833554 139.357 378.577)" fill="black"/>
<ellipse rx="1.15387" ry="1.27154" transform="matrix(0.897992 -0.440011 0.552438 0.833554 139.357 378.577)" fill="black"/>
<ellipse rx="1.15387" ry="1.27154" transform="matrix(0.897992 -0.440011 0.552438 0.833554 139.357 378.577)" fill="black"/>
<ellipse rx="1.15388" ry="1.27155" transform="matrix(0.897993 -0.440009 0.55244 0.833553 125.94 366.617)" fill="black"/>
<ellipse rx="1.15388" ry="1.27155" transform="matrix(0.897993 -0.440009 0.55244 0.833553 125.94 366.617)" fill="black"/>
<ellipse rx="1.15388" ry="1.27155" transform="matrix(0.897993 -0.440009 0.55244 0.833553 125.94 366.617)" fill="black"/>
<ellipse rx="1.15387" ry="1.27155" transform="matrix(0.897994 -0.440008 0.55244 0.833552 141.436 361.832)" fill="black"/>
<ellipse rx="1.15387" ry="1.27155" transform="matrix(0.897994 -0.440008 0.55244 0.833552 141.436 361.832)" fill="black"/>
<ellipse rx="1.15387" ry="1.27155" transform="matrix(0.897994 -0.440008 0.55244 0.833552 141.436 361.832)" fill="black"/>
<ellipse rx="1.15387" ry="1.27154" transform="matrix(0.897993 -0.440009 0.55244 0.833553 126.348 349.006)" fill="black"/>
<ellipse rx="1.15387" ry="1.27154" transform="matrix(0.897993 -0.440009 0.55244 0.833553 126.348 349.006)" fill="black"/>
<ellipse rx="1.15387" ry="1.27154" transform="matrix(0.897993 -0.440009 0.55244 0.833553 126.348 349.006)" fill="black"/>
<ellipse rx="1.15387" ry="1.27154" transform="matrix(0.897992 -0.440011 0.552438 0.833554 135.219 364.878)" fill="black"/>
<ellipse rx="1.15387" ry="1.27154" transform="matrix(0.897992 -0.440011 0.552438 0.833554 135.219 364.878)" fill="black"/>
<ellipse rx="1.15387" ry="1.27154" transform="matrix(0.897992 -0.440011 0.552438 0.833554 135.219 364.878)" fill="black"/>
<ellipse rx="1.15387" ry="1.27154" transform="matrix(0.897992 -0.440011 0.552438 0.833554 146.564 377.854)" fill="black"/>
<ellipse rx="1.15387" ry="1.27154" transform="matrix(0.897992 -0.440011 0.552438 0.833554 146.564 377.854)" fill="black"/>
<ellipse rx="1.15387" ry="1.27154" transform="matrix(0.897992 -0.440011 0.552438 0.833554 146.564 377.854)" fill="black"/>
<mask id="mask0_121_797" style="mask-type:alpha" maskUnits="userSpaceOnUse" x="117" y="197" width="332" height="188">
<path d="M434.68 203.249C445.54 219.635 382.623 268.06 294.152 311.411C205.68 354.761 129.398 368.937 118.538 352.551C107.679 336.166 166.354 295.424 254.825 252.073C343.297 208.723 423.821 186.863 434.68 203.249Z" fill="#AC511F"/>
<path d="M447.055 221.92C457.914 238.306 394.998 286.731 306.526 330.082C218.054 373.432 145.228 395.721 134.368 379.336C123.508 362.95 178.728 314.095 267.2 270.744C355.671 227.394 436.195 205.534 447.055 221.92Z" fill="#AC511F"/>
<ellipse rx="10.3849" ry="19.6376" transform="matrix(0.897992 -0.440011 0.552438 0.833554 433.699 216.266)" fill="#AC511F"/>
<ellipse rx="10.3849" ry="19.6376" transform="matrix(0.897993 -0.440011 0.552439 0.833553 134.821 363.45)" fill="#AC511F"/>
</mask>
<g mask="url(#mask0_121_797)">
<path d="M408.511 263.667C438.611 233.634 436.118 187.847 449.111 199.507C462.105 211.167 448.237 244.965 418.136 274.999C388.036 305.032 353.102 319.927 340.108 308.268C327.115 296.608 378.41 293.701 408.511 263.667Z" fill="black" fill-opacity="0.12"/>
</g>
<circle cx="111.796" cy="310.243" r="10.8771" fill="#C4C4C4"/>
<circle cx="87.8664" cy="248.896" r="23.4946" fill="#C4C4C4"/>
<circle cx="102.659" cy="221.921" r="23.4946" fill="#C4C4C4"/>
<circle cx="73.9436" cy="210.608" r="23.4946" fill="#C4C4C4"/>
<circle cx="97.4381" cy="194.075" r="13.9227" fill="#C4C4C4"/>
<circle cx="69.5927" cy="175.802" r="23.4946" fill="#C4C4C4"/>
<circle cx="97.8733" cy="276.306" r="16.0981" fill="#C4C4C4"/>
<circle cx="105.705" cy="254.552" r="16.0981" fill="#C4C4C4"/>
</svg>
