<svg width="76" height="50" viewBox="0 0 76 50" fill="none" xmlns="http://www.w3.org/2000/svg">
<path d="M10 0H75V50H10V0Z" fill="white"/>
<path d="M0 0H75.0915V11.3553H10.5L0 0Z" fill="#0400B5"/>
<path d="M14 19.231H75.0917V30.5862L14.0001 30.5L14 19.231Z" fill="#0400B5"/>
<path d="M10.5 39H75.1V50H0L10.5 39Z" fill="#0400B5"/>
<path d="M24.448 24.9852L8.49304e-05 49.9816L8.49304e-05 0.0111348L24.448 24.9852Z" fill="#FF0000"/>
<path d="M9.6708 16.667L11.1278 22.4252H15.8428L12.0283 25.9839L13.4853 31.7421L9.6708 28.1833L5.85628 31.7421L7.3133 25.9839L3.49878 22.4252H8.21378L9.6708 16.667Z" fill="white"/>
</svg>
