<svg width="500" height="500" viewBox="0 0 500 500" fill="none" xmlns="http://www.w3.org/2000/svg">
<path d="M118.83 236.162H319.418L296.592 434H149.034L118.83 236.162Z" fill="#D2DFE7"/>
<path d="M99 170.216H336.938L326.793 236.162H112.372L99 170.216Z" fill="#D2DFE7"/>
<path d="M130.882 237.315H304.117L284.404 408.175H156.967L130.882 237.315Z" fill="#A2492F"/>
<path d="M113.756 180.362H319.248L310.486 237.316H125.305L113.756 180.362Z" fill="#A2492F"/>
<path d="M165.005 274.955C163.696 272.749 164.422 269.9 166.628 268.591L196.293 250.984C198.498 249.675 201.348 250.401 202.656 252.607L220.263 282.275C221.571 284.48 220.845 287.33 218.639 288.639L188.974 306.246C186.769 307.555 183.92 306.829 182.611 304.623L165.005 274.955Z" fill="#DBD6FF" fill-opacity="0.29"/>
<path d="M236.832 331.698C237.569 329.242 240.158 327.847 242.614 328.584L275.656 338.497C278.113 339.233 279.507 341.822 278.77 344.279L268.859 377.324C268.122 379.781 265.533 381.175 263.076 380.438L230.035 370.526C227.578 369.789 226.184 367.2 226.921 364.743L236.832 331.698Z" fill="#DBD6FF" fill-opacity="0.29"/>
<path d="M234.889 213.837C234.713 211.278 236.643 209.06 239.202 208.884L273.616 206.506C276.175 206.33 278.392 208.261 278.569 210.819L280.946 245.237C281.123 247.795 279.192 250.013 276.633 250.19L242.219 252.567C239.66 252.744 237.443 250.813 237.266 248.254L234.889 213.837Z" fill="#DBD6FF" fill-opacity="0.29"/>
<mask id="mask0_121_795" style="mask-type:alpha" maskUnits="userSpaceOnUse" x="186" y="147" width="64" height="34">
<rect x="186.152" y="147.62" width="63.6346" height="32.7424" fill="#C4C4C4"/>
</mask>
<g mask="url(#mask0_121_795)">
<path d="M208.673 154.055C209.846 151.774 212.646 150.877 214.927 152.05L245.6 167.837C247.88 169.01 248.777 171.811 247.604 174.091L231.819 204.767C230.645 207.047 227.845 207.945 225.565 206.771L194.892 190.985C192.612 189.811 191.714 187.011 192.888 184.73L208.673 154.055Z" fill="#CDC5FF"/>
</g>
<mask id="mask1_121_795" style="mask-type:alpha" maskUnits="userSpaceOnUse" x="192" y="151" width="57" height="57">
<path d="M208.673 154.055C209.846 151.774 212.646 150.877 214.927 152.05L245.6 167.837C247.88 169.01 248.777 171.811 247.604 174.091L231.819 204.767C230.645 207.047 227.845 207.945 225.565 206.771L194.892 190.985C192.612 189.811 191.714 187.011 192.888 184.73L208.673 154.055Z" fill="#CDC5FF" fill-opacity="0.3"/>
</mask>
<g mask="url(#mask1_121_795)">
<rect x="187.996" y="180.362" width="61.7901" height="30.4366" fill="#C4C4C4"/>
</g>
<mask id="mask2_121_795" style="mask-type:alpha" maskUnits="userSpaceOnUse" x="262" y="100" width="140" height="140">
<path d="M262.262 170.073C262.248 155.804 266.633 141.879 274.818 130.192C283.003 118.505 294.591 109.625 308.003 104.762C321.416 99.8987 336.002 99.288 349.774 103.013C363.547 106.738 375.836 114.618 384.97 125.58C394.103 136.541 399.636 150.052 400.815 164.271C401.994 178.491 398.763 192.728 391.56 205.045C384.357 217.361 373.533 227.158 360.563 233.102C347.592 239.045 333.105 240.846 319.075 238.259L331.657 170.008L262.262 170.073Z" fill="#C4C4C4"/>
</mask>
<g mask="url(#mask2_121_795)">
<ellipse rx="69.4013" ry="69.3956" transform="matrix(-0.0137443 0.999905 -0.999905 -0.0137513 331.657 170.007)" fill="#91AE01"/>
<ellipse rx="62.8723" ry="62.7408" transform="matrix(-0.0137443 0.999905 -0.999905 -0.0137513 330.607 169.633)" fill="#EDF5BC"/>
<path d="M329.893 221.566C301.272 221.172 278.389 197.602 278.783 168.92C279.177 140.238 302.699 117.306 331.321 117.7C359.943 118.094 382.826 141.664 382.432 170.346C382.037 199.027 358.515 221.96 329.893 221.566Z" fill="#91AE01"/>
<rect width="10.9116" height="112.077" transform="matrix(-0.999942 -0.0107722 0.0107781 -0.999942 335.311 224.375)" fill="#EDF5BC"/>
<rect width="10.9341" height="111.842" transform="matrix(-0.0137446 0.999905 -0.999905 -0.0137511 385.234 164.917)" fill="#EDF5BC"/>
<rect width="10.9226" height="111.963" transform="matrix(-0.706346 -0.70787 0.706384 -0.707826 294.772 211.772)" fill="#EDF5BC"/>
<rect width="10.9218" height="111.97" transform="matrix(0.747148 -0.664654 0.663095 0.748538 289.257 130.002)" fill="#EDF5BC"/>
</g>
<rect width="6.40426" height="339.699" transform="matrix(0.99653 -0.08324 0.0832257 0.996531 135.428 65.5332)" fill="#4B4B4B"/>
<rect width="6.40428" height="339.698" transform="matrix(0.980924 -0.194389 0.194357 0.980931 112.833 68.1616)" fill="#4B4B4B"/>
<ellipse cx="214.972" cy="384.425" rx="2.53617" ry="2.53639" fill="#FFFAFA" fill-opacity="0.25"/>
<ellipse cx="214.972" cy="384.425" rx="2.53617" ry="2.53639" fill="#FFFAFA" fill-opacity="0.25"/>
<ellipse cx="146.265" cy="298.65" rx="2.53616" ry="2.53638" fill="#FFFAFA" fill-opacity="0.25"/>
<ellipse cx="146.265" cy="298.65" rx="2.53616" ry="2.53638" fill="#FFFAFA" fill-opacity="0.25"/>
<ellipse cx="281.373" cy="313.406" rx="2.53617" ry="2.53638" fill="#FFFAFA" fill-opacity="0.25"/>
<ellipse cx="281.373" cy="313.406" rx="2.53617" ry="2.53638" fill="#FFFAFA" fill-opacity="0.25"/>
<ellipse cx="225.116" cy="308.334" rx="2.53616" ry="2.53638" fill="#FFFAFA" fill-opacity="0.25"/>
<ellipse cx="225.116" cy="308.334" rx="2.53616" ry="2.53638" fill="#FFFAFA" fill-opacity="0.25"/>
<ellipse cx="279.067" cy="262.679" rx="2.53615" ry="2.53638" fill="#FFFAFA" fill-opacity="0.25"/>
<ellipse cx="279.067" cy="262.679" rx="2.53615" ry="2.53638" fill="#FFFAFA" fill-opacity="0.25"/>
<ellipse cx="153.643" cy="252.533" rx="2.53616" ry="2.53638" fill="#FFFAFA" fill-opacity="0.25"/>
<ellipse cx="153.643" cy="252.533" rx="2.53616" ry="2.53638" fill="#FFFAFA" fill-opacity="0.25"/>
<ellipse cx="185.46" cy="205.956" rx="2.53616" ry="2.53637" fill="#FFFAFA" fill-opacity="0.25"/>
<ellipse cx="185.46" cy="205.956" rx="2.53616" ry="2.53637" fill="#FFFAFA" fill-opacity="0.25"/>
<ellipse cx="272.612" cy="397.799" rx="2.53616" ry="2.53638" fill="#FFFAFA" fill-opacity="0.25"/>
<ellipse cx="272.612" cy="397.799" rx="2.53616" ry="2.53638" fill="#FFFAFA" fill-opacity="0.25"/>
</svg>
