<svg width="500" height="500" viewBox="0 0 500 500" fill="none" xmlns="http://www.w3.org/2000/svg">
<path d="M312.395 84.5248C311.097 89.3708 302.187 91.194 292.495 88.597C282.803 86.0001 275.999 79.9663 277.297 75.1202C278.596 70.2742 287.505 68.451 297.197 71.048C306.889 73.645 313.694 79.6787 312.395 84.5248Z" fill="#EAC48C"/>
<ellipse cx="289.808" cy="98.6248" rx="16.4378" ry="6.9212" transform="rotate(15 289.808 98.6248)" fill="#EAC48C"/>
<rect x="278.856" y="75.9858" width="32.8757" height="19.0333" transform="rotate(15 278.856 75.9858)" fill="#EAC48C"/>
<path d="M277.185 75.5381L312.283 84.9426C312.283 84.9426 310.604 91.2101 310.268 92.4636C309.932 93.7172 274.834 84.3126 275.17 83.0591C275.506 81.8056 277.185 75.5381 277.185 75.5381Z" fill="#EAC48C"/>
<path d="M274.11 83.6704L311.716 93.7467L286.189 189.013C286.189 189.013 276.175 197.974 263.64 194.615C251.105 191.256 248.696 178.519 248.696 178.519L274.11 83.6704Z" fill="#83C0B2" fill-opacity="0.35"/>
<ellipse cx="255.471" cy="227.417" rx="81.4912" ry="46.6002" transform="rotate(15 255.471 227.417)" fill="#D2E7E2"/>
<rect x="176.723" y="206.451" width="162.982" height="207.571" transform="rotate(15 176.723 206.451)" fill="#D2E7E2"/>
<rect x="232.605" y="305.424" width="6.05605" height="52.7741" transform="rotate(15 232.605 305.424)" fill="black"/>
<path d="M237.443 309.709C238.042 313.077 230.47 306.181 218.288 308.347C206.105 310.512 200.197 312.29 193.326 317.549C195.169 310.862 204.613 303.575 216.796 301.41C228.979 299.245 236.845 306.342 237.443 309.709Z" fill="black"/>
<path d="M236.827 311.523C235.182 314.522 233.607 304.403 222.76 298.45C211.912 292.497 206.195 290.178 197.545 289.966C203.174 285.913 215.1 286.159 225.948 292.111C236.795 298.064 238.473 308.525 236.827 311.523Z" fill="black"/>
<path d="M232.709 312.369C229.654 313.907 234.092 304.677 228.528 293.625C222.965 282.573 219.569 277.422 212.562 272.345C219.497 272.196 229.183 279.157 234.747 290.21C240.31 301.262 235.764 310.831 232.709 312.369Z" fill="black"/>
<path d="M234.787 306.135C231.923 308.004 242.132 308.804 248.893 319.167C255.654 329.531 258.401 335.055 259.27 343.664C262.883 337.743 261.731 325.87 254.97 315.507C248.21 305.143 237.652 304.266 234.787 306.135Z" fill="black"/>
<path d="M232.149 309.537C232.464 312.943 237.939 304.288 250.26 303.15C262.581 302.011 268.749 302.161 276.767 305.413C273.219 299.453 262.182 294.927 249.861 296.066C237.54 297.205 231.834 306.131 232.149 309.537Z" fill="black"/>
<path d="M231.289 307.063C232.281 310.336 235.908 300.76 247.75 297.173C259.593 293.585 265.665 292.495 274.173 294.072C269.501 288.945 257.781 286.726 245.939 290.313C234.097 293.9 230.297 303.79 231.289 307.063Z" fill="black"/>
<path d="M207.513 249.513L204.727 251.194L203.114 257.216L200.763 256.587L205.539 238.763L207.889 239.393L205.528 248.207L215.809 241.515L218.649 242.276L209.526 248.268L214.425 260.247L211.609 259.493L207.513 249.513Z" fill="black"/>
<path d="M233.804 246.337L230.557 258.456C230.098 260.135 229.199 261.368 227.86 262.155C226.529 262.944 224.948 263.163 223.118 262.813L222.487 262.67C220.537 262.147 219.123 261.204 218.246 259.841C217.37 258.478 217.17 256.872 217.648 255.023L220.902 242.88L223.228 243.503L219.994 255.573C219.648 256.862 219.734 257.961 220.252 258.87C220.771 259.77 221.688 260.396 223.002 260.748C224.332 261.105 225.443 261.022 226.336 260.5C227.236 259.98 227.859 259.075 228.204 257.786L231.442 245.704L233.804 246.337Z" fill="black"/>
<path d="M240.549 248.144L242.479 264.248L252.203 251.267L255.251 252.084L250.475 269.907L248.125 269.277L249.985 262.336L252.212 254.904L242.494 267.768L240.694 267.286L238.713 251.326L236.948 258.843L235.088 265.784L232.737 265.154L237.513 247.331L240.549 248.144Z" fill="black"/>
<path d="M265.934 269.063L258.466 267.063L255.543 271.265L253.119 270.615L264.701 254.616L266.758 255.167L268.8 274.817L266.389 274.171L265.934 269.063ZM259.695 265.319L265.754 266.942L264.952 257.793L259.695 265.319Z" fill="black"/>
<path d="M278.58 268.923C276.719 267.803 275.441 266.699 274.744 265.612C274.057 264.518 273.88 263.351 274.212 262.111C274.588 260.707 275.458 259.698 276.821 259.083C278.194 258.463 279.779 258.393 281.574 258.874C282.798 259.202 283.824 259.731 284.652 260.46C285.488 261.192 286.056 262.043 286.355 263.016C286.663 263.99 286.684 264.971 286.419 265.959L284.057 265.326C284.346 264.249 284.229 263.312 283.708 262.516C283.188 261.712 282.304 261.143 281.056 260.809C279.897 260.498 278.922 260.512 278.131 260.852C277.351 261.185 276.84 261.804 276.597 262.71C276.402 263.437 276.543 264.135 277.02 264.805C277.507 265.469 278.433 266.207 279.798 267.019C281.172 267.833 282.207 268.604 282.904 269.333C283.611 270.056 284.075 270.806 284.296 271.583C284.525 272.361 284.518 273.203 284.275 274.109C283.888 275.554 283.014 276.562 281.654 277.133C280.296 277.696 278.675 277.725 276.789 277.22C275.565 276.892 274.485 276.353 273.549 275.604C272.615 274.846 271.967 273.982 271.607 273.011C271.254 272.041 271.217 271.039 271.494 270.002L273.857 270.635C273.568 271.713 273.735 272.671 274.359 273.512C274.992 274.346 275.974 274.942 277.304 275.298C278.545 275.631 279.563 275.632 280.36 275.304C281.157 274.975 281.672 274.374 281.906 273.501C282.14 272.627 282.014 271.872 281.529 271.235C281.046 270.589 280.063 269.818 278.58 268.923Z" fill="black"/>
<path d="M288.607 280.124L286.256 279.494L291.032 261.671L293.382 262.301L288.607 280.124Z" fill="black"/>
<path d="M188.826 371.303L186.957 378.281L184.606 377.651L189.382 359.828L195.956 361.589C197.906 362.112 199.299 363.018 200.134 364.309C200.977 365.602 201.179 367.069 200.739 368.709C200.275 370.439 199.375 371.628 198.038 372.276C196.712 372.918 195.041 372.968 193.025 372.428L188.826 371.303ZM189.341 369.381L193.564 370.513C194.821 370.85 195.863 370.814 196.69 370.406C197.518 369.989 198.083 369.222 198.382 368.104C198.666 367.043 198.559 366.105 198.061 365.289C197.562 364.473 196.732 363.897 195.572 363.559L191.214 362.392L189.341 369.381Z" fill="black"/>
<path d="M217.745 367.428L214.498 379.546C214.039 381.225 213.14 382.458 211.801 383.245C210.47 384.035 208.889 384.254 207.059 383.903L206.428 383.761C204.478 383.238 203.064 382.295 202.187 380.932C201.311 379.568 201.111 377.962 201.589 376.114L204.843 363.97L207.169 364.594L203.934 376.664C203.589 377.953 203.675 379.052 204.193 379.96C204.712 380.86 205.629 381.487 206.943 381.839C208.273 382.195 209.384 382.112 210.277 381.59C211.177 381.071 211.8 380.166 212.145 378.877L215.383 366.795L217.745 367.428Z" fill="black"/>
<path d="M225.147 380.786L220.961 379.664L219.029 386.874L216.666 386.241L221.442 368.418L227.342 369.999C229.35 370.537 230.77 371.407 231.602 372.61C232.443 373.815 232.629 375.29 232.161 377.037C231.863 378.147 231.302 379.033 230.478 379.695C229.661 380.36 228.664 380.753 227.485 380.875L229.645 389.562L229.605 389.708L227.084 389.033L225.147 380.786ZM221.476 377.743L225.087 378.71C226.254 379.023 227.261 378.969 228.108 378.549C228.964 378.131 229.527 377.416 229.798 376.404C230.093 375.302 229.989 374.369 229.486 373.604C228.99 372.842 228.123 372.29 226.885 371.95L223.286 370.985L221.476 377.743Z" fill="black"/>
<path d="M244.409 384.845L236.685 382.776L234.992 389.092L243.965 391.496L243.45 393.418L232.127 390.384L236.903 372.561L248.103 375.562L247.585 377.496L238.735 375.125L237.2 380.854L244.924 382.923L244.409 384.845Z" fill="black"/>
<rect x="284.914" y="221.008" width="33.7918" height="202.666" rx="16.8959" transform="rotate(15 284.914 221.008)" fill="white" fill-opacity="0.42"/>
<path d="M127.628 408.189L180.188 212.03L182.225 204.428C183.924 198.09 189.988 189.948 198.688 186.544C207.388 183.139 216.912 180.73 224.591 180.25C232.27 179.769 247.974 180.639 247.974 180.639L248.509 178.644C248.509 178.644 233.923 176.873 225.225 177.882C216.528 178.89 210.439 179.402 199.49 183.551C188.541 187.7 179.162 197.349 177.598 203.188L175.561 210.79L123 406.949L127.628 408.189Z" fill="black" fill-opacity="0.11"/>
<path d="M273.967 83.6318L276.695 84.3629L250.702 181.37L247.974 180.639L273.967 83.6318Z" fill="black" fill-opacity="0.11"/>
</svg>
