<svg width="500" height="500" viewBox="0 0 500 500" fill="none" xmlns="http://www.w3.org/2000/svg">
<ellipse cx="249.722" cy="367.582" rx="67.1782" ry="29.4179" fill="#AA4003"/>
<path d="M490.444 239.478C490.444 313.738 382.669 373.937 249.722 373.937C116.775 373.937 9 313.738 9 239.478C9 193.061 110.803 173.896 243.75 173.896C376.697 173.896 490.444 193.061 490.444 239.478Z" fill="#D04C00"/>
<path d="M490.444 239.478C489.057 262.152 490.444 263.799 441.926 283.803C389.676 309.22 281.632 319.105 249.535 319.105C217.439 319.105 127.221 311.344 64.7953 290.158C11.0527 264.976 9.00001 260.975 9 239.478C8.99998 193.061 110.804 173.896 243.75 173.896C376.697 173.896 493.274 193.199 490.444 239.478Z" fill="#AA4003"/>
<ellipse cx="249.722" cy="233.672" rx="240.722" ry="65.896" fill="#D04C00"/>
<ellipse cx="249.908" cy="238.614" rx="227.1" ry="59.5417" fill="#DABF92"/>
<mask id="mask0_121_786" style="mask-type:alpha" maskUnits="userSpaceOnUse" x="9" y="104" width="482" height="196">
<path d="M490.444 233.671C490.444 270.065 382.669 299.567 249.722 299.567C116.775 299.567 9 270.065 9 233.671C9 197.278 104.645 104 237.592 104C370.539 104 490.444 197.278 490.444 233.671Z" fill="#D04C00"/>
</mask>
<g mask="url(#mask0_121_786)">
<path d="M117.098 263.42C117.098 281.392 100.671 296.343 79.9104 296.343C59.1496 296.343 42.7231 281.392 42.7231 263.42C42.7231 245.448 59.1496 230.497 79.9104 230.497C100.671 230.497 117.098 245.448 117.098 263.42Z" fill="#EEBC99" stroke="black" stroke-width="4"/>
<path d="M103.645 291.977C101.771 291.977 100.474 291.842 99.6039 291.632C98.8084 291.441 98.549 291.231 98.4939 291.178C98.4903 291.147 98.4865 291.075 98.5054 290.946C98.5592 290.58 98.7525 290.029 99.1572 289.227C99.5505 288.447 100.062 287.584 100.656 286.581L100.667 286.562C101.253 285.575 101.903 284.475 102.501 283.321C103.684 281.037 104.78 278.324 104.78 275.425C104.78 266.794 101.039 261.147 95.9336 257.741C90.9413 254.412 84.7937 253.313 79.9104 253.313C75.0931 253.313 69.0433 254.635 64.1372 258.057C59.1417 261.542 55.4117 267.163 55.4117 275.425C55.4117 276.505 55.7064 277.606 56.0774 278.614C56.455 279.639 56.963 280.703 57.4918 281.735C57.8553 282.444 58.2222 283.13 58.5791 283.797C59.3101 285.163 59.9992 286.451 60.5308 287.704C60.9142 288.608 61.1542 289.362 61.2475 289.972C61.341 290.582 61.2637 290.892 61.193 291.038C61.1214 291.185 60.6108 291.977 57.4117 291.977C55.4346 291.977 53.5236 290.978 51.6751 289.003C49.8205 287.021 48.1851 284.211 46.828 281.025C44.1048 274.632 42.7231 267.259 42.7231 263.42C42.7231 245.448 59.1496 230.497 79.9104 230.497C100.671 230.497 117.098 245.448 117.098 263.42C117.098 269.015 116.131 276.393 113.82 282.296C111.455 288.338 108.068 291.977 103.645 291.977Z" fill="#E9D0BE" stroke="black" stroke-width="4"/>
<path d="M66.1617 246.109C55.6962 251.637 51.2673 267.749 49.4511 261.684C47.6348 255.618 54.6463 246.219 65.1118 240.69C75.5772 235.162 85.5335 235.597 87.3498 241.662C89.1661 247.728 76.6271 240.58 66.1617 246.109Z" fill="#EEE1D7"/>
<path d="M222.154 218.738C228.599 220.783 233.864 227.428 236.887 237.294C239.892 247.1 240.518 259.666 237.934 272.62C235.35 285.574 230.084 296.271 223.759 303.117C217.394 310.006 210.262 312.718 203.818 310.673C197.373 308.629 192.108 301.984 189.085 292.117C186.081 282.312 185.454 269.745 188.038 256.791C190.622 243.837 195.888 233.14 202.213 226.294C208.578 219.406 215.71 216.694 222.154 218.738Z" fill="#EEBC99" stroke="black" stroke-width="4"/>
<path d="M240.367 242.526C239.901 244.862 239.459 246.517 239.042 247.649C238.803 248.295 238.599 248.699 238.448 248.943C238.304 248.788 238.115 248.566 237.878 248.25C237.386 247.594 236.854 246.769 236.22 245.786L236.217 245.782C235.602 244.828 234.908 243.753 234.157 242.726C232.711 240.751 230.745 238.513 228.187 237.702C220.998 235.421 215.617 239.004 211.942 244.154C208.281 249.283 206.005 256.312 204.846 262.123C203.71 267.815 203.262 275.303 204.657 281.945C206.048 288.576 209.436 294.924 216.337 297.113C217.406 297.452 218.498 297.314 219.385 297.101C220.313 296.878 221.285 296.503 222.21 296.107C222.868 295.825 223.497 295.538 224.103 295.261C225.315 294.708 226.433 294.197 227.498 293.862C228.273 293.617 228.814 293.541 229.158 293.565C229.243 293.571 229.298 293.581 229.33 293.589C229.382 293.69 229.516 294.022 229.551 294.797C229.594 295.748 229.476 297.13 229.089 299.073C227.952 304.771 223.374 308.192 217.886 309.934C212.379 311.681 206.544 311.538 203.818 310.673C197.373 308.629 192.108 301.984 189.085 292.117C186.081 282.312 185.454 269.745 188.038 256.791C190.622 243.837 195.888 233.14 202.213 226.294C208.578 219.406 215.71 216.694 222.154 218.738C226.317 220.059 231.605 222.957 235.466 227.101C239.267 231.18 241.601 236.339 240.367 242.526ZM229.373 293.605C229.372 293.606 229.365 293.604 229.354 293.597C229.368 293.601 229.373 293.605 229.373 293.605Z" fill="#E9D0BE" stroke="black" stroke-width="4"/>
<path d="M196.089 277.355C197.338 290.918 210.392 298.977 204.219 300.147C198.047 301.318 192.031 291.272 190.782 277.71C189.534 264.147 193.525 252.204 199.698 251.033C205.871 249.863 194.841 263.793 196.089 277.355Z" fill="#EEE1D7"/>
<path d="M87.8533 255.819C90.9711 238.336 109.576 228.254 129.886 234.015C150.197 239.776 163.587 258.933 160.47 276.416C157.352 293.899 138.747 303.981 118.436 298.22C98.1256 292.459 84.7355 273.302 87.8533 255.819Z" fill="#EEBC99" stroke="black" stroke-width="4"/>
<path d="M105.97 231.705C107.801 232.225 109.049 232.718 109.869 233.167C110.599 233.567 110.83 233.845 110.885 233.924C110.882 233.956 110.871 234.018 110.838 234.115C110.725 234.449 110.445 234.928 109.91 235.598C109.392 236.249 108.743 236.949 107.989 237.763L107.975 237.778C107.232 238.58 106.406 239.473 105.621 240.434C104.069 242.335 102.521 244.687 102.014 247.531C100.508 255.977 103.187 262.532 107.568 267.259C111.851 271.88 117.646 274.648 122.4 275.996C127.087 277.325 133.207 277.71 138.58 275.732C144.051 273.718 148.683 269.263 150.125 261.177C150.315 260.112 150.217 258.948 150.03 257.861C149.84 256.753 149.528 255.573 149.192 254.419C148.96 253.625 148.721 252.854 148.489 252.104C148.014 250.57 147.567 249.125 147.266 247.758C147.05 246.771 146.948 245.973 146.963 245.36C146.978 244.747 147.105 244.48 147.191 244.367C147.285 244.246 147.937 243.609 151.077 244.5C153.033 245.055 154.732 246.575 156.19 249.01C157.654 251.456 158.759 254.647 159.528 258.127C161.072 265.113 161.136 272.681 160.47 276.416C157.352 293.899 138.747 303.981 118.436 298.22C98.1256 292.459 84.7355 273.302 87.8533 255.819C88.8257 250.366 91.05 243.443 94.3275 238.33C97.6723 233.111 101.613 230.47 105.97 231.705Z" fill="#E9D0BE" stroke="black" stroke-width="4"/>
<path d="M134.565 286.826C145.716 284.358 152.793 269.756 153.525 276.244C154.258 282.731 145.812 289.99 134.662 292.458C123.511 294.926 113.877 291.668 113.145 285.18C112.412 278.693 123.414 289.294 134.565 286.826Z" fill="#EEE1D7"/>
<path d="M136.11 162.954C142.709 163.011 149.069 167.861 153.873 176.559C158.641 185.193 161.617 197.224 161.546 210.594C161.474 223.964 158.37 235.944 153.509 244.495C148.612 253.111 142.201 257.852 135.602 257.796C129.003 257.74 122.643 252.89 117.839 244.192C113.071 235.558 110.094 223.527 110.166 210.157C110.237 196.787 113.342 184.807 118.202 176.255C123.099 167.64 129.511 162.898 136.11 162.954Z" fill="#EEBC99" stroke="black" stroke-width="4"/>
<path d="M158.245 180.631C158.232 183.042 158.114 184.787 157.921 186.017C157.815 186.693 157.696 187.142 157.596 187.431C157.423 187.317 157.219 187.167 156.981 186.973C156.38 186.483 155.708 185.841 154.907 185.076L154.905 185.073C154.128 184.331 153.251 183.494 152.327 182.721C150.555 181.24 148.209 179.637 145.539 179.615C138.074 179.551 133.523 184.675 130.933 190.751C128.347 196.819 127.46 204.318 127.428 210.304C127.396 216.164 128.369 223.562 130.97 229.587C133.559 235.585 138.045 240.769 145.212 240.83C146.337 240.84 147.387 240.37 148.208 239.898C149.07 239.402 149.946 238.744 150.77 238.082C151.358 237.611 151.915 237.143 152.451 236.693C153.524 235.793 154.512 234.964 155.482 234.32C156.189 233.851 156.693 233.62 157.019 233.543C157.072 233.531 157.112 233.524 157.14 233.52C157.218 233.621 157.403 233.917 157.575 234.628C157.798 235.548 157.944 236.932 157.933 238.939C157.901 244.853 154.076 249.551 149.088 252.876C144.072 256.22 138.39 257.82 135.602 257.796C129.003 257.74 122.643 252.89 117.839 244.192C113.071 235.558 110.094 223.527 110.166 210.157C110.237 196.787 113.342 184.807 118.202 176.255C123.099 167.64 129.511 162.898 136.11 162.954C140.388 162.991 146.055 164.219 150.576 167.082C155.02 169.897 158.279 174.215 158.245 180.631ZM157.198 233.518C157.198 233.519 157.193 233.519 157.184 233.517C157.195 233.517 157.199 233.518 157.198 233.518Z" fill="#E9D0BE" stroke="black" stroke-width="4"/>
<path d="M121.809 227.731C125.539 240.501 139.832 244.291 133.994 247.33C128.155 250.369 120.399 242.481 116.669 229.712C112.939 216.943 114.648 204.128 120.487 201.089C126.325 198.05 118.079 214.962 121.809 227.731Z" fill="#EEE1D7"/>
<path d="M206.596 173.658C211.23 180.194 212.557 189.605 210.703 199.776C208.848 209.943 203.828 220.69 196.011 229.505C188.193 238.321 179.165 243.415 170.947 244.606C162.726 245.797 155.458 243.085 150.824 236.549C146.191 230.013 144.863 220.601 146.718 210.431C148.572 200.263 153.592 189.517 161.41 180.701C169.228 171.885 178.255 166.791 186.474 165.6C194.694 164.409 201.962 167.122 206.596 173.658Z" fill="#EEBC99" stroke="black" stroke-width="4"/>
<path d="M211.397 206.299C209.984 207.892 208.91 208.92 208.1 209.534C207.499 209.989 207.144 210.139 206.972 210.187C206.865 209.929 206.739 209.435 206.627 208.58C206.51 207.679 206.436 206.613 206.348 205.359L206.347 205.344C206.261 204.117 206.165 202.743 205.999 201.371C205.675 198.679 205.049 195.615 203.43 193.331C198.72 186.687 192.821 185.706 187.322 187.426C181.928 189.113 176.851 193.389 173.269 197.428C169.75 201.396 165.999 207.364 164.177 213.945C162.329 220.618 162.441 228.094 166.956 234.462C167.589 235.355 168.454 235.962 169.276 236.408C170.119 236.865 171.075 237.236 172.016 237.562C172.674 237.789 173.316 237.994 173.937 238.192C175.196 238.593 176.37 238.967 177.416 239.448C178.171 239.796 178.709 240.139 179.054 240.47C179.388 240.79 179.419 240.977 179.424 241.013C179.429 241.052 179.467 241.359 179.119 242.094C178.766 242.841 178.095 243.852 176.931 245.164C173.673 248.839 168.508 248.592 163.034 246.086C157.66 243.625 152.795 239.328 150.824 236.549C146.191 230.013 144.863 220.601 146.718 210.431C148.572 200.263 153.592 189.517 161.41 180.701C169.228 171.885 178.255 166.791 186.474 165.6C194.694 164.409 201.962 167.122 206.596 173.658C209.518 177.779 212.662 184.023 214.041 190.288C215.422 196.554 214.953 202.289 211.397 206.299Z" fill="#E9D0BE" stroke="black" stroke-width="4"/>
<path d="M159.212 203.699C154.274 216.25 160.405 232.091 155.354 228.898C150.304 225.705 150.213 212.942 155.152 200.392C160.09 187.841 168.188 180.256 173.238 183.449C178.288 186.642 164.151 191.149 159.212 203.699Z" fill="#EEE1D7"/>
<path d="M361.728 270.099C362.838 252.188 380.134 238.892 400.839 240.932C421.544 242.973 436.993 259.496 435.883 277.407C434.774 295.318 417.477 308.614 396.772 306.573C376.067 304.533 360.618 288.01 361.728 270.099Z" fill="#EEBC99" stroke="black" stroke-width="4"/>
<path d="M376.907 242.953C378.775 243.137 380.061 243.4 380.917 243.694C381.696 243.963 381.944 244.197 381.997 244.257C381.999 244.288 381.997 244.359 381.971 244.482C381.895 244.841 381.669 245.371 381.216 246.131C380.776 246.869 380.212 247.68 379.558 248.621L379.546 248.639C378.902 249.566 378.185 250.598 377.518 251.69C376.197 253.851 374.936 256.449 374.757 259.342C374.224 267.949 377.606 273.948 382.484 277.844C387.255 281.653 393.314 283.352 398.181 283.832C402.982 284.305 409.094 283.581 414.195 280.652C419.39 277.67 423.457 272.431 423.968 264.191C424.035 263.113 423.809 261.985 423.501 260.944C423.188 259.884 422.747 258.774 422.283 257.693C421.965 256.95 421.641 256.23 421.327 255.53C420.682 254.096 420.075 252.745 419.623 251.444C419.296 250.505 419.104 249.73 419.048 249.114C418.993 248.497 419.089 248.198 419.168 248.061C419.248 247.921 419.808 247.181 423 247.495C424.975 247.69 426.819 248.876 428.54 251.026C430.266 253.184 431.723 256.145 432.879 259.455C435.199 266.096 436.121 273.581 435.883 277.407C434.774 295.318 417.477 308.614 396.772 306.573C376.067 304.533 360.618 288.01 361.728 270.099C362.073 264.521 363.493 257.262 366.161 251.605C368.89 245.817 372.492 242.517 376.907 242.953Z" fill="#E9D0BE" stroke="black" stroke-width="4"/>
<path d="M411.444 292.364C422.217 287.885 427.62 272.244 429.059 278.478C430.498 284.712 422.931 293.396 412.158 297.876C401.385 302.355 391.486 300.933 390.047 294.699C388.608 288.466 400.671 296.843 411.444 292.364Z" fill="#EEE1D7"/>
<path d="M298.079 277.451C297.461 259.498 313.356 243.661 334.1 242.525C354.843 241.388 371.768 255.427 372.386 273.381C373.004 291.334 357.109 307.171 336.365 308.307C315.622 309.443 298.697 295.404 298.079 277.451Z" fill="#EEBC99" stroke="black" stroke-width="4"/>
<path d="M310.537 248.185C312.41 248.082 313.71 248.147 314.588 248.309C315.388 248.456 315.655 248.652 315.713 248.702C315.717 248.732 315.723 248.804 315.709 248.932C315.668 249.301 315.494 249.862 315.117 250.686C314.751 251.486 314.27 252.376 313.711 253.41L313.7 253.43C313.15 254.449 312.538 255.583 311.98 256.768C310.876 259.115 309.875 261.886 309.974 264.783C310.271 273.406 314.204 278.844 319.421 281.967C324.523 285.02 330.702 285.781 335.58 285.514C340.393 285.25 346.391 283.598 351.174 279.911C356.045 276.157 359.578 270.336 359.294 262.082C359.257 261.001 358.924 259.918 358.519 258.931C358.106 257.927 357.562 256.893 356.998 255.89C356.611 255.202 356.221 254.537 355.841 253.89C355.064 252.565 354.331 251.316 353.757 250.094C353.343 249.212 353.077 248.471 352.963 247.867C352.849 247.263 352.915 246.95 352.981 246.801C353.047 246.65 353.531 245.83 356.727 245.655C358.704 245.546 360.648 246.441 362.562 248.313C364.483 250.191 366.214 252.909 367.679 256.017C370.62 262.255 372.254 269.546 372.386 273.381C373.004 291.334 357.109 307.171 336.365 308.307C315.622 309.443 298.697 295.404 298.079 277.451C297.887 271.861 298.598 264.438 300.704 258.414C302.859 252.25 306.117 248.427 310.537 248.185Z" fill="#E9D0BE" stroke="black" stroke-width="4"/>
<path d="M349.564 291.959C359.829 285.864 363.697 269.521 365.721 275.484C367.745 281.447 361.065 291.222 350.8 297.316C340.536 303.411 330.573 303.518 328.549 297.555C326.524 291.593 339.299 298.054 349.564 291.959Z" fill="#EEE1D7"/>
<path d="M306.232 235.504C301.654 228.896 300.414 219.462 302.362 209.321C304.309 199.183 309.425 188.513 317.321 179.814C325.217 171.115 334.288 166.154 342.515 165.083C350.745 164.012 357.991 166.829 362.568 173.437C367.146 180.046 368.385 189.48 366.438 199.62C364.491 209.759 359.374 220.429 351.478 229.127C343.583 237.826 334.512 242.787 326.284 243.858C318.055 244.93 310.809 242.113 306.232 235.504Z" fill="#EEBC99" stroke="black" stroke-width="4"/>
<path d="M301.723 202.795C303.15 201.223 304.233 200.211 305.047 199.61C305.655 199.162 306.011 199.019 306.181 198.975C306.287 199.234 306.411 199.732 306.515 200.598C306.625 201.502 306.689 202.569 306.765 203.824L306.766 203.839C306.841 205.067 306.925 206.442 307.078 207.817C307.377 210.513 307.975 213.583 309.57 215.886C314.215 222.592 320.101 223.661 325.619 222.02C331.03 220.412 336.148 216.208 339.768 212.22C343.324 208.302 347.131 202.387 349.014 195.831C350.924 189.181 350.877 181.708 346.426 175.281C345.803 174.382 344.945 173.763 344.128 173.306C343.29 172.836 342.338 172.452 341.399 172.112C340.744 171.875 340.104 171.661 339.484 171.454C338.229 171.035 337.058 170.644 336.017 170.147C335.264 169.788 334.728 169.437 334.385 169.099C334.053 168.773 334.021 168.582 334.016 168.542C334.01 168.501 333.976 168.195 334.329 167.468C334.688 166.729 335.367 165.729 336.542 164.434C339.829 160.814 344.988 161.131 350.442 163.719C355.794 166.258 360.621 170.627 362.568 173.437C367.146 180.046 368.385 189.48 366.438 199.62C364.491 209.759 359.374 220.429 351.478 229.127C343.583 237.826 334.512 242.787 326.284 243.858C318.055 244.93 310.809 242.113 306.232 235.504C303.346 231.338 300.259 225.047 298.936 218.761C297.613 212.47 298.136 206.747 301.723 202.795Z" fill="#E9D0BE" stroke="black" stroke-width="4"/>
<path d="M353.881 206.157C358.933 193.67 352.972 177.742 357.98 181.004C362.987 184.265 362.952 197.032 357.9 209.52C352.848 222.007 344.694 229.486 339.686 226.225C334.678 222.963 348.829 218.644 353.881 206.157Z" fill="#EEE1D7"/>
<path d="M477.044 266.831C472.98 274.026 465.962 277.726 457.704 277.685C449.444 277.644 440.049 273.844 431.532 266.191C423.015 258.538 417.099 248.58 414.371 238.747C411.644 228.917 412.125 219.343 416.189 212.149C420.254 204.955 427.271 201.255 435.53 201.295C443.789 201.336 453.184 205.136 461.701 212.79C470.218 220.443 476.134 230.4 478.862 240.233C481.589 250.063 481.108 259.637 477.044 266.831Z" fill="#EEBC99" stroke="black" stroke-width="4"/>
<path d="M452.871 280.005C451.331 278.622 450.307 277.533 449.662 276.684C449.16 276.021 448.979 275.622 448.918 275.444C449.088 275.236 449.46 274.946 450.159 274.589C450.832 274.245 451.641 273.918 452.591 273.535L452.603 273.53C453.533 273.154 454.573 272.733 455.597 272.227C457.61 271.234 459.817 269.799 461.206 267.34C465.272 260.143 464.756 252.703 462.201 246.283C459.698 239.996 455.256 234.674 451.33 231.146C447.47 227.677 442.008 224.367 436.499 223.573C430.902 222.766 425.178 224.57 421.282 231.465C420.746 232.415 420.47 233.59 420.307 234.695C420.139 235.827 420.063 237.079 420.019 238.309C419.988 239.165 419.972 239.998 419.955 240.805C419.922 242.444 419.892 243.977 419.749 245.374C419.647 246.382 419.499 247.133 419.312 247.648C419.129 248.153 418.973 248.263 418.922 248.29C418.881 248.312 418.659 248.418 418.038 248.163C417.399 247.899 416.482 247.307 415.217 246.171C411.718 243.026 410.747 236.665 411.484 229.329C412.204 222.165 414.46 215.21 416.189 212.149C420.254 204.955 427.271 201.255 435.53 201.295C443.789 201.336 453.184 205.136 461.701 212.79C470.218 220.443 476.134 230.4 478.862 240.233C481.589 250.063 481.108 259.637 477.044 266.831C474.492 271.349 470.343 276.608 465.787 279.695C461.209 282.799 456.696 283.442 452.871 280.005Z" fill="#E9D0BE" stroke="black" stroke-width="4"/>
<path d="M443.401 215.228C432.539 211.955 421.605 222.704 422.952 215.946C424.3 209.189 434.198 206.364 445.06 209.637C455.922 212.91 463.635 221.042 462.287 227.8C460.939 234.558 454.263 218.502 443.401 215.228Z" fill="#EEE1D7"/>
<path d="M419.65 200.598C423.593 217.782 411.166 237.937 391.135 245.247C371.105 252.556 352.064 243.883 348.122 226.7C344.179 209.517 356.606 189.361 376.637 182.052C396.667 174.743 415.708 183.415 419.65 200.598Z" fill="#EEBC99" stroke="black" stroke-width="4"/>
<path d="M412.973 232.733C411.169 233.392 409.883 233.719 408.989 233.825C408.204 233.917 407.888 233.818 407.802 233.78C407.793 233.749 407.782 233.694 407.775 233.603C407.747 233.248 407.808 232.662 408.02 231.75C408.226 230.865 408.526 229.858 408.876 228.685L408.883 228.664C409.227 227.511 409.61 226.226 409.93 224.906C410.563 222.296 411.023 219.288 410.379 216.479C408.467 208.147 403.606 204.032 397.967 202.555C392.454 201.11 386.327 202.206 381.652 203.912C377.044 205.594 371.542 208.972 367.594 213.966C363.574 219.051 361.21 225.776 363.041 233.753C363.283 234.809 363.816 235.773 364.396 236.613C364.987 237.469 365.711 238.315 366.447 239.121C366.954 239.677 367.458 240.208 367.949 240.724C368.951 241.779 369.894 242.771 370.679 243.786C371.245 244.519 371.637 245.153 371.857 245.696C372.076 246.237 372.065 246.54 372.034 246.684C371.999 246.844 371.664 247.808 368.561 248.94C366.62 249.648 364.542 249.343 362.336 248.096C360.119 246.843 357.932 244.72 355.93 242.14C351.91 236.959 348.964 230.372 348.122 226.7C344.179 209.517 356.606 189.361 376.637 182.052C396.667 174.743 415.708 183.415 419.65 200.598C420.881 205.964 421.577 213.377 420.66 219.844C419.726 226.433 417.287 231.159 412.973 232.733Z" fill="#E9D0BE" stroke="black" stroke-width="4"/>
<path d="M366.852 201.821C358.029 210.737 357.459 227.873 354.314 222.604C351.169 217.336 355.772 205.837 364.595 196.921C373.417 188.004 383.119 185.047 386.264 190.316C389.409 195.584 375.675 192.905 366.852 201.821Z" fill="#EEE1D7"/>
<path d="M207.054 186.161C214.311 171.037 234.445 168.71 252.462 182.46C270.478 196.211 278.184 219.785 270.927 234.909C263.67 250.034 243.536 252.36 225.519 238.61C207.503 224.86 199.797 201.286 207.054 186.161Z" fill="#EEBC99" stroke="black" stroke-width="4"/>
<path d="M230.363 170.697C231.978 171.93 233.059 172.914 233.746 173.693C234.298 174.32 234.491 174.698 234.554 174.854C234.547 174.865 234.539 174.877 234.529 174.891C234.363 175.127 234.001 175.455 233.326 175.877C232.674 176.284 231.885 176.687 230.962 177.159L230.949 177.166C230.043 177.628 229.032 178.146 228.043 178.745C226.093 179.926 223.991 181.559 222.763 184.119C219.154 191.64 220.093 198.991 223.032 205.171C225.907 211.219 230.664 216.12 234.797 219.274C238.864 222.378 244.52 225.17 250.074 225.443C255.72 225.721 261.3 223.373 264.757 216.169C265.228 215.187 265.432 214.003 265.529 212.889C265.628 211.749 265.63 210.495 265.601 209.265C265.581 208.412 265.549 207.581 265.517 206.775C265.452 205.135 265.392 203.6 265.451 202.191C265.494 201.174 265.597 200.403 265.756 199.86C265.912 199.326 266.072 199.181 266.136 199.139C266.184 199.108 266.395 198.988 267.012 199.179C267.653 199.377 268.594 199.875 269.918 200.886C271.727 202.267 272.973 204.468 273.739 207.349C274.512 210.252 274.755 213.708 274.609 217.297C274.316 224.516 272.477 231.678 270.927 234.909C263.67 250.034 243.536 252.36 225.519 238.61C207.503 224.86 199.797 201.286 207.054 186.161C209.336 181.406 213.167 175.761 217.536 172.245C221.941 168.7 226.389 167.664 230.363 170.697Z" fill="#E9D0BE" stroke="black" stroke-width="4"/>
<path d="M243.638 234.405C254.704 236.617 265.001 225.043 264.058 231.808C263.116 238.574 253.38 242.265 242.314 240.053C231.247 237.84 223.04 230.562 223.983 223.797C224.925 217.032 232.571 232.193 243.638 234.405Z" fill="#EEE1D7"/>
<path d="M314.9 196.112C314.9 214.085 298.474 229.035 277.713 229.035C256.952 229.035 240.526 214.085 240.526 196.112C240.526 178.14 256.952 163.189 277.713 163.189C298.474 163.189 314.9 178.14 314.9 196.112Z" fill="#EEBC99" stroke="black" stroke-width="4"/>
<path d="M301.448 224.67C299.574 224.67 298.277 224.534 297.406 224.324C296.611 224.133 296.351 223.923 296.296 223.87C296.293 223.84 296.289 223.767 296.308 223.639C296.362 223.272 296.555 222.721 296.96 221.919C297.353 221.14 297.864 220.276 298.458 219.274L298.47 219.254C299.055 218.267 299.705 217.168 300.303 216.014C301.486 213.729 302.582 211.016 302.582 208.117C302.582 199.487 298.841 193.839 293.736 190.434C288.744 187.104 282.596 186.005 277.713 186.005C272.896 186.005 266.846 187.328 261.94 190.75C256.944 194.234 253.214 199.856 253.214 208.117C253.214 209.198 253.509 210.298 253.88 211.306C254.257 212.332 254.765 213.395 255.294 214.427C255.658 215.137 256.025 215.822 256.382 216.489C257.113 217.855 257.802 219.143 258.333 220.396C258.717 221.3 258.957 222.054 259.05 222.664C259.143 223.275 259.066 223.584 258.995 223.73C258.924 223.877 258.413 224.67 255.214 224.67C253.237 224.67 251.326 223.67 249.478 221.695C247.623 219.713 245.988 216.904 244.63 213.718C241.907 207.324 240.526 199.951 240.526 196.112C240.526 178.14 256.952 163.189 277.713 163.189C298.474 163.189 314.9 178.14 314.9 196.112C314.9 201.708 313.934 209.085 311.623 214.988C309.258 221.03 305.87 224.67 301.448 224.67Z" fill="#E9D0BE" stroke="black" stroke-width="4"/>
<path d="M263.964 178.801C253.499 184.33 249.07 200.442 247.254 194.376C245.437 188.311 252.449 178.911 262.914 173.383C273.38 167.854 283.336 168.289 285.152 174.355C286.969 180.42 274.43 173.272 263.964 178.801Z" fill="#EEE1D7"/>
<path d="M215.321 221.33C220.754 204.89 240.427 198.921 259.747 209.077C279.068 219.233 289.556 241.056 284.123 257.496C278.69 273.935 259.017 279.904 239.696 269.749C220.376 259.593 209.888 237.769 215.321 221.33Z" fill="#EEBC99" stroke="black" stroke-width="4"/>
<path d="M236.508 201.59C238.245 202.503 239.417 203.267 240.175 203.898C240.819 204.434 241.032 204.765 241.093 204.881C241.084 204.908 241.068 204.946 241.042 204.996C240.894 205.283 240.562 205.686 239.944 206.229C239.345 206.756 238.612 207.303 237.756 207.942L237.742 207.952C236.901 208.58 235.963 209.28 235.057 210.057C233.268 211.592 231.404 213.583 230.504 216.305C227.846 224.35 229.611 231.415 233.264 237.004C236.836 242.469 242.142 246.44 246.621 248.795C251.033 251.114 256.983 252.82 262.529 252.046C268.173 251.257 273.375 247.883 275.921 240.179C276.262 239.149 276.325 237.963 276.289 236.847C276.253 235.708 276.108 234.474 275.935 233.264C275.815 232.428 275.685 231.614 275.559 230.824C275.301 229.212 275.059 227.698 274.951 226.289C274.873 225.273 274.883 224.476 274.98 223.89C275.075 223.308 275.228 223.1 275.31 223.025C275.414 222.93 276.178 222.443 279.183 224.022C281.082 225.021 282.559 226.924 283.659 229.634C284.765 232.361 285.415 235.739 285.695 239.326C286.257 246.533 285.284 253.982 284.123 257.496C278.69 273.935 259.017 279.904 239.696 269.749C220.376 259.593 209.888 237.769 215.321 221.33C217.022 216.183 220.154 209.864 224.073 205.553C228.049 201.179 232.307 199.382 236.508 201.59Z" fill="#E9D0BE" stroke="black" stroke-width="4"/>
<path d="M257.132 262.108C268.401 262.159 277.303 249.075 277.15 255.769C276.997 262.462 267.738 267.847 256.47 267.796C245.201 267.746 236.191 262.279 236.343 255.585C236.496 248.892 245.864 262.057 257.132 262.108Z" fill="#EEE1D7"/>
<path d="M63.7466 257.117C58.2163 252.047 55.3278 243.283 55.4395 232.797C55.5509 222.333 58.6705 210.44 64.8662 199.692C71.0618 188.943 79.0691 181.531 86.9273 178.169C94.8015 174.8 102.303 175.562 107.833 180.632C113.363 185.702 116.252 194.466 116.14 204.952C116.029 215.416 112.909 227.309 106.714 238.058C100.518 248.806 92.5107 256.218 84.6525 259.58C76.7783 262.949 69.2768 262.188 63.7466 257.117Z" fill="#EEBC99" stroke="black" stroke-width="4"/>
<path d="M53.7098 226.471C54.8282 224.53 55.7168 223.222 56.4206 222.389C56.8935 221.829 57.2167 221.565 57.4049 221.443C57.5263 221.673 57.6925 222.07 57.8931 222.711C58.1574 223.557 58.4078 224.576 58.7041 225.782L58.7066 225.792C58.9954 226.968 59.3205 228.288 59.7131 229.59C60.4779 232.125 61.6173 235.02 63.6446 236.878C69.4668 242.216 75.448 241.535 80.4763 238.427C85.4325 235.363 89.6536 229.868 92.4636 224.993C95.2206 220.21 97.871 213.422 98.547 206.547C99.2289 199.612 97.9019 192.251 92.3186 187.132C91.5049 186.386 90.5174 186.014 89.6352 185.795C88.7237 185.57 87.7203 185.461 86.7448 185.394C86.0582 185.346 85.3934 185.317 84.7516 185.289C83.4578 185.232 82.2575 185.179 81.1612 184.988C80.3677 184.85 79.8074 184.661 79.4451 184.448C79.2744 184.347 79.1866 184.263 79.147 184.216C79.1146 184.178 79.111 184.163 79.109 184.157C79.105 184.145 79.0067 183.834 79.2382 182.968C79.4683 182.107 79.9695 180.913 80.8951 179.307C83.5426 174.714 88.7049 173.633 94.4011 174.613C100.049 175.585 105.485 178.479 107.833 180.632C113.363 185.702 116.252 194.466 116.14 204.952C116.029 215.416 112.909 227.309 106.714 238.058C100.518 248.806 92.5107 256.218 84.6525 259.58C76.7783 262.949 69.2768 262.188 63.7466 257.117C60.2271 253.891 56.1359 248.658 53.7546 242.94C51.3921 237.267 50.8273 231.472 53.7098 226.471Z" fill="#E9D0BE" stroke="black" stroke-width="4"/>
<path d="M105.135 215.069C107.916 201.657 98.8241 187.892 104.545 189.69C110.265 191.488 112.648 203.819 109.868 217.232C107.087 230.645 100.195 240.06 94.4748 238.262C88.7543 236.464 102.355 228.482 105.135 215.069Z" fill="#EEE1D7"/>
<path d="M354.087 239.412C354.087 257.384 337.661 272.335 316.9 272.335C296.139 272.335 279.713 257.384 279.713 239.412C279.713 221.44 296.139 206.489 316.9 206.489C337.661 206.489 354.087 221.44 354.087 239.412Z" fill="#EEBC99" stroke="black" stroke-width="4"/>
<path d="M340.635 267.969C338.761 267.969 337.464 267.834 336.594 267.624C335.798 267.433 335.539 267.223 335.484 267.17C335.48 267.14 335.476 267.067 335.495 266.939C335.549 266.572 335.742 266.021 336.147 265.219C336.54 264.439 337.052 263.576 337.646 262.574L337.657 262.554C338.242 261.567 338.893 260.468 339.49 259.313C340.674 257.029 341.77 254.316 341.77 251.417C341.77 242.787 338.029 237.139 332.923 233.734C327.931 230.404 321.783 229.305 316.9 229.305C312.083 229.305 306.033 230.627 301.127 234.049C296.131 237.534 292.401 243.156 292.401 251.417C292.401 252.498 292.696 253.598 293.067 254.606C293.445 255.631 293.953 256.695 294.482 257.727C294.845 258.436 295.212 259.122 295.569 259.789C296.3 261.155 296.989 262.443 297.521 263.696C297.904 264.6 298.144 265.354 298.237 265.964C298.331 266.575 298.253 266.884 298.183 267.03C298.111 267.177 297.601 267.969 294.401 267.969C292.424 267.969 290.513 266.97 288.665 264.995C286.81 263.013 285.175 260.204 283.818 257.018C281.095 250.624 279.713 243.251 279.713 239.412C279.713 221.44 296.139 206.489 316.9 206.489C337.661 206.489 354.087 221.44 354.087 239.412C354.087 245.007 353.121 252.385 350.81 258.288C348.445 264.33 345.058 267.969 340.635 267.969Z" fill="#E9D0BE" stroke="black" stroke-width="4"/>
<path d="M303.151 222.101C292.686 227.63 288.257 243.742 286.441 237.676C284.625 231.61 291.636 222.211 302.101 216.683C312.567 211.154 322.523 211.589 324.34 217.655C326.156 223.72 313.617 216.572 303.151 222.101Z" fill="#EEE1D7"/>
<path d="M175.362 223.064C181.953 223.537 188.113 228.784 192.566 237.773C196.985 246.696 199.48 258.9 198.879 272.248C198.277 285.596 194.701 297.364 189.507 305.598C184.275 313.893 177.684 318.225 171.092 317.752C164.501 317.28 158.342 312.033 153.889 303.043C149.47 294.12 146.974 281.916 147.576 268.568C148.178 255.22 151.754 243.452 156.948 235.218C162.179 226.924 168.771 222.591 175.362 223.064Z" fill="#EEBC99" stroke="black" stroke-width="4"/>
<path d="M196.77 242.115C196.662 244.521 196.474 246.257 196.233 247.472C196.1 248.142 195.963 248.583 195.852 248.865C195.683 248.74 195.484 248.576 195.253 248.367C194.672 247.839 194.026 247.156 193.256 246.34L193.254 246.338C192.507 245.547 191.665 244.656 190.773 243.826C189.062 242.235 186.783 240.487 184.119 240.296C176.669 239.762 171.92 244.59 169.092 250.497C166.268 256.394 165.084 263.829 164.815 269.805C164.551 275.657 165.229 283.107 167.587 289.289C169.935 295.445 174.21 300.904 181.363 301.417C182.486 301.497 183.552 301.095 184.391 300.675C185.271 300.234 186.172 299.632 187.021 299.023C187.627 298.589 188.202 298.157 188.756 297.742C189.863 296.91 190.882 296.145 191.877 295.563C192.601 295.139 193.114 294.94 193.443 294.884C193.499 294.874 193.539 294.87 193.568 294.868C193.642 294.973 193.815 295.279 193.959 296.002C194.145 296.934 194.236 298.325 194.145 300.329C193.879 306.232 189.874 310.683 184.759 313.689C179.616 316.712 173.877 317.952 171.092 317.752C164.501 317.28 158.342 312.033 153.889 303.043C149.47 294.12 146.974 281.916 147.576 268.568C148.178 255.22 151.754 243.452 156.948 235.218C162.179 226.924 168.771 222.591 175.362 223.064C179.634 223.37 185.246 224.955 189.649 228.1C193.977 231.192 197.059 235.71 196.77 242.115ZM193.626 294.87C193.625 294.871 193.62 294.87 193.611 294.868C193.622 294.869 193.626 294.87 193.626 294.87Z" fill="#E9D0BE" stroke="black" stroke-width="4"/>
<path d="M158.51 286.855C161.731 299.846 175.85 304.54 169.902 307.204C163.954 309.868 156.521 301.497 153.301 288.507C150.081 275.516 152.292 262.826 158.24 260.162C164.188 257.498 155.29 273.865 158.51 286.855Z" fill="#EEE1D7"/>
<path d="M19.479 216.012C26.2334 200.475 46.2787 197.101 64.7105 209.846C83.1424 222.591 91.6665 245.719 84.9121 261.256C78.1576 276.793 58.1124 280.167 39.6805 267.422C21.2486 254.677 12.7245 231.549 19.479 216.012Z" fill="#EEBC99" stroke="black" stroke-width="4"/>
<path d="M42.2344 199.283C43.8881 200.426 44.9975 201.349 45.7065 202.087C46.2861 202.69 46.4859 203.055 46.5488 203.199C46.5397 203.216 46.5281 203.236 46.5132 203.259C46.3506 203.51 45.9963 203.86 45.3358 204.318C44.6977 204.76 43.9231 205.205 43.0172 205.726L43.0034 205.734C42.1145 206.244 41.1222 206.816 40.1543 207.468C38.2465 208.753 36.2087 210.492 35.0733 213.104C31.7312 220.792 32.9096 228.076 36.0595 234.102C39.1409 239.998 44.0661 244.644 48.3078 247.577C52.4826 250.464 58.2364 252.952 63.8006 252.926C69.4601 252.9 74.9437 250.25 78.1448 242.886C78.5783 241.889 78.7416 240.703 78.8009 239.585C78.8615 238.443 78.8207 237.193 78.7504 235.966C78.7017 235.115 78.641 234.287 78.5821 233.484C78.4622 231.848 78.3499 230.315 78.3614 228.903C78.3696 227.884 78.4467 227.104 78.5885 226.547C78.7286 225.997 78.8876 225.834 78.9582 225.783C79.0089 225.746 79.214 225.617 79.828 225.773C80.469 225.935 81.4203 226.379 82.7746 227.315C84.6143 228.587 85.9297 230.707 86.7933 233.545C87.6631 236.404 88.0237 239.846 87.9993 243.443C87.9502 250.675 86.3554 257.936 84.9121 261.256C78.1576 276.793 58.1124 280.167 39.6805 267.422C21.2486 254.677 12.7245 231.549 19.479 216.012C21.5999 211.133 25.2405 205.282 29.4904 201.53C33.7842 197.74 38.1857 196.483 42.2344 199.283Z" fill="#E9D0BE" stroke="black" stroke-width="4"/>
<path d="M57.6471 262.22C68.7997 263.819 78.7142 251.795 77.9999 258.551C77.2856 265.307 67.6656 269.488 56.513 267.889C45.3604 266.29 36.8984 259.517 37.6127 252.761C38.327 246.006 46.4945 260.622 57.6471 262.22Z" fill="#EEE1D7"/>
<path d="M238.923 309.7C231.59 294.641 239.169 271.003 257.119 257.1C275.069 243.198 295.214 245.364 302.546 260.422C309.879 275.481 302.3 299.119 284.35 313.022C266.4 326.925 246.256 324.759 238.923 309.7Z" fill="#EEBC99" stroke="black" stroke-width="4"/>
<path d="M238.705 276.485C240.314 275.239 241.503 274.478 242.368 274.065C243.061 273.734 243.416 273.689 243.557 273.69C243.561 273.702 243.565 273.715 243.57 273.731C243.66 274.024 243.726 274.579 243.714 275.53C243.702 276.447 243.625 277.515 243.534 278.766L243.533 278.784C243.444 280.011 243.346 281.382 243.315 282.766C243.254 285.492 243.442 288.598 244.684 291.15C248.334 298.645 253.947 300.958 259.648 300.496C265.226 300.043 270.858 296.956 274.974 293.768C279.024 290.631 283.582 285.57 286.318 279.47C289.1 273.269 290.002 265.937 286.506 258.758C286.03 257.779 285.288 257.007 284.547 256.388C283.789 255.754 282.906 255.178 282.026 254.647C281.415 254.278 280.814 253.934 280.231 253.6C279.046 252.921 277.937 252.286 276.971 251.574C276.274 251.06 275.778 250.592 275.469 250.166C275.165 249.746 275.136 249.503 275.136 249.414C275.136 249.347 275.148 249.055 275.566 248.449C276.001 247.82 276.783 246.993 278.103 245.971C279.907 244.574 282.03 244.186 284.412 244.647C286.812 245.111 289.359 246.421 291.821 248.228C296.775 251.864 300.98 257.205 302.546 260.422C309.879 275.481 302.3 299.119 284.35 313.022C266.4 326.925 246.256 324.759 238.923 309.7C236.617 304.964 234.394 298.084 233.917 291.577C233.437 285.017 234.743 279.554 238.705 276.485Z" fill="#E9D0BE" stroke="black" stroke-width="4"/>
<path d="M289.689 290.787C296.318 279.399 292.865 262.55 297.208 266.71C301.55 270.87 299.697 283.474 293.068 294.862C286.439 306.25 277.545 312.109 273.202 307.949C268.86 303.789 283.06 302.175 289.689 290.787Z" fill="#EEE1D7"/>
</g>
</svg>
