<svg width="500" height="500" viewBox="0 0 500 500" fill="none" xmlns="http://www.w3.org/2000/svg">
<path d="M357.146 317.918C357.146 367.978 320.641 416 247.146 416C173.652 416 137.683 367.978 137.683 317.918C137.683 285.435 157.399 273.448 157.89 199.988C178.288 191.328 221.341 234.716 247.146 234.716C272.952 234.716 318.854 192.541 339.252 201.201C338.76 274.66 357.146 285.435 357.146 317.918Z" fill="#C65D5D"/>
<path d="M242.854 95.3361C292.935 95.671 339.744 127.742 339.252 201.201C338.76 274.66 296.689 334.338 246.608 334.003C196.526 333.669 157.399 273.448 157.89 199.988C158.382 126.529 192.772 95.0012 242.854 95.3361Z" fill="#C65D5D"/>
<path d="M351.244 104.99C338.366 115.181 339.744 127.742 339.252 201.201C321.359 205.124 270.538 113.709 243.927 113.709C221.12 113.709 174.698 202.963 157.89 199.988C158.382 126.529 163.976 129.799 144.122 90.6463C142.756 87.2331 142.954 84.6758 145.195 83.0003C166.122 83.0003 198.828 83.1374 243.927 83.1374C276.534 83.1374 320.658 83.0422 347.488 83.0001C362.321 82.9768 374.854 89.9727 377 100.7C370.024 98.0178 357.146 100.32 351.244 104.99Z" fill="#C65D5D"/>
<path d="M377 100.7C370.024 98.0178 357.146 100.32 351.244 104.99C345.38 109.63 342.472 114.761 340.997 125.908H157.862C156.197 115.789 152.339 106.851 144.122 90.6463C142.756 87.2331 142.954 84.6758 145.195 83.0003C166.122 83.0003 198.828 83.1374 243.927 83.1374C276.534 83.1374 320.658 83.0422 347.488 83.0001C362.321 82.9768 374.854 89.9727 377 100.7Z" fill="#D2D2D2"/>
<path d="M82.4146 217.622C82.4146 267.682 154.551 305.046 145.312 315.773C136.073 326.499 69 267.682 69 217.622C69 187.563 97.9756 151.466 120.512 148.434C148.415 144.68 173.634 163.452 169.341 174.179C165.049 184.905 147.341 154.807 122.659 161.843C101.195 167.961 82.4146 192.373 82.4146 217.622Z" fill="#D2D2D2"/>
<ellipse cx="221.39" cy="187.051" rx="32.1951" ry="32.1805" fill="#F0A900"/>
<path d="M247.986 187.051C247.986 201.733 236.079 213.635 221.39 213.635C206.702 213.635 194.794 201.733 194.794 187.051C194.794 172.369 206.702 160.467 221.39 160.467C236.079 160.467 247.986 172.369 247.986 187.051Z" fill="#EA7D0F"/>
<rect width="5.5966" height="57.3913" transform="matrix(0.00297421 0.999996 -0.999996 0.0029715 249.386 184.252)" fill="#F0A900"/>
<rect x="218.591" y="159.068" width="5.59915" height="57.3652" fill="#F0A900"/>
<rect width="5.59784" height="57.3786" transform="matrix(-0.697502 0.716583 -0.716899 -0.697177 243.218 205.132)" fill="#F0A900"/>
<rect width="5.59776" height="57.3795" transform="matrix(-0.674261 -0.738493 0.738799 -0.673926 201.39 208.538)" fill="#F0A900"/>
<ellipse cx="301.878" cy="313.627" rx="32.1951" ry="32.1805" fill="#F0A900"/>
<path d="M328.474 313.627C328.474 328.309 316.567 340.211 301.878 340.211C287.19 340.211 275.282 328.309 275.282 313.627C275.282 298.945 287.19 287.043 301.878 287.043C316.567 287.043 328.474 298.945 328.474 313.627Z" fill="#EA7D0F"/>
<rect width="5.59659" height="57.3913" transform="matrix(0.00297422 0.999996 -0.999996 0.0029715 329.874 310.829)" fill="#F0A900"/>
<rect x="299.079" y="285.644" width="5.59914" height="57.3652" fill="#F0A900"/>
<rect width="5.59785" height="57.3786" transform="matrix(-0.697502 0.716582 -0.7169 -0.697177 323.706 331.708)" fill="#F0A900"/>
<rect width="5.59776" height="57.3795" transform="matrix(-0.674261 -0.738494 0.738799 -0.673926 281.878 335.114)" fill="#F0A900"/>
<ellipse cx="207.439" cy="358.68" rx="32.1951" ry="32.1805" fill="#D04215"/>
<path d="M234.035 358.68C234.035 373.362 222.128 385.264 207.439 385.264C192.75 385.264 180.843 373.362 180.843 358.68C180.843 343.998 192.75 332.096 207.439 332.096C222.128 332.096 234.035 343.998 234.035 358.68Z" fill="#AA0F18"/>
<rect width="5.59658" height="57.3913" transform="matrix(0.00297422 0.999996 -0.999996 0.00297149 235.435 355.881)" fill="#D04215"/>
<rect x="204.639" y="330.697" width="5.59915" height="57.3652" fill="#D04215"/>
<rect width="5.59785" height="57.3786" transform="matrix(-0.697502 0.716583 -0.716899 -0.697177 229.267 376.761)" fill="#D04215"/>
<rect width="5.59776" height="57.3794" transform="matrix(-0.674261 -0.738493 0.738799 -0.673926 187.439 380.167)" fill="#D04215"/>
<path d="M304.35 244.633C305.157 236.986 316.231 221.721 305.767 203.864C295.303 186.007 281.746 188.009 269.093 184.465C281.652 175.602 302.461 174.372 316.735 197.443C329.548 219.31 313.824 242.108 304.35 244.633Z" fill="#F6BF0E"/>
<path d="M304.35 244.633C305.157 236.986 316.231 221.721 305.767 203.864C295.303 186.007 281.746 188.009 269.093 184.465C281.652 175.602 302.461 174.372 316.735 197.443C329.548 219.31 313.824 242.108 304.35 244.633Z" fill="#F6BF0E"/>
<path d="M304.233 245.079C305.04 237.432 312.537 223.797 302.073 205.94C291.609 188.083 281.299 187.892 268.647 184.348C281.206 175.486 302.578 181.663 313.041 199.52C323.505 217.377 313.707 242.554 304.233 245.079Z" fill="#EEE7D5"/>
<path d="M304.233 245.079C305.04 237.432 312.537 223.797 302.073 205.94C291.609 188.083 281.299 187.892 268.647 184.348C281.206 175.486 302.578 181.663 313.041 199.52C323.505 217.377 313.707 242.554 304.233 245.079Z" fill="#EEE7D5"/>
<path d="M182.868 249.826C186.316 256.699 185.232 275.528 203.68 284.916C222.128 294.304 232.462 285.301 245.027 281.457C239.237 295.696 222.381 307.962 197.911 296.241C175.321 284.745 176.254 257.064 182.868 249.826Z" fill="#699304"/>
<path d="M182.868 249.826C186.316 256.699 185.232 275.528 203.68 284.916C222.128 294.304 232.462 285.301 245.027 281.457C239.237 295.696 222.381 307.962 197.911 296.241C175.321 284.745 176.254 257.064 182.868 249.826Z" fill="#699304"/>
<path d="M182.725 249.388C186.173 256.262 187.22 271.787 205.669 281.175C224.117 290.563 232.9 285.159 245.466 281.315C239.675 295.555 218.348 301.888 199.899 292.5C181.451 283.112 176.111 256.627 182.725 249.388Z" fill="#EEE7D5"/>
<path d="M182.725 249.388C186.173 256.262 187.22 271.787 205.669 281.175C224.117 290.563 232.9 285.159 245.466 281.315C239.675 295.555 218.348 301.888 199.899 292.5C181.451 283.112 176.111 256.627 182.725 249.388Z" fill="#EEE7D5"/>
<ellipse cx="214.415" cy="258.384" rx="3.7561" ry="3.75439" fill="#D59898"/>
<ellipse cx="214.415" cy="258.384" rx="3.7561" ry="3.75439" fill="#D59898"/>
<ellipse cx="257.342" cy="318.454" rx="3.7561" ry="3.75439" fill="#D59898"/>
<ellipse cx="257.342" cy="318.454" rx="3.7561" ry="3.75439" fill="#D59898"/>
<ellipse cx="314.219" cy="156.479" rx="3.75609" ry="3.75439" fill="#D59898"/>
<ellipse cx="314.219" cy="156.479" rx="3.75609" ry="3.75439" fill="#D59898"/>
<ellipse cx="285.244" cy="397.833" rx="3.75609" ry="3.75443" fill="#D59898"/>
<ellipse cx="285.244" cy="397.833" rx="3.75609" ry="3.75443" fill="#D59898"/>
<ellipse cx="157.537" cy="359.216" rx="3.7561" ry="3.75438" fill="#D59898"/>
<ellipse cx="157.537" cy="359.216" rx="3.7561" ry="3.75438" fill="#D59898"/>
</svg>
