<svg width="500" height="500" viewBox="0 0 500 500" fill="none" xmlns="http://www.w3.org/2000/svg">
<ellipse cx="250.193" cy="213.068" rx="94.1932" ry="53.8638" fill="#D2DFE7"/>
<rect x="156" y="213.217" width="188.386" height="239.925" fill="#D2DFE7"/>
<rect x="227.741" y="47.0002" width="44.9045" height="239.925" fill="#D2DFE7"/>
<rect x="156" y="232.017" width="188.386" height="175.468" fill="#004473"/>
<rect x="227.741" y="47" width="44.9045" height="12.5334" fill="#004473"/>
<path d="M191.935 298.584L201.485 273.384H206.305L193.909 303.935H190.006L177.633 273.384H182.431L191.935 298.584Z" fill="white"/>
<path d="M236.195 289.646C236.195 292.639 235.644 295.255 234.542 297.493C233.44 299.717 231.879 301.417 229.859 302.592C227.839 303.767 225.482 304.354 222.788 304.354C220.156 304.354 217.822 303.767 215.786 302.592C213.751 301.403 212.167 299.717 211.034 297.535C209.917 295.339 209.343 292.8 209.313 289.919V287.715C209.313 284.778 209.871 282.183 210.989 279.931C212.106 277.679 213.682 275.958 215.718 274.769C217.768 273.566 220.11 272.965 222.742 272.965C225.421 272.965 227.777 273.559 229.813 274.748C231.864 275.923 233.44 277.637 234.542 279.889C235.644 282.127 236.195 284.736 236.195 287.715V289.646ZM231.81 287.673C231.81 284.05 231.014 281.274 229.423 279.343C227.831 277.399 225.604 276.427 222.742 276.427C219.957 276.427 217.761 277.399 216.154 279.343C214.562 281.274 213.743 283.96 213.697 287.401V289.646C213.697 293.157 214.501 295.919 216.108 297.934C217.73 299.934 219.957 300.934 222.788 300.934C225.635 300.934 227.839 299.99 229.4 298.102C230.961 296.199 231.764 293.478 231.81 289.939V287.673Z" fill="white"/>
<path d="M242.806 303.935V273.384H252.241C255.149 273.384 257.72 273.972 259.955 275.147C262.189 276.322 263.911 277.994 265.12 280.162C266.344 282.33 266.964 284.82 266.979 287.631V289.583C266.979 292.464 266.367 294.989 265.143 297.157C263.934 299.326 262.197 300.99 259.932 302.151C257.682 303.312 255.057 303.907 252.058 303.935H242.806ZM247.214 276.7V300.64H251.851C255.249 300.64 257.889 299.675 259.771 297.745C261.669 295.815 262.618 293.066 262.618 289.499V287.715C262.618 284.246 261.722 281.554 259.932 279.637C258.157 277.707 255.631 276.728 252.356 276.7H247.214Z" fill="white"/>
<path d="M282.154 289.73L278.067 293.611V303.935H273.66V273.384H278.067V288.492L292.92 273.384H298.246L285.092 286.876L299.279 303.935H293.999L282.154 289.73Z" fill="white"/>
<path d="M321.593 295.961H307.59L304.445 303.935H299.899L312.663 273.384H316.52L329.306 303.935H324.784L321.593 295.961ZM308.921 292.646H320.285L314.591 278.357L308.921 292.646Z" fill="white"/>
<path d="M193.631 356.801H185.851L184.104 361.23H181.579L188.67 344.258H190.812L197.916 361.23H195.404L193.631 356.801ZM186.591 354.959H192.904L189.741 347.021L186.591 354.959Z" fill="white"/>
<path d="M214.687 361.23H212.226L202.877 348.151V361.23H200.416V344.258H202.877L212.251 357.395V344.258H214.687V361.23Z" fill="white"/>
<path d="M219.036 361.23V344.258H224.278C225.893 344.258 227.322 344.584 228.563 345.237C229.804 345.89 230.761 346.819 231.433 348.023C232.113 349.228 232.457 350.611 232.466 352.173V353.257C232.466 354.858 232.126 356.261 231.445 357.465C230.774 358.67 229.809 359.595 228.55 360.24C227.3 360.885 225.842 361.215 224.176 361.23H219.036ZM221.485 346.1V359.4H224.061C225.949 359.4 227.415 358.864 228.461 357.792C229.515 356.719 230.042 355.192 230.042 353.21V352.22C230.042 350.292 229.545 348.796 228.55 347.732C227.564 346.659 226.161 346.115 224.342 346.1H221.485Z" fill="white"/>
<path d="M242.987 354.364H238.626V361.23H236.164V344.258H242.311C244.403 344.258 246.01 344.693 247.132 345.564C248.263 346.434 248.829 347.701 248.829 349.364C248.829 350.421 248.514 351.341 247.885 352.126C247.264 352.911 246.397 353.498 245.283 353.887L249.645 361.09V361.23H247.018L242.987 354.364ZM238.626 352.534H242.388C243.604 352.534 244.569 352.247 245.283 351.672C246.006 351.097 246.367 350.327 246.367 349.364C246.367 348.315 246.023 347.51 245.334 346.951C244.654 346.391 243.668 346.108 242.375 346.1H238.626V352.534Z" fill="white"/>
<path d="M266.556 353.292C266.556 354.955 266.25 356.408 265.638 357.652C265.026 358.887 264.158 359.832 263.036 360.484C261.914 361.137 260.604 361.464 259.108 361.464C257.646 361.464 256.349 361.137 255.218 360.484C254.087 359.824 253.207 358.887 252.578 357.675C251.957 356.455 251.639 355.044 251.622 353.444V352.22C251.622 350.588 251.932 349.146 252.553 347.895C253.173 346.644 254.049 345.688 255.18 345.027C256.319 344.359 257.62 344.025 259.082 344.025C260.57 344.025 261.88 344.355 263.011 345.016C264.15 345.669 265.026 346.62 265.638 347.872C266.25 349.115 266.556 350.564 266.556 352.22V353.292ZM264.12 352.196C264.12 350.184 263.678 348.641 262.794 347.569C261.91 346.488 260.672 345.948 259.082 345.948C257.535 345.948 256.315 346.488 255.422 347.569C254.538 348.641 254.083 350.133 254.058 352.045V353.292C254.058 355.243 254.504 356.777 255.397 357.897C256.298 359.008 257.535 359.563 259.108 359.563C260.689 359.563 261.914 359.039 262.781 357.99C263.648 356.933 264.095 355.421 264.12 353.455V352.196Z" fill="white"/>
<path d="M272.678 354.586V361.23H270.229V344.258H277.078C279.11 344.258 280.7 344.732 281.848 345.68C283.004 346.628 283.582 347.883 283.582 349.445C283.582 351.093 283.017 352.363 281.886 353.257C280.764 354.143 279.152 354.586 277.052 354.586H272.678ZM272.678 352.756H277.078C278.387 352.756 279.39 352.476 280.088 351.917C280.785 351.349 281.133 350.533 281.133 349.469C281.133 348.458 280.785 347.65 280.088 347.044C279.39 346.438 278.434 346.123 277.218 346.1H272.678V352.756Z" fill="white"/>
<path d="M300.991 353.292C300.991 354.955 300.685 356.408 300.073 357.652C299.46 358.887 298.593 359.832 297.471 360.484C296.349 361.137 295.039 361.464 293.543 361.464C292.08 361.464 290.784 361.137 289.653 360.484C288.522 359.824 287.642 358.887 287.013 357.675C286.392 356.455 286.073 355.044 286.056 353.444V352.22C286.056 350.588 286.367 349.146 286.987 347.895C287.608 346.644 288.484 345.688 289.615 345.027C290.754 344.359 292.055 344.025 293.517 344.025C295.005 344.025 296.315 344.355 297.445 345.016C298.585 345.669 299.46 346.62 300.073 347.872C300.685 349.115 300.991 350.564 300.991 352.22V353.292ZM298.555 352.196C298.555 350.184 298.113 348.641 297.229 347.569C296.344 346.488 295.107 345.948 293.517 345.948C291.97 345.948 290.75 346.488 289.857 347.569C288.973 348.641 288.518 350.133 288.492 352.045V353.292C288.492 355.243 288.939 356.777 289.831 357.897C290.733 359.008 291.97 359.563 293.543 359.563C295.124 359.563 296.349 359.039 297.216 357.99C298.083 356.933 298.529 355.421 298.555 353.455V352.196Z" fill="white"/>
<path d="M308.669 355.88L309.026 358.118L309.549 356.101L313.222 344.258H315.288L318.871 356.101L319.382 358.153L319.777 355.868L322.659 344.258H325.121L320.619 361.23H318.387L314.561 348.862L314.267 347.569L313.974 348.862L310.008 361.23H307.776L303.287 344.258H305.735L308.669 355.88Z" fill="white"/>
<rect x="281.148" y="197.103" width="39.0589" height="234.255" rx="19.5295" fill="white" fill-opacity="0.42"/>
<path d="M161.538 453.142V218.41V209.313C161.538 201.728 165.873 190.824 174.568 184.42C183.262 178.016 193.175 172.477 201.605 169.644C210.035 166.81 227.828 163.083 227.828 163.083V160.696C227.828 160.696 211.014 163.082 201.605 166.81C192.196 170.539 185.551 172.931 174.568 180.839C163.585 188.747 156 202.325 156 209.313V218.41V453.142H161.538Z" fill="black" fill-opacity="0.11"/>
<path d="M227.828 47.0002H231.093V163.083H227.828V47.0002Z" fill="black" fill-opacity="0.11"/>
</svg>
