<svg width="220" height="277" viewBox="0 0 220 277" fill="none" xmlns="http://www.w3.org/2000/svg">
<path d="M36.605 74.5782L64.4816 61.2503L61.5629 31.2673C61.5085 30.6934 61.3166 30.141 61.0036 29.6568C60.6906 29.1727 60.2655 28.771 59.7644 28.4859C59.2634 28.2007 58.701 28.0404 58.1249 28.0186C57.5487 27.9967 56.9758 28.1139 56.4546 28.3603L42.7021 34.9354L38.818 26.8114L44.6588 24.0189C45.0813 23.8169 45.4062 23.4553 45.5621 23.0138C45.718 22.5722 45.6921 22.0868 45.4901 21.6643L42.6215 15.6642C42.4173 15.2366 42.0548 14.9052 41.6106 14.7401C41.1664 14.575 40.6754 14.5893 40.2415 14.7798L32.5954 18.4354L28.9397 10.7893C28.8495 10.5395 28.7058 10.3125 28.5188 10.124C28.3318 9.93547 28.1058 9.79008 27.8568 9.69794C27.6077 9.6058 27.3416 9.56914 27.0769 9.59051C26.8122 9.61188 26.5554 9.69077 26.3243 9.82168L20.4304 12.6396C20.0079 12.8416 19.683 13.2031 19.5271 13.6447C19.3712 14.0862 19.3971 14.5717 19.599 14.9941L23.2547 22.6403L15.6085 26.296C15.172 26.5047 14.8362 26.8783 14.6751 27.3346C14.514 27.7908 14.5408 28.2924 14.7495 28.729L17.6182 34.7291C17.7202 34.9429 17.8643 35.134 18.0417 35.2909C18.2192 35.4479 18.4264 35.5675 18.6511 35.6427C18.8757 35.7179 19.1132 35.7471 19.3494 35.7287C19.5856 35.7102 19.8156 35.6443 20.0258 35.5351L25.8135 32.7679L29.6977 40.892L15.9452 47.4671C15.4262 47.7181 14.9752 48.0904 14.6305 48.5525C14.2858 49.0146 14.0574 49.553 13.9647 50.122C13.872 50.691 13.9177 51.274 14.098 51.8217C14.2783 52.3693 14.5878 52.8655 15.0003 53.2682L36.605 74.5782Z" fill="black"/>
<path d="M120.458 184.291L113.866 180.054V171.696C113.866 171.464 113.82 171.235 113.732 171.021C113.643 170.806 113.513 170.612 113.349 170.448C113.185 170.284 112.99 170.154 112.776 170.065C112.562 169.976 112.332 169.931 112.101 169.931H59.4253C59.1885 169.923 58.9526 169.962 58.7315 170.048C58.5105 170.133 58.3088 170.262 58.1386 170.426C57.9683 170.591 57.833 170.788 57.7406 171.007C57.6482 171.225 57.6007 171.459 57.6008 171.696V180.054L51.009 184.291C50.7623 184.465 50.5594 184.693 50.4163 184.959C50.2733 185.225 50.1941 185.52 50.1851 185.821V198.24C50.2003 198.713 50.3993 199.162 50.7398 199.492C51.0803 199.822 51.5357 200.006 52.0096 200.005H119.693C120.156 199.991 120.597 199.8 120.925 199.472C121.253 199.144 121.444 198.703 121.458 198.24V185.821C121.447 185.499 121.348 185.186 121.172 184.917C120.995 184.647 120.748 184.431 120.458 184.291V184.291Z" fill="black"/>
<path d="M93.4444 102.763C93.918 102.664 94.3325 102.38 94.5969 101.975C94.8614 101.57 94.954 101.076 94.8544 100.602L93.5825 94.5549C93.5338 94.323 93.439 94.1033 93.3037 93.9088C93.1684 93.7144 92.9954 93.5491 92.7949 93.4229C92.5944 93.2968 92.3705 93.2122 92.1367 93.1743C91.9028 93.1365 91.6637 93.1461 91.4336 93.2025L49.5621 102.009C49.3313 102.049 49.1113 102.136 48.9157 102.265C48.7201 102.394 48.5531 102.562 48.4251 102.758C48.2971 102.954 48.2109 103.174 48.1717 103.405C48.1326 103.636 48.1414 103.873 48.1977 104.1L49.4695 110.148C49.5106 110.381 49.5981 110.604 49.727 110.802C49.8558 111.001 50.0234 111.172 50.2196 111.305C50.4159 111.437 50.6368 111.529 50.8693 111.575C51.1018 111.62 51.3411 111.619 51.5729 111.57L59.1178 109.983C63.0245 124.882 64.4833 140.317 63.4373 155.685L100.413 147.908C93.2133 134.286 88.328 119.562 85.9571 104.338L93.4444 102.763Z" fill="black"/>
<path d="M151.786 70.4827C151.911 83.4055 150.577 96.3011 147.809 108.925H197.519C194.748 96.3016 193.414 83.4056 193.542 70.4827L201.893 64.8489C202.074 64.737 202.224 64.581 202.328 64.3955C202.432 64.2101 202.488 64.0012 202.49 63.7885V40.3256C202.49 39.974 202.35 39.6369 202.101 39.3883C201.853 39.1397 201.516 39 201.164 39H191.885C191.533 39 191.196 39.1397 190.948 39.3883C190.699 39.6369 190.559 39.974 190.559 40.3256V50.864H182.672V40.3256C182.672 39.974 182.532 39.6369 182.284 39.3883C182.035 39.1397 181.698 39 181.347 39H163.65C163.298 39 162.961 39.1397 162.713 39.3883C162.464 39.6369 162.324 39.974 162.324 40.3256V50.864H154.702V40.3256C154.702 39.974 154.563 39.6369 154.314 39.3883C154.065 39.1397 153.728 39 153.377 39H144.098C143.746 39 143.409 39.1397 143.16 39.3883C142.912 39.6369 142.772 39.974 142.772 40.3256V63.7885C142.797 63.9945 142.87 64.1918 142.985 64.3645C143.1 64.5371 143.254 64.6804 143.435 64.7827L151.786 70.4827ZM172.531 77.1106C173.885 77.1106 175.183 77.6483 176.14 78.6054C177.097 79.5625 177.635 80.8606 177.635 82.2141V92.3548H167.428V82.2804C167.419 81.6077 167.545 80.9401 167.798 80.3169C168.052 79.6937 168.427 79.1275 168.903 78.6518C169.378 78.1761 169.945 77.8005 170.568 77.5472C171.191 77.2939 171.859 77.168 172.531 77.1769V77.1106Z" fill="black"/>
<path d="M208.72 122.313L204.147 118.734V113.498C204.156 113.327 204.13 113.156 204.071 112.996C204.011 112.835 203.92 112.688 203.802 112.564C203.684 112.44 203.542 112.342 203.385 112.274C203.228 112.207 203.059 112.172 202.887 112.172H144.429C144.078 112.172 143.74 112.312 143.492 112.561C143.243 112.809 143.104 113.146 143.104 113.498V118.734L138.53 122.247C138.369 122.374 138.238 122.534 138.147 122.718C138.055 122.901 138.005 123.102 138 123.307V135.039C138.017 135.379 138.164 135.699 138.411 135.934C138.658 136.168 138.985 136.298 139.326 136.298H207.925C208.096 136.307 208.266 136.281 208.427 136.222C208.587 136.163 208.734 136.071 208.858 135.953C208.982 135.836 209.081 135.694 209.148 135.536C209.216 135.379 209.25 135.21 209.25 135.039V123.374C209.262 123.166 209.219 122.959 209.126 122.773C209.033 122.587 208.893 122.428 208.72 122.313Z" fill="black"/>
<path d="M47.7334 260V210.234H65.165C71.2035 210.234 75.7835 211.396 78.9053 213.721C82.027 216.022 83.5879 219.406 83.5879 223.872C83.5879 226.31 82.9613 228.464 81.708 230.332C80.4548 232.178 78.7116 233.534 76.4785 234.399C79.0306 235.037 81.0358 236.325 82.4941 238.262C83.9753 240.199 84.7158 242.568 84.7158 245.371C84.7158 250.156 83.1891 253.779 80.1357 256.24C77.0824 258.701 72.7301 259.954 67.0791 260H47.7334ZM57.9873 238.33V251.763H66.7715C69.1868 251.763 71.0667 251.193 72.4111 250.054C73.7783 248.892 74.4619 247.297 74.4619 245.269C74.4619 240.711 72.1035 238.398 67.3867 238.33H57.9873ZM57.9873 231.084H65.5752C70.7477 230.993 73.334 228.931 73.334 224.897C73.334 222.642 72.6732 221.024 71.3516 220.044C70.0527 219.041 67.9906 218.54 65.165 218.54H57.9873V231.084ZM122.382 238.433H102.694V251.763H125.8V260H92.4404V210.234H125.731V218.54H102.694V230.4H122.382V238.433ZM159.911 249.746H141.933L138.515 260H127.611L146.137 210.234H155.639L174.267 260H163.363L159.911 249.746ZM144.701 241.44H157.143L150.888 222.812L144.701 241.44ZM212.274 218.54H197.03V260H186.776V218.54H171.737V210.234H212.274V218.54Z" fill="black"/>
<path d="M170.479 145.234V178.013C170.479 183.459 168.771 187.765 165.353 190.933C161.957 194.1 157.309 195.684 151.407 195.684C145.597 195.684 140.982 194.146 137.564 191.069C134.146 187.993 132.403 183.766 132.335 178.389V145.234H142.589V178.081C142.589 181.34 143.364 183.721 144.913 185.225C146.485 186.706 148.65 187.446 151.407 187.446C157.172 187.446 160.1 184.416 160.191 178.354V145.234H170.479ZM189.142 177.466V195H178.888V145.234H198.302C202.039 145.234 205.32 145.918 208.146 147.285C210.994 148.652 213.181 150.601 214.708 153.13C216.235 155.636 216.998 158.496 216.998 161.709C216.998 166.585 215.323 170.436 211.974 173.262C208.647 176.064 204.033 177.466 198.131 177.466H189.142ZM189.142 169.16H198.302C201.013 169.16 203.076 168.522 204.488 167.246C205.924 165.97 206.642 164.147 206.642 161.777C206.642 159.339 205.924 157.368 204.488 155.864C203.053 154.36 201.07 153.586 198.541 153.54H189.142V169.16Z" fill="black"/>
<path d="M137.366 80.6052C137.366 80.6052 95.9761 41.4832 60.256 49.988M138.5 70.3995C138.5 70.3995 96.5431 32.4114 55.1531 42.6172" stroke="black" stroke-width="2"/>
<path d="M107.883 28.4426C107.883 28.4426 90.3061 39.7823 86.3372 34.1124C82.3683 28.4426 88.6052 14.8349 88.6052 14.8349C88.6052 14.8349 77.8325 29.5766 71.0286 27.3086C64.2248 25.0407 60.8229 12 60.8229 12C60.8229 12 64.2248 26.7416 56.287 24.4737C48.3492 22.2057 38.7104 13.134 38.7104 13.134C38.7104 13.134 51.1841 29.5766 44.3803 31.8445C37.5765 34.1124 19.9999 30.7105 19.9999 30.7105C19.9999 30.7105 35.3085 40.3493 31.9066 44.8852C28.5047 49.4211 21.7009 49.4211 21.7009 49.4211C21.7009 49.4211 29.6387 49.988 30.2057 53.9569C30.7727 57.9258 21.7009 60.1938 21.7009 60.1938C21.7009 60.1938 31.9066 59.0598 34.1746 62.4617C36.4425 65.8636 36.4425 77.7703 36.4425 77.7703C36.4425 77.7703 43.2463 71.5335 47.7822 70.3995C52.3181 69.2656 54.586 83.2134 54.586 82.3062C54.586 81.399 53.4521 70.3995 57.988 71.5335C62.5238 72.6675 72.7296 91.6048 72.7296 90.244C72.7296 88.8833 61.9569 70.3995 70.4616 69.2656C78.9664 68.1316 86.3372 78.2239 86.3372 77.7703C86.3372 77.3167 73.8636 65.8636 80.6674 60.7608C86.0667 56.7112 96.8221 67.6586 101.032 72.3507C102.062 73.6145 102.78 74.3684 102.78 74.3684C102.78 74.3684 102.128 73.5712 101.032 72.3507C97.9706 68.5917 92.1535 60.3217 94.275 53.9569C97.11 45.4522 114.687 44.8852 114.687 44.8852L94.275 42.0502L107.883 28.4426Z" fill="white"/>
<path d="M107.883 28.4426C107.883 28.4426 90.3061 39.7823 86.3372 34.1124C82.3683 28.4426 88.6052 14.8349 88.6052 14.8349C88.6052 14.8349 77.8325 29.5766 71.0286 27.3086C64.2248 25.0407 60.8229 12 60.8229 12C60.8229 12 64.2248 26.7416 56.287 24.4737C48.3492 22.2057 38.7105 13.134 38.7105 13.134C38.7105 13.134 51.1841 29.5766 44.3803 31.8445C37.5765 34.1124 19.9999 30.7105 19.9999 30.7105C19.9999 30.7105 35.3085 40.3493 31.9066 44.8852C28.5047 49.4211 21.7009 49.4211 21.7009 49.4211C21.7009 49.4211 29.6387 49.988 30.2057 53.9569C30.7727 57.9258 21.7009 60.1938 21.7009 60.1938C21.7009 60.1938 31.9066 59.0598 34.1746 62.4617C36.4425 65.8636 36.4425 77.7703 36.4425 77.7703C36.4425 77.7703 43.2463 71.5335 47.7822 70.3995C52.3181 69.2656 54.586 83.2134 54.586 82.3062C54.586 81.399 53.4521 70.3995 57.988 71.5335C62.5238 72.6675 72.7296 91.6048 72.7296 90.244C72.7296 88.8833 61.9569 70.3995 70.4616 69.2656C78.9664 68.1316 86.3372 78.2239 86.3372 77.7703C86.3372 77.3167 73.8636 65.8636 80.6674 60.7608C87.4712 55.6579 102.78 74.3684 102.78 74.3684C102.78 74.3684 91.4401 62.4617 94.275 53.9569C97.11 45.4522 114.687 44.8852 114.687 44.8852L94.275 42.0502L107.883 28.4426Z" stroke="black" stroke-width="2"/>
<path d="M76.6984 44.8851C77.8324 47.7201 84.6362 48.287 84.6362 48.287C84.6362 48.287 76.6984 48.287 75.5645 52.2559C74.4305 56.2248 75.5645 61.8947 75.5645 61.8947C75.5645 61.8947 68.7606 57.9258 65.9257 60.7607C63.0908 63.5956 64.2247 66.9976 64.2247 66.9976C64.2247 66.9976 60.8228 60.7607 57.4209 59.6267C54.019 58.4928 51.7511 64.1626 51.7511 64.1626C51.7511 64.1626 50.6171 59.0598 48.9161 57.9258C47.2152 56.7918 41.5453 59.6267 41.5453 59.6267C41.5453 59.6267 45.5142 56.2248 44.9472 53.3899C44.3803 50.555 37.5764 51.122 37.5764 51.122C37.5764 51.122 41.5453 49.421 42.6793 47.1531C43.8133 44.8851 38.7104 40.9162 38.7104 40.9162C38.7104 40.9162 44.9472 42.6172 48.9161 40.9162C52.885 39.2153 50.6171 33.5454 50.6171 33.5454C50.6171 33.5454 54.586 36.9473 57.4209 36.9473C60.2558 36.9473 58.5549 31.2775 58.5549 31.2775C58.5549 31.2775 63.0908 35.8134 65.9257 36.9473C68.7606 38.0813 68.7606 31.2775 68.7606 31.2775C68.7606 31.2775 69.3276 38.6483 72.1625 39.7823C74.9975 40.9162 80.6673 38.0813 80.6673 38.0813C80.6673 38.0813 75.5645 42.0502 76.6984 44.8851Z" fill="white" stroke="black" stroke-width="2"/>
<path d="M63.9307 145.242C63.9307 145.242 25.1029 61.8948 60.823 53.39L56.5814 46.0192C9.22734 54.5239 57.9881 148.077 57.9881 148.077L63.9307 145.242Z" fill="white"/>
<path d="M60.823 53.39C25.1029 61.8948 63.9307 145.242 63.9307 145.242M56.5814 46.0192C9.22734 54.524 57.9881 148.077 57.9881 148.077" stroke="black" stroke-width="2"/>
<path d="M89.4998 79C80.6051 76.6047 69.2196 71.2414 67.9476 66.9837C66.6755 62.7259 72.9782 61.157 73.055 57C73.1318 52.8431 71.5093 49.9909 73.055 46.8324C74.6006 43.6739 78.7413 43.2642 79.4998 40C80.2582 36.7359 79.2376 34.1983 81.0041 30.5886C82.7706 26.9789 85.3483 26.2828 87.8204 26.374C90.2925 26.4652 98.9904 32.1198 102.125 30.8574C105.259 29.5949 107.952 29.235 112.345 30.5454C116.737 31.8558 119.91 35.0864 121.955 37.7649C123.999 40.4434 123.601 46.4005 123.62 48.647C123.639 50.8934 127.802 51.9535 127.5 56C127.197 60.0466 121.577 75.304 119 76C116.422 76.6961 113.732 74.5682 112.162 74.9186C110.592 75.269 108.917 76.4065 106.224 76.7665C103.531 77.1265 100.819 75.24 99.0192 74.9184C97.2191 74.5968 98.3946 81.3954 89.4998 79Z" fill="white"/>
<path d="M99.0192 74.9184C97.2191 74.5968 98.3946 81.3954 89.4998 79C80.6051 76.6047 69.2196 71.2414 67.9476 66.9837C66.6755 62.7259 72.9782 61.157 73.055 57C73.1318 52.8431 71.5093 49.9909 73.055 46.8324C74.6006 43.6739 78.7413 43.2642 79.4998 40C80.2582 36.7359 79.2376 34.1983 81.0041 30.5886C82.7706 26.9789 85.3483 26.2828 87.8204 26.374C90.2925 26.4652 98.9904 32.1198 102.125 30.8574M99.0192 74.9184C100.819 75.24 103.531 77.1265 106.224 76.7665C108.917 76.4065 110.592 75.269 112.162 74.9186M99.0192 74.9184C99.0192 74.9184 101.338 70.1808 98.4815 64.5885M112.162 74.9186C113.732 74.5682 116.422 76.6961 119 76C121.577 75.304 127.197 60.0466 127.5 56C127.802 51.9535 123.639 50.8934 123.62 48.647M112.162 74.9186C115.973 73.9873 116.252 69.5451 117.274 68.4719M123.62 48.647C123.601 46.4005 123.999 40.4434 121.955 37.7649C119.91 35.0864 116.737 31.8558 112.345 30.5454C107.952 29.235 105.259 29.5949 102.125 30.8574M123.62 48.647C123.62 48.647 120.932 62.7117 114.298 61.982C107.664 61.2524 107.079 58.4491 107.079 58.4491M102.125 30.8574C102.125 30.8574 110.021 34.7215 111.61 36.6178C113.199 38.5141 114.677 40.6356 113.573 42.8917C112.469 45.1477 111.937 48.5221 105.202 49.1415M98.4815 64.5885C94.771 64.1708 83.9998 59 83.9998 59M98.4815 64.5885C105.226 65.0926 107.079 58.4491 107.079 58.4491M107.079 58.4491C108.826 52.5929 105.202 49.1415 105.202 49.1415M105.202 49.1415L89.9998 42.5" stroke="black" stroke-width="2"/>
</svg>
