<svg width="300" height="300" viewBox="0 0 300 300" fill="none" xmlns="http://www.w3.org/2000/svg">
<path d="M88.2842 245.159H75.501L75.4326 238.118H86.165C88.0563 238.118 89.6058 237.879 90.8135 237.4C92.0212 236.899 92.9212 236.181 93.5137 235.247C94.1289 234.29 94.4365 233.128 94.4365 231.761C94.4365 230.211 94.1403 228.958 93.5479 228.001C92.9782 227.044 92.0781 226.349 90.8477 225.916C89.64 225.483 88.0791 225.267 86.165 225.267H79.0557V267H68.8018V217.234H86.165C89.0589 217.234 91.6452 217.508 93.9238 218.055C96.2253 218.602 98.1735 219.433 99.7686 220.55C101.364 221.666 102.583 223.079 103.426 224.788C104.269 226.474 104.69 228.479 104.69 230.804C104.69 232.854 104.223 234.746 103.289 236.478C102.378 238.209 100.931 239.622 98.9482 240.716C96.9886 241.81 94.4251 242.413 91.2578 242.527L88.2842 245.159ZM87.8398 267H72.6982L76.6973 259.002H87.8398C89.64 259.002 91.1097 258.717 92.249 258.147C93.3883 257.555 94.2314 256.757 94.7783 255.755C95.3252 254.752 95.5986 253.602 95.5986 252.303C95.5986 250.844 95.348 249.58 94.8467 248.509C94.3682 247.438 93.5934 246.618 92.5225 246.048C91.4515 245.455 90.0387 245.159 88.2842 245.159H78.4062L78.4746 238.118H90.7793L93.1377 240.887C96.1683 240.841 98.6064 241.377 100.452 242.493C102.321 243.587 103.676 245.011 104.52 246.766C105.385 248.52 105.818 250.4 105.818 252.405C105.818 255.595 105.123 258.284 103.733 260.472C102.343 262.636 100.304 264.266 97.6152 265.359C94.9492 266.453 91.6908 267 87.8398 267ZM146.902 259.002V267H120.413V259.002H146.902ZM123.763 217.234V267H113.509V217.234H123.763ZM143.45 237.503V245.296H120.413V237.503H143.45ZM146.868 217.234V225.267H120.413V217.234H146.868ZM173.118 225.745L159.583 267H148.68L167.171 217.234H174.109L173.118 225.745ZM184.363 267L170.794 225.745L169.7 217.234H176.707L195.301 267H184.363ZM183.748 248.475V256.507H157.464V248.475H183.748ZM217.928 217.234V267H207.708V217.234H217.928ZM233.24 217.234V225.267H192.635V217.234H233.24Z" fill="black"/>
<path d="M180.294 152.234H190.514V185.115C190.514 188.943 189.693 192.168 188.053 194.788C186.435 197.409 184.19 199.38 181.319 200.701C178.471 202.023 175.19 202.684 171.476 202.684C167.761 202.684 164.457 202.023 161.563 200.701C158.692 199.38 156.437 197.409 154.796 194.788C153.178 192.168 152.369 188.943 152.369 185.115V152.234H162.623V185.115C162.623 187.348 162.976 189.171 163.683 190.584C164.389 191.997 165.403 193.034 166.725 193.694C168.069 194.355 169.653 194.686 171.476 194.686C173.344 194.686 174.928 194.355 176.227 193.694C177.548 193.034 178.551 191.997 179.234 190.584C179.941 189.171 180.294 187.348 180.294 185.115V152.234ZM218.336 184.261H205.655V176.263H218.336C220.296 176.263 221.891 175.944 223.121 175.306C224.352 174.645 225.252 173.733 225.821 172.571C226.391 171.409 226.676 170.099 226.676 168.641C226.676 167.16 226.391 165.781 225.821 164.505C225.252 163.229 224.352 162.203 223.121 161.429C221.891 160.654 220.296 160.267 218.336 160.267H209.21V202H198.956V152.234H218.336C222.232 152.234 225.571 152.941 228.351 154.354C231.153 155.743 233.295 157.669 234.776 160.13C236.257 162.591 236.998 165.405 236.998 168.572C236.998 171.785 236.257 174.565 234.776 176.912C233.295 179.259 231.153 181.071 228.351 182.347C225.571 183.623 222.232 184.261 218.336 184.261Z" fill="black"/>
<path d="M171.786 77.4827C171.911 90.4055 170.577 103.301 167.809 115.925H217.519C214.748 103.302 213.414 90.4056 213.542 77.4827L221.893 71.8489C222.074 71.737 222.224 71.581 222.328 71.3955C222.432 71.2101 222.488 71.0012 222.49 70.7885V47.3256C222.49 46.974 222.35 46.6369 222.102 46.3883C221.853 46.1397 221.516 46 221.164 46H211.885C211.534 46 211.196 46.1397 210.948 46.3883C210.699 46.6369 210.56 46.974 210.56 47.3256V57.864H202.672V47.3256C202.672 46.974 202.533 46.6369 202.284 46.3883C202.035 46.1397 201.698 46 201.347 46H183.65C183.299 46 182.961 46.1397 182.713 46.3883C182.464 46.6369 182.325 46.974 182.325 47.3256V57.864H174.702V47.3256C174.702 46.974 174.563 46.6369 174.314 46.3883C174.066 46.1397 173.728 46 173.377 46H164.098C163.746 46 163.409 46.1397 163.16 46.3883C162.912 46.6369 162.772 46.974 162.772 47.3256V70.7885C162.797 70.9945 162.87 71.1918 162.985 71.3645C163.1 71.5371 163.254 71.6804 163.435 71.7827L171.786 77.4827ZM192.532 84.1106C193.885 84.1106 195.183 84.6483 196.14 85.6054C197.097 86.5625 197.635 87.8606 197.635 89.2141V99.3548H187.428V89.2804C187.419 88.6077 187.545 87.9401 187.798 87.3169C188.052 86.6937 188.427 86.1275 188.903 85.6518C189.379 85.1761 189.945 84.8005 190.568 84.5472C191.191 84.2939 191.859 84.168 192.532 84.1769V84.1106Z" fill="black"/>
<path d="M228.72 129.313L224.147 125.734V120.498C224.156 120.327 224.13 120.156 224.071 119.996C224.011 119.835 223.92 119.688 223.802 119.564C223.684 119.44 223.542 119.341 223.385 119.274C223.228 119.207 223.059 119.172 222.887 119.172H164.429C164.078 119.172 163.74 119.312 163.492 119.561C163.243 119.809 163.104 120.146 163.104 120.498V125.734L158.53 129.247C158.369 129.374 158.238 129.534 158.147 129.718C158.055 129.901 158.005 130.102 158 130.307V142.039C158.017 142.379 158.164 142.699 158.411 142.933C158.658 143.168 158.985 143.298 159.326 143.298H227.925C228.096 143.307 228.266 143.281 228.427 143.222C228.587 143.163 228.734 143.071 228.858 142.953C228.982 142.836 229.081 142.694 229.148 142.536C229.216 142.379 229.25 142.21 229.25 142.039V130.374C229.262 130.166 229.219 129.959 229.126 129.773C229.033 129.587 228.893 129.428 228.72 129.313Z" fill="black"/>
<path d="M88.3345 100.862H119.233L129.533 72.5523C129.732 72.011 129.797 71.4299 129.723 70.858C129.65 70.2862 129.439 69.7405 129.11 69.2671C128.781 68.7937 128.343 68.4066 127.833 68.1383C127.322 67.8701 126.755 67.7287 126.178 67.7262H110.935V58.7214H117.409C117.877 58.7214 118.326 58.5353 118.657 58.2042C118.989 57.8731 119.175 57.424 119.175 56.9557V50.3051C119.175 49.8312 118.991 49.3759 118.661 49.0353C118.332 48.6948 117.883 48.4959 117.409 48.4806H108.934V40.0055C108.96 39.7412 108.928 39.4744 108.841 39.2237C108.754 38.973 108.612 38.7443 108.427 38.5538C108.243 38.3632 108.018 38.2153 107.77 38.1205C107.522 38.0256 107.256 37.986 106.992 38.0044H100.459C99.9904 38.0044 99.5413 38.1904 99.2101 38.5216C98.879 38.8527 98.693 39.3018 98.693 39.7701V48.2452H90.2179C89.734 48.2452 89.2699 48.4374 88.9278 48.7796C88.5856 49.1217 88.3934 49.5858 88.3934 50.0697V56.7203C88.3932 56.9572 88.4408 57.1917 88.5332 57.4099C88.6256 57.628 88.7609 57.8253 88.9312 57.9901C89.1014 58.1548 89.3031 58.2836 89.5241 58.3688C89.7452 58.454 89.9811 58.4938 90.2179 58.4859H96.6331V67.4908H81.3896C80.8131 67.4933 80.2457 67.6347 79.7353 67.9029C79.225 68.1711 78.7867 68.5583 78.4577 69.0317C78.1286 69.5051 77.9184 70.0508 77.8448 70.6226C77.7712 71.1944 77.8364 71.7756 78.0349 72.3169L88.3345 100.862Z" fill="black"/>
<path d="M138.273 189.291L131.681 185.054V176.696C131.681 176.464 131.635 176.235 131.547 176.021C131.458 175.806 131.328 175.612 131.164 175.448C131 175.284 130.805 175.154 130.591 175.065C130.377 174.976 130.147 174.931 129.915 174.931H77.2402C77.0035 174.923 76.7675 174.963 76.5465 175.048C76.3254 175.133 76.1237 175.262 75.9535 175.426C75.7833 175.591 75.6479 175.789 75.5555 176.007C75.4631 176.225 75.4156 176.459 75.4157 176.696V185.054L68.824 189.291C68.5772 189.465 68.3743 189.693 68.2313 189.959C68.0883 190.225 68.0091 190.52 68 190.821V203.24C68.0153 203.713 68.2142 204.163 68.5548 204.492C68.8953 204.822 69.3506 205.006 69.8245 205.005H137.508C137.971 204.991 138.412 204.8 138.74 204.472C139.068 204.144 139.259 203.703 139.273 203.24V190.821C139.262 190.499 139.163 190.186 138.987 189.917C138.81 189.647 138.563 189.431 138.273 189.291V189.291Z" fill="black"/>
<path d="M128.652 116.644C129.226 116.644 129.776 116.415 130.182 116.007C130.587 115.599 130.815 115.046 130.815 114.47V107.105C130.816 106.823 130.759 106.544 130.65 106.284C130.54 106.024 130.38 105.789 130.178 105.592C129.976 105.396 129.737 105.242 129.475 105.141C129.212 105.039 128.933 104.992 128.652 105.001H77.9105C77.6329 104.991 77.3563 105.039 77.0979 105.141C76.8394 105.244 76.6047 105.398 76.4083 105.596C76.2118 105.793 76.058 106.029 75.9562 106.289C75.8544 106.548 75.8069 106.826 75.8167 107.105V114.47C75.8073 114.752 75.8545 115.033 75.9556 115.296C76.0566 115.56 76.2093 115.8 76.4047 116.003C76.6001 116.206 76.8341 116.367 77.0928 116.477C77.3515 116.587 77.6296 116.644 77.9105 116.644H87.0537C87.9508 134.977 85.8765 153.335 80.9117 171H125.72C120.69 153.349 118.614 134.979 119.578 116.644H128.652Z" fill="black"/>
</svg>
