<svg width="300" height="300" viewBox="0 0 300 300" fill="none" xmlns="http://www.w3.org/2000/svg">
<path d="M88.2842 245.159H75.501L75.4326 238.118H86.165C88.0563 238.118 89.6058 237.879 90.8135 237.4C92.0212 236.899 92.9212 236.181 93.5137 235.247C94.1289 234.29 94.4365 233.128 94.4365 231.761C94.4365 230.211 94.1403 228.958 93.5479 228.001C92.9782 227.044 92.0781 226.349 90.8477 225.916C89.64 225.483 88.0791 225.267 86.165 225.267H79.0557V267H68.8018V217.234H86.165C89.0589 217.234 91.6452 217.508 93.9238 218.055C96.2253 218.602 98.1735 219.433 99.7686 220.55C101.364 221.666 102.583 223.079 103.426 224.788C104.269 226.474 104.69 228.479 104.69 230.804C104.69 232.854 104.223 234.746 103.289 236.478C102.378 238.209 100.931 239.622 98.9482 240.716C96.9886 241.81 94.4251 242.413 91.2578 242.527L88.2842 245.159ZM87.8398 267H72.6982L76.6973 259.002H87.8398C89.64 259.002 91.1097 258.717 92.249 258.147C93.3883 257.555 94.2314 256.757 94.7783 255.755C95.3252 254.752 95.5986 253.602 95.5986 252.303C95.5986 250.844 95.348 249.58 94.8467 248.509C94.3682 247.438 93.5934 246.618 92.5225 246.048C91.4515 245.455 90.0387 245.159 88.2842 245.159H78.4062L78.4746 238.118H90.7793L93.1377 240.887C96.1683 240.841 98.6064 241.377 100.452 242.493C102.321 243.587 103.676 245.011 104.52 246.766C105.385 248.52 105.818 250.4 105.818 252.405C105.818 255.595 105.123 258.284 103.733 260.472C102.343 262.636 100.304 264.266 97.6152 265.359C94.9492 266.453 91.6908 267 87.8398 267ZM146.902 259.002V267H120.413V259.002H146.902ZM123.763 217.234V267H113.509V217.234H123.763ZM143.45 237.503V245.296H120.413V237.503H143.45ZM146.868 217.234V225.267H120.413V217.234H146.868ZM173.118 225.745L159.583 267H148.68L167.171 217.234H174.109L173.118 225.745ZM184.363 267L170.794 225.745L169.7 217.234H176.707L195.301 267H184.363ZM183.748 248.475V256.507H157.464V248.475H183.748ZM217.928 217.234V267H207.708V217.234H217.928ZM233.24 217.234V225.267H192.635V217.234H233.24Z" fill="black"/>
<path d="M54.605 81.5782L82.4816 68.2503L79.5629 38.2673C79.5085 37.6934 79.3166 37.141 79.0036 36.6568C78.6906 36.1727 78.2655 35.771 77.7644 35.4859C77.2634 35.2007 76.701 35.0404 76.1249 35.0186C75.5487 34.9967 74.9758 35.1139 74.4546 35.3603L60.7021 41.9354L56.818 33.8114L62.6588 31.0189C63.0813 30.8169 63.4062 30.4553 63.5621 30.0138C63.718 29.5722 63.6921 29.0868 63.4901 28.6643L60.6215 22.6642C60.4173 22.2366 60.0548 21.9052 59.6106 21.7401C59.1664 21.575 58.6754 21.5893 58.2415 21.7798L50.5954 25.4354L46.9397 17.7893C46.8495 17.5395 46.7058 17.3125 46.5188 17.124C46.3318 16.9355 46.1058 16.7901 45.8568 16.6979C45.6077 16.6058 45.3416 16.5691 45.0769 16.5905C44.8122 16.6119 44.5554 16.6908 44.3243 16.8217L38.4304 19.6396C38.0079 19.8416 37.683 20.2031 37.5271 20.6447C37.3712 21.0862 37.3971 21.5717 37.599 21.9941L41.2547 29.6403L33.6085 33.296C33.172 33.5047 32.8362 33.8783 32.6751 34.3346C32.514 34.7908 32.5408 35.2924 32.7495 35.729L35.6182 41.7291C35.7202 41.9429 35.8643 42.134 36.0417 42.2909C36.2192 42.4479 36.4264 42.5675 36.6511 42.6427C36.8757 42.7179 37.1132 42.7471 37.3494 42.7287C37.5856 42.7102 37.8156 42.6443 38.0258 42.5351L43.8135 39.7679L47.6977 47.892L33.9452 54.4671C33.4262 54.7181 32.9752 55.0904 32.6305 55.5525C32.2858 56.0146 32.0574 56.553 31.9647 57.122C31.872 57.691 31.9177 58.274 32.098 58.8217C32.2783 59.3693 32.5878 59.8655 33.0003 60.2682L54.605 81.5782Z" fill="black"/>
<path d="M138.458 191.291L131.866 187.054V178.696C131.866 178.464 131.82 178.235 131.732 178.021C131.643 177.806 131.513 177.612 131.349 177.448C131.185 177.284 130.99 177.154 130.776 177.065C130.562 176.976 130.332 176.931 130.101 176.931H77.4253C77.1885 176.923 76.9526 176.963 76.7315 177.048C76.5105 177.133 76.3088 177.262 76.1386 177.426C75.9683 177.591 75.833 177.789 75.7406 178.007C75.6482 178.225 75.6007 178.459 75.6008 178.696V187.054L69.009 191.291C68.7623 191.465 68.5594 191.693 68.4163 191.959C68.2733 192.225 68.1941 192.52 68.1851 192.821V205.24C68.2003 205.713 68.3993 206.163 68.7398 206.492C69.0803 206.822 69.5357 207.006 70.0096 207.005H137.693C138.156 206.991 138.597 206.8 138.925 206.472C139.253 206.144 139.444 205.703 139.458 205.24V192.821C139.447 192.499 139.348 192.186 139.172 191.917C138.995 191.647 138.748 191.431 138.458 191.291V191.291Z" fill="black"/>
<path d="M111.444 109.763C111.918 109.664 112.333 109.38 112.597 108.975C112.861 108.57 112.954 108.076 112.854 107.602L111.582 101.555C111.534 101.323 111.439 101.103 111.304 100.909C111.168 100.714 110.995 100.549 110.795 100.423C110.594 100.297 110.371 100.212 110.137 100.174C109.903 100.137 109.664 100.146 109.434 100.203L67.5621 109.009C67.3313 109.049 67.1113 109.136 66.9157 109.265C66.7201 109.394 66.5531 109.562 66.4251 109.758C66.2971 109.954 66.2109 110.174 66.1717 110.405C66.1326 110.636 66.1414 110.873 66.1977 111.1L67.4695 117.148C67.5106 117.381 67.5981 117.604 67.727 117.802C67.8558 118.001 68.0234 118.172 68.2196 118.305C68.4159 118.437 68.6368 118.529 68.8693 118.575C69.1018 118.62 69.3411 118.619 69.5729 118.57L77.1178 116.983C81.0245 131.882 82.4833 147.317 81.4373 162.685L118.413 154.908C111.213 141.286 106.328 126.562 103.957 111.338L111.444 109.763Z" fill="black"/>
<path d="M155.366 87.6053C155.366 87.6053 113.976 48.4833 78.256 56.988M156.5 77.3995C156.5 77.3995 114.543 39.4114 73.1531 49.6172" stroke="black" stroke-width="2"/>
<path d="M122.5 37.5C122.5 37.5 108.306 46.7823 104.337 41.1124C100.368 35.4426 106.605 21.8349 106.605 21.8349C106.605 21.8349 95.8325 36.5766 89.0286 34.3086C82.2248 32.0407 78.8229 19 78.8229 19C78.8229 19 82.2248 33.7416 74.287 31.4737C66.3492 29.2057 56.7104 20.134 56.7104 20.134C56.7104 20.134 69.1841 36.5766 62.3803 38.8445C55.5765 41.1124 37.9999 37.7105 37.9999 37.7105C37.9999 37.7105 53.3085 47.3493 49.9066 51.8852C46.5047 56.4211 39.7009 56.4211 39.7009 56.4211C39.7009 56.4211 47.6387 56.988 48.2057 60.9569C48.7727 64.9258 41 67 41 67C41 67 49.9066 66.0598 52.1746 69.4617C54.4425 72.8636 54.4425 84.7703 54.4425 84.7703C54.4425 84.7703 61.2463 78.5335 65.7822 77.3995C70.3181 76.2656 72.586 90.2134 72.586 89.3062C72.586 88.399 71.4521 77.3995 75.988 78.5335C80.5238 79.6675 90.7296 98.6048 90.7296 97.244C90.7296 95.8833 79.9569 77.3995 88.4616 76.2656C96.9664 75.1316 104.337 85.2239 104.337 84.7703C104.337 84.3167 91.8636 72.8636 98.6674 67.7608C104.067 63.7113 114.822 74.6586 119.032 79.3507C120.062 80.6145 120.78 81.3684 120.78 81.3684C120.78 81.3684 120.128 80.5712 119.032 79.3507C115.971 75.5917 110.153 67.3217 112.275 60.9569C115.11 52.4522 132.687 51.8852 132.687 51.8852L112.275 49.0502L122.5 37.5Z" fill="white"/>
<path d="M122.5 37.5C122.5 37.5 108.306 46.7823 104.337 41.1124C100.368 35.4426 106.605 21.8349 106.605 21.8349C106.605 21.8349 95.8325 36.5766 89.0286 34.3086C82.2248 32.0407 78.8229 19 78.8229 19C78.8229 19 82.2248 33.7416 74.287 31.4737C66.3492 29.2057 56.7104 20.134 56.7104 20.134C56.7104 20.134 69.1841 36.5766 62.3803 38.8445C55.5765 41.1124 37.9999 37.7105 37.9999 37.7105C37.9999 37.7105 53.3085 47.3493 49.9066 51.8852C46.5047 56.4211 39.7009 56.4211 39.7009 56.4211C39.7009 56.4211 47.6387 56.988 48.2057 60.9569C48.7727 64.9258 41 67 41 67C41 67 49.9066 66.0598 52.1746 69.4617C54.4425 72.8636 54.4425 84.7703 54.4425 84.7703C54.4425 84.7703 61.2463 78.5335 65.7822 77.3995C70.3181 76.2656 72.586 90.2134 72.586 89.3062C72.586 88.399 71.4521 77.3995 75.988 78.5335C80.5238 79.6675 90.7296 98.6048 90.7296 97.244C90.7296 95.8833 79.9569 77.3995 88.4616 76.2656C96.9664 75.1316 104.337 85.2239 104.337 84.7703C104.337 84.3168 91.8636 72.8636 98.6674 67.7608C105.471 62.6579 120.78 81.3684 120.78 81.3684C120.78 81.3684 109.44 69.4617 112.275 60.9569C115.11 52.4522 132.687 51.8852 132.687 51.8852L112.275 49.0502L122.5 37.5Z" stroke="black" stroke-width="2"/>
<path d="M94.6984 51.8852C95.8324 54.7201 102.636 55.2871 102.636 55.2871C102.636 55.2871 94.6984 55.2871 93.5645 59.256C92.4305 63.2249 93.5645 68.8948 93.5645 68.8948C93.5645 68.8948 86.7606 64.9259 83.9257 67.7608C81.0908 70.5957 82.2247 73.9976 82.2247 73.9976C82.2247 73.9976 78.8228 67.7608 75.4209 66.6268C72.019 65.4928 69.7511 71.1627 69.7511 71.1627C69.7511 71.1627 68.6171 66.0598 66.9161 64.9259C65.2152 63.7919 59.5453 66.6268 59.5453 66.6268C59.5453 66.6268 63.5142 63.2249 62.9472 60.39C62.3803 57.555 55.5764 58.122 55.5764 58.122C55.5764 58.122 59.5453 56.4211 60.6793 54.1531C61.8133 51.8852 56.7104 47.9163 56.7104 47.9163C56.7104 47.9163 62.9472 49.6172 66.9161 47.9163C70.885 46.2153 68.6171 40.5455 68.6171 40.5455C68.6171 40.5455 72.586 43.9474 75.4209 43.9474C78.2558 43.9474 76.5549 38.2775 76.5549 38.2775C76.5549 38.2775 81.0908 42.8134 83.9257 43.9474C86.7606 45.0814 86.7606 38.2775 86.7606 38.2775C86.7606 38.2775 87.3276 45.6483 90.1625 46.7823C92.9975 47.9163 98.6673 45.0814 98.6673 45.0814C98.6673 45.0814 93.5645 49.0503 94.6984 51.8852Z" fill="white" stroke="black" stroke-width="2"/>
<path d="M81.9307 152.242C81.9307 152.242 43.1029 68.8948 78.823 60.39L74.5814 53.0191C27.2273 61.5239 75.9881 155.077 75.9881 155.077L81.9307 152.242Z" fill="white"/>
<path d="M78.823 60.39C43.1029 68.8948 81.9307 152.242 81.9307 152.242M74.5814 53.0191C27.2273 61.5239 75.9881 155.077 75.9881 155.077" stroke="black" stroke-width="2"/>
<path d="M107.5 86C98.6051 83.6047 87.2196 78.2414 85.9476 73.9837C84.6755 69.7259 90.9782 68.157 91.055 64C91.1318 59.8431 89.5093 56.9909 91.055 53.8324C92.6006 50.6739 96.7413 50.2642 97.4998 47C98.2582 43.7359 97.2376 41.1983 99.0041 37.5886C100.771 33.9789 103.348 33.2828 105.82 33.374C108.292 33.4652 116.99 39.1198 120.125 37.8574C123.259 36.5949 125.952 36.235 130.345 37.5454C134.737 38.8558 137.91 42.0864 139.955 44.7649C141.999 47.4434 141.601 53.4005 141.62 55.647C141.639 57.8934 145.802 58.9535 145.5 63C145.197 67.0466 139.577 82.304 137 83C134.422 83.6961 131.732 81.5682 130.162 81.9186C128.592 82.269 126.917 83.4065 124.224 83.7665C121.531 84.1265 118.819 82.24 117.019 81.9184C115.219 81.5968 116.395 88.3954 107.5 86Z" fill="white"/>
<path d="M117.019 81.9184C115.219 81.5968 116.395 88.3954 107.5 86C98.6051 83.6047 87.2196 78.2414 85.9476 73.9837C84.6755 69.7259 90.9782 68.157 91.055 64C91.1318 59.8431 89.5093 56.9909 91.055 53.8324C92.6006 50.6739 96.7413 50.2642 97.4998 47C98.2582 43.7359 97.2376 41.1983 99.0041 37.5886C100.771 33.9789 103.348 33.2828 105.82 33.374C108.292 33.4652 116.99 39.1198 120.125 37.8574M117.019 81.9184C118.819 82.24 121.531 84.1265 124.224 83.7665C126.917 83.4065 128.592 82.269 130.162 81.9186M117.019 81.9184C117.019 81.9184 119.338 77.1808 116.482 71.5885M130.162 81.9186C131.732 81.5682 134.422 83.6961 137 83C139.577 82.304 145.197 67.0466 145.5 63C145.802 58.9535 141.639 57.8934 141.62 55.647M130.162 81.9186C133.973 80.9873 134.252 76.5451 135.274 75.4719M141.62 55.647C141.601 53.4005 141.999 47.4434 139.955 44.7649C137.91 42.0864 134.737 38.8558 130.345 37.5454C125.952 36.235 123.259 36.5949 120.125 37.8574M141.62 55.647C141.62 55.647 138.932 69.7117 132.298 68.982C125.664 68.2524 125.079 65.4491 125.079 65.4491M120.125 37.8574C120.125 37.8574 128.021 41.7215 129.61 43.6178C131.199 45.5141 132.677 47.6356 131.573 49.8917C130.469 52.1477 129.937 55.5221 123.202 56.1415M116.482 71.5885C112.771 71.1708 102 66 102 66M116.482 71.5885C123.226 72.0926 125.079 65.4491 125.079 65.4491M125.079 65.4491C126.826 59.5929 123.202 56.1415 123.202 56.1415M123.202 56.1415L108 49.5" stroke="black" stroke-width="2"/>
<path d="M190.479 152.234V185.013C190.479 190.459 188.771 194.765 185.353 197.933C181.957 201.1 177.309 202.684 171.407 202.684C165.597 202.684 160.982 201.146 157.564 198.069C154.146 194.993 152.403 190.766 152.335 185.389V152.234H162.589V185.081C162.589 188.34 163.364 190.721 164.913 192.225C166.485 193.706 168.65 194.446 171.407 194.446C177.172 194.446 180.1 191.416 180.191 185.354V152.234H190.479ZM209.142 184.466V202H198.888V152.234H218.302C222.039 152.234 225.32 152.918 228.146 154.285C230.994 155.652 233.181 157.601 234.708 160.13C236.235 162.636 236.998 165.496 236.998 168.709C236.998 173.585 235.323 177.436 231.974 180.262C228.647 183.064 224.033 184.466 218.131 184.466H209.142ZM209.142 176.16H218.302C221.013 176.16 223.076 175.522 224.488 174.246C225.924 172.97 226.642 171.147 226.642 168.777C226.642 166.339 225.924 164.368 224.488 162.864C223.053 161.36 221.07 160.586 218.541 160.54H209.142V176.16Z" fill="black"/>
<path d="M171.786 77.4827C171.911 90.4055 170.577 103.301 167.809 115.925H217.519C214.748 103.302 213.414 90.4056 213.542 77.4827L221.893 71.8489C222.074 71.737 222.224 71.581 222.328 71.3955C222.432 71.2101 222.488 71.0012 222.49 70.7885V47.3256C222.49 46.974 222.35 46.6369 222.101 46.3883C221.853 46.1397 221.516 46 221.164 46H211.885C211.533 46 211.196 46.1397 210.948 46.3883C210.699 46.6369 210.559 46.974 210.559 47.3256V57.864H202.672V47.3256C202.672 46.974 202.532 46.6369 202.284 46.3883C202.035 46.1397 201.698 46 201.347 46H183.65C183.298 46 182.961 46.1397 182.713 46.3883C182.464 46.6369 182.324 46.974 182.324 47.3256V57.864H174.702V47.3256C174.702 46.974 174.563 46.6369 174.314 46.3883C174.065 46.1397 173.728 46 173.377 46H164.098C163.746 46 163.409 46.1397 163.16 46.3883C162.912 46.6369 162.772 46.974 162.772 47.3256V70.7885C162.797 70.9945 162.87 71.1918 162.985 71.3645C163.1 71.5371 163.254 71.6804 163.435 71.7827L171.786 77.4827ZM192.531 84.1106C193.885 84.1106 195.183 84.6483 196.14 85.6054C197.097 86.5625 197.635 87.8606 197.635 89.2141V99.3548H187.428V89.2804C187.419 88.6077 187.545 87.9401 187.798 87.3169C188.052 86.6937 188.427 86.1275 188.903 85.6518C189.378 85.1761 189.945 84.8005 190.568 84.5472C191.191 84.2939 191.859 84.168 192.531 84.1769V84.1106Z" fill="black"/>
<path d="M228.72 129.313L224.147 125.734V120.498C224.156 120.327 224.13 120.156 224.071 119.996C224.011 119.835 223.92 119.688 223.802 119.564C223.684 119.44 223.542 119.341 223.385 119.274C223.228 119.207 223.059 119.172 222.887 119.172H164.429C164.078 119.172 163.74 119.312 163.492 119.561C163.243 119.809 163.104 120.146 163.104 120.498V125.734L158.53 129.247C158.369 129.374 158.238 129.534 158.147 129.718C158.055 129.901 158.005 130.102 158 130.307V142.039C158.017 142.379 158.164 142.699 158.411 142.933C158.658 143.168 158.985 143.298 159.326 143.298H227.925C228.096 143.307 228.266 143.281 228.427 143.222C228.587 143.163 228.734 143.071 228.858 142.953C228.982 142.836 229.081 142.694 229.148 142.536C229.216 142.379 229.25 142.21 229.25 142.039V130.374C229.262 130.166 229.219 129.959 229.126 129.773C229.033 129.587 228.893 129.428 228.72 129.313Z" fill="black"/>
</svg>
