<?xml version="1.0" encoding="UTF-8"?>
<svg xmlns="http://www.w3.org/2000/svg" xmlns:xlink="http://www.w3.org/1999/xlink" width="261pt" height="355pt" viewBox="0 0 261 355" version="1.1">
<g id="surface1">
<path style="fill-rule:nonzero;fill:rgb(100%,100%,100%);fill-opacity:1;stroke-width:0.500454;stroke-linecap:butt;stroke-linejoin:miter;stroke:rgb(0%,0%,0%);stroke-opacity:1;stroke-miterlimit:4;" d="M 166.933225 235.741838 C 166.933225 239.519191 163.847221 242.613405 160.062357 242.613405 L 7.214985 242.613405 C 3.440141 242.613405 0.354137 239.519191 0.354137 235.741838 L 0.354137 7.316494 C 0.354137 3.536463 3.440141 0.447607 7.214985 0.447607 L 160.062357 0.447607 C 163.847221 0.447607 166.933225 3.536463 166.933225 7.316494 Z M 166.933225 235.741838 " transform="matrix(1.55946,0,0,1.458115,0.248519,0.339526)"/>
<path style="fill-rule:evenodd;fill:rgb(100%,100%,100%);fill-opacity:1;stroke-width:2.851589;stroke-linecap:butt;stroke-linejoin:miter;stroke:rgb(9.019608%,2.352941%,47.843137%);stroke-opacity:1;stroke-miterlimit:10;" d="M 7.645823 1.870142 C 4.434575 1.870142 1.847041 4.385698 1.847041 7.512059 L 1.847041 235.433757 C 1.847041 238.562797 4.434575 241.075674 7.645823 241.075674 L 159.721695 241.075674 C 162.935447 241.075674 165.520476 238.562797 165.520476 235.433757 L 165.520476 7.512059 C 165.520476 4.385698 162.935447 1.870142 159.721695 1.870142 Z M 7.645823 1.870142 " transform="matrix(1.55946,0,0,1.458115,0.248519,0.339526)"/>
<path style="fill-rule:evenodd;fill:rgb(100%,100%,100%);fill-opacity:1;stroke-width:2.677831;stroke-linecap:butt;stroke-linejoin:miter;stroke:rgb(9.019608%,2.352941%,47.843137%);stroke-opacity:1;stroke-miterlimit:10;" d="M 9.28902 7.404901 C 8.479946 7.404901 7.828679 8.037138 7.828679 8.824756 L 7.828679 234.123739 C 7.828679 234.908678 8.479946 235.540915 9.28902 235.540915 L 157.710281 235.540915 C 158.519355 235.540915 159.170622 234.908678 159.170622 234.123739 L 159.170622 8.824756 C 159.170622 8.037138 158.519355 7.404901 157.710281 7.404901 Z M 9.28902 7.404901 " transform="matrix(1.55946,0,0,1.458115,0.248519,0.339526)"/>
<path style="fill-rule:evenodd;fill:rgb(19.215686%,20%,56.470588%);fill-opacity:1;stroke-width:1.642366;stroke-linecap:butt;stroke-linejoin:miter;stroke:rgb(9.019608%,2.352941%,47.843137%);stroke-opacity:1;stroke-miterlimit:10;" d="M 38.65866 37.114715 C 38.2679 37.114715 37.952286 37.417439 37.952286 37.797854 L 37.952286 205.868606 C 37.952286 206.249021 38.2679 206.554424 38.65866 206.554424 L 126.857756 206.554424 C 127.248516 206.554424 127.56413 206.249021 127.56413 205.868606 L 127.56413 37.797854 C 127.56413 37.417439 127.248516 37.114715 126.857756 37.114715 Z M 38.65866 37.114715 " transform="matrix(1.55946,0,0,1.458115,0.248519,0.339526)"/>
<path style="fill-rule:evenodd;fill:rgb(100%,100%,100%);fill-opacity:1;stroke-width:2.065275;stroke-linecap:butt;stroke-linejoin:round;stroke:rgb(9.019608%,2.352941%,47.843137%);stroke-opacity:1;stroke-miterlimit:10;" d="M 52.620824 43.075431 C 47.999333 43.075431 44.279596 46.692045 44.279596 51.187362 L 44.279596 191.761133 C 44.279596 196.25645 47.999333 199.873064 52.620824 199.873064 L 112.527376 199.873064 C 117.148867 199.873064 120.866099 196.25645 120.866099 191.761133 L 120.866099 51.187362 C 120.866099 46.692045 117.148867 43.075431 112.527376 43.075431 Z M 52.620824 43.075431 " transform="matrix(1.55946,0,0,1.458115,0.248519,0.339526)"/>
<path style="fill-rule:evenodd;fill:rgb(19.215686%,20%,56.470588%);fill-opacity:1;stroke-width:1.798483;stroke-linecap:butt;stroke-linejoin:round;stroke:rgb(9.019608%,2.352941%,47.843137%);stroke-opacity:1;stroke-miterlimit:10;" d="M 53.547627 49.537115 C 51.992101 49.537115 50.742169 50.753369 50.742169 52.266989 L 50.742169 190.681506 C 50.742169 192.195126 51.992101 193.408701 53.547627 193.408701 L 111.227346 193.408701 C 112.785378 193.408701 114.037814 192.195126 114.037814 190.681506 L 114.037814 52.266989 C 114.037814 50.753369 112.785378 49.537115 111.227346 49.537115 Z M 53.547627 49.537115 " transform="matrix(1.55946,0,0,1.458115,0.248519,0.339526)"/>
<path style="fill-rule:evenodd;fill:rgb(9.019608%,2.352941%,47.843137%);fill-opacity:1;stroke-width:0.86411;stroke-linecap:butt;stroke-linejoin:miter;stroke:rgb(9.019608%,2.352941%,47.843137%);stroke-opacity:1;stroke-miterlimit:10;" d="M 9.414264 9.031037 L 16.077227 9.031037 L 9.47939 15.436463 Z M 9.414264 9.031037 " transform="matrix(1.55946,0,0,1.458115,0.248519,0.339526)"/>
<path style="fill-rule:evenodd;fill:rgb(9.019608%,2.352941%,47.843137%);fill-opacity:1;stroke-width:0.86411;stroke-linecap:butt;stroke-linejoin:miter;stroke:rgb(9.019608%,2.352941%,47.843137%);stroke-opacity:1;stroke-miterlimit:10;" d="M 157.482338 9.114086 L 150.819375 9.114086 L 157.419716 15.519511 Z M 157.482338 9.114086 " transform="matrix(1.55946,0,0,1.458115,0.248519,0.339526)"/>
<path style="fill-rule:evenodd;fill:rgb(9.019608%,2.352941%,47.843137%);fill-opacity:1;stroke-width:0.86411;stroke-linecap:butt;stroke-linejoin:miter;stroke:rgb(9.019608%,2.352941%,47.843137%);stroke-opacity:1;stroke-miterlimit:10;" d="M 157.602572 234.118381 L 150.939609 234.118381 L 157.53995 227.715634 Z M 157.602572 234.118381 " transform="matrix(1.55946,0,0,1.458115,0.248519,0.339526)"/>
<path style="fill-rule:evenodd;fill:rgb(9.019608%,2.352941%,47.843137%);fill-opacity:1;stroke-width:0.86411;stroke-linecap:butt;stroke-linejoin:miter;stroke:rgb(9.019608%,2.352941%,47.843137%);stroke-opacity:1;stroke-miterlimit:10;" d="M 9.409254 234.086233 L 16.072217 234.086233 L 9.474381 227.683487 Z M 9.409254 234.086233 " transform="matrix(1.55946,0,0,1.458115,0.248519,0.339526)"/>
<path style="fill-rule:evenodd;fill:rgb(19.215686%,20%,56.470588%);fill-opacity:1;stroke-width:1.317531;stroke-linecap:round;stroke-linejoin:round;stroke:rgb(9.019608%,2.352941%,47.843137%);stroke-opacity:1;stroke-miterlimit:10;" d="M 11.964225 130.629639 L 11.964225 136.764488 L 34.392861 125.295803 L 34.392861 119.010931 Z M 11.964225 130.629639 " transform="matrix(1.55946,0,0,1.458115,0.248519,0.339526)"/>
<path style="fill-rule:evenodd;fill:rgb(19.215686%,20%,56.470588%);fill-opacity:1;stroke-width:1.317531;stroke-linecap:round;stroke-linejoin:round;stroke:rgb(9.019608%,2.352941%,47.843137%);stroke-opacity:1;stroke-miterlimit:10;" d="M 12.079449 142.232273 L 12.079449 148.367122 L 34.508085 136.893079 L 34.508085 130.608207 Z M 12.079449 142.232273 " transform="matrix(1.55946,0,0,1.458115,0.248519,0.339526)"/>
<path style="fill-rule:evenodd;fill:rgb(100%,100%,100%);fill-opacity:1;stroke-width:1.317531;stroke-linecap:round;stroke-linejoin:round;stroke:rgb(9.019608%,2.352941%,47.843137%);stroke-opacity:1;stroke-miterlimit:10;" d="M 11.85401 136.796636 L 11.85401 130.661787 L 34.280141 142.133151 L 34.280141 148.418022 Z M 11.85401 136.796636 " transform="matrix(1.55946,0,0,1.458115,0.248519,0.339526)"/>
<path style="fill-rule:evenodd;fill:rgb(19.215686%,20%,56.470588%);fill-opacity:1;stroke-width:1.317531;stroke-linecap:round;stroke-linejoin:round;stroke:rgb(9.019608%,2.352941%,47.843137%);stroke-opacity:1;stroke-miterlimit:10;" d="M 12.132051 118.874304 L 12.132051 125.006474 L 34.558182 113.53511 L 34.558182 107.250238 Z M 12.132051 118.874304 " transform="matrix(1.55946,0,0,1.458115,0.248519,0.339526)"/>
<path style="fill-rule:evenodd;fill:rgb(100%,100%,100%);fill-opacity:1;stroke-width:1.317531;stroke-linecap:round;stroke-linejoin:round;stroke:rgb(9.019608%,2.352941%,47.843137%);stroke-opacity:1;stroke-miterlimit:10;" d="M 12.024342 125.260976 L 12.024342 119.126127 L 34.452978 130.594812 L 34.452978 136.879684 Z M 12.024342 125.260976 " transform="matrix(1.55946,0,0,1.458115,0.248519,0.339526)"/>
<path style="fill-rule:evenodd;fill:rgb(19.215686%,20%,56.470588%);fill-opacity:1;stroke-width:1.317531;stroke-linecap:round;stroke-linejoin:round;stroke:rgb(9.019608%,2.352941%,47.843137%);stroke-opacity:1;stroke-miterlimit:10;" d="M 12.016827 107.27167 L 12.016827 113.406519 L 34.442958 101.937834 L 34.442958 95.652963 Z M 12.016827 107.27167 " transform="matrix(1.55946,0,0,1.458115,0.248519,0.339526)"/>
<path style="fill-rule:evenodd;fill:rgb(100%,100%,100%);fill-opacity:1;stroke-width:1.317531;stroke-linecap:round;stroke-linejoin:round;stroke:rgb(9.019608%,2.352941%,47.843137%);stroke-opacity:1;stroke-miterlimit:10;" d="M 11.904108 113.435988 L 11.904108 107.303818 L 34.332744 118.775182 L 34.332744 125.057374 Z M 11.904108 113.435988 " transform="matrix(1.55946,0,0,1.458115,0.248519,0.339526)"/>
<path style="fill-rule:evenodd;fill:rgb(100%,100%,100%);fill-opacity:1;stroke-width:1.317531;stroke-linecap:round;stroke-linejoin:round;stroke:rgb(9.019608%,2.352941%,47.843137%);stroke-opacity:1;stroke-miterlimit:10;" d="M 12.071934 101.903007 L 12.071934 95.768158 L 34.50057 107.236843 L 34.50057 113.521715 Z M 12.071934 101.903007 " transform="matrix(1.55946,0,0,1.458115,0.248519,0.339526)"/>
<path style="fill-rule:evenodd;fill:rgb(19.215686%,20%,56.470588%);fill-opacity:1;stroke-width:1.317531;stroke-linecap:round;stroke-linejoin:round;stroke:rgb(9.019608%,2.352941%,47.843137%);stroke-opacity:1;stroke-miterlimit:10;" d="M 12.109507 153.936707 L 12.109507 160.068877 L 34.538143 148.600192 L 34.538143 142.315321 Z M 12.109507 153.936707 " transform="matrix(1.55946,0,0,1.458115,0.248519,0.339526)"/>
<path style="fill-rule:evenodd;fill:rgb(100%,100%,100%);fill-opacity:1;stroke-width:1.317531;stroke-linecap:round;stroke-linejoin:round;stroke:rgb(9.019608%,2.352941%,47.843137%);stroke-opacity:1;stroke-miterlimit:10;" d="M 11.884069 148.50107 L 11.884069 142.366221 L 34.312705 153.840264 L 34.312705 160.122457 Z M 11.884069 148.50107 " transform="matrix(1.55946,0,0,1.458115,0.248519,0.339526)"/>
<path style="fill-rule:evenodd;fill:rgb(19.215686%,20%,56.470588%);fill-opacity:1;stroke-width:1.317531;stroke-linecap:round;stroke-linejoin:round;stroke:rgb(9.019608%,2.352941%,47.843137%);stroke-opacity:1;stroke-miterlimit:10;" d="M 11.881564 72.185156 L 11.881564 78.317326 L 34.3102 66.848641 L 34.3102 60.563769 Z M 11.881564 72.185156 " transform="matrix(1.55946,0,0,1.458115,0.248519,0.339526)"/>
<path style="fill-rule:evenodd;fill:rgb(19.215686%,20%,56.470588%);fill-opacity:1;stroke-width:1.317531;stroke-linecap:round;stroke-linejoin:round;stroke:rgb(9.019608%,2.352941%,47.843137%);stroke-opacity:1;stroke-miterlimit:10;" d="M 11.996788 83.782432 L 11.996788 89.917281 L 34.425424 78.445917 L 34.425424 72.163724 Z M 11.996788 83.782432 " transform="matrix(1.55946,0,0,1.458115,0.248519,0.339526)"/>
<path style="fill-rule:evenodd;fill:rgb(100%,100%,100%);fill-opacity:1;stroke-width:1.317531;stroke-linecap:round;stroke-linejoin:round;stroke:rgb(9.019608%,2.352941%,47.843137%);stroke-opacity:1;stroke-miterlimit:10;" d="M 11.771349 78.346795 L 11.771349 72.214624 L 34.199986 83.68331 L 34.199986 89.97086 Z M 11.771349 78.346795 " transform="matrix(1.55946,0,0,1.458115,0.248519,0.339526)"/>
<path style="fill-rule:evenodd;fill:rgb(19.215686%,20%,56.470588%);fill-opacity:1;stroke-width:1.317531;stroke-linecap:round;stroke-linejoin:round;stroke:rgb(9.019608%,2.352941%,47.843137%);stroke-opacity:1;stroke-miterlimit:10;" d="M 12.046885 60.424463 L 12.046885 66.559312 L 34.475522 55.085269 L 34.475522 48.803076 Z M 12.046885 60.424463 " transform="matrix(1.55946,0,0,1.458115,0.248519,0.339526)"/>
<path style="fill-rule:evenodd;fill:rgb(100%,100%,100%);fill-opacity:1;stroke-width:1.317531;stroke-linecap:round;stroke-linejoin:round;stroke:rgb(9.019608%,2.352941%,47.843137%);stroke-opacity:1;stroke-miterlimit:10;" d="M 11.939176 66.811135 L 11.939176 60.678965 L 34.370317 72.150329 L 34.370317 78.432522 Z M 11.939176 66.811135 " transform="matrix(1.55946,0,0,1.458115,0.248519,0.339526)"/>
<path style="fill-rule:evenodd;fill:rgb(19.215686%,20%,56.470588%);fill-opacity:1;stroke-width:1.317531;stroke-linecap:round;stroke-linejoin:round;stroke:rgb(9.019608%,2.352941%,47.843137%);stroke-opacity:1;stroke-miterlimit:10;" d="M 11.934166 48.827187 L 11.934166 54.959357 L 34.360297 43.487993 L 34.360297 37.2058 Z M 11.934166 48.827187 " transform="matrix(1.55946,0,0,1.458115,0.248519,0.339526)"/>
<path style="fill-rule:evenodd;fill:rgb(100%,100%,100%);fill-opacity:1;stroke-width:1.317531;stroke-linecap:round;stroke-linejoin:round;stroke:rgb(9.019608%,2.352941%,47.843137%);stroke-opacity:1;stroke-miterlimit:10;" d="M 11.821447 54.988826 L 11.821447 48.856656 L 34.250083 60.325341 L 34.250083 66.610212 Z M 11.821447 54.988826 " transform="matrix(1.55946,0,0,1.458115,0.248519,0.339526)"/>
<path style="fill-rule:evenodd;fill:rgb(100%,100%,100%);fill-opacity:1;stroke-width:1.317531;stroke-linecap:round;stroke-linejoin:round;stroke:rgb(9.019608%,2.352941%,47.843137%);stroke-opacity:1;stroke-miterlimit:10;" d="M 11.989273 43.453166 L 11.989273 37.320996 L 34.417909 48.789681 L 34.417909 55.074553 Z M 11.989273 43.453166 " transform="matrix(1.55946,0,0,1.458115,0.248519,0.339526)"/>
<path style="fill-rule:evenodd;fill:rgb(19.215686%,20%,56.470588%);fill-opacity:1;stroke-width:1.317531;stroke-linecap:round;stroke-linejoin:round;stroke:rgb(9.019608%,2.352941%,47.843137%);stroke-opacity:1;stroke-miterlimit:10;" d="M 12.029351 95.489545 L 12.029351 101.624394 L 34.457987 90.150351 L 34.457987 83.868159 Z M 12.029351 95.489545 " transform="matrix(1.55946,0,0,1.458115,0.248519,0.339526)"/>
<path style="fill-rule:evenodd;fill:rgb(100%,100%,100%);fill-opacity:1;stroke-width:1.317531;stroke-linecap:round;stroke-linejoin:round;stroke:rgb(9.019608%,2.352941%,47.843137%);stroke-opacity:1;stroke-miterlimit:10;" d="M 11.801408 90.053908 L 11.801408 83.919059 L 34.230044 95.390423 L 34.230044 101.675295 Z M 11.801408 90.053908 " transform="matrix(1.55946,0,0,1.458115,0.248519,0.339526)"/>
<path style="fill-rule:evenodd;fill:rgb(19.215686%,20%,56.470588%);fill-opacity:1;stroke-width:1.317531;stroke-linecap:round;stroke-linejoin:round;stroke:rgb(9.019608%,2.352941%,47.843137%);stroke-opacity:1;stroke-miterlimit:10;" d="M 11.964225 188.918742 L 11.964225 195.053591 L 34.392861 183.579548 L 34.392861 177.297355 Z M 11.964225 188.918742 " transform="matrix(1.55946,0,0,1.458115,0.248519,0.339526)"/>
<path style="fill-rule:evenodd;fill:rgb(19.215686%,20%,56.470588%);fill-opacity:1;stroke-width:1.317531;stroke-linecap:round;stroke-linejoin:round;stroke:rgb(9.019608%,2.352941%,47.843137%);stroke-opacity:1;stroke-miterlimit:10;" d="M 12.079449 200.518696 L 12.079449 206.650867 L 34.508085 195.182182 L 34.508085 188.89731 Z M 12.079449 200.518696 " transform="matrix(1.55946,0,0,1.458115,0.248519,0.339526)"/>
<path style="fill-rule:evenodd;fill:rgb(100%,100%,100%);fill-opacity:1;stroke-width:1.317531;stroke-linecap:round;stroke-linejoin:round;stroke:rgb(9.019608%,2.352941%,47.843137%);stroke-opacity:1;stroke-miterlimit:10;" d="M 11.85401 195.083059 L 11.85401 188.94821 L 34.280141 200.419574 L 34.280141 206.704446 Z M 11.85401 195.083059 " transform="matrix(1.55946,0,0,1.458115,0.248519,0.339526)"/>
<path style="fill-rule:evenodd;fill:rgb(19.215686%,20%,56.470588%);fill-opacity:1;stroke-width:1.317531;stroke-linecap:round;stroke-linejoin:round;stroke:rgb(9.019608%,2.352941%,47.843137%);stroke-opacity:1;stroke-miterlimit:10;" d="M 12.132051 177.160728 L 12.132051 183.290219 L 34.558182 171.821534 L 34.558182 165.536662 Z M 12.132051 177.160728 " transform="matrix(1.55946,0,0,1.458115,0.248519,0.339526)"/>
<path style="fill-rule:evenodd;fill:rgb(100%,100%,100%);fill-opacity:1;stroke-width:1.317531;stroke-linecap:round;stroke-linejoin:round;stroke:rgb(9.019608%,2.352941%,47.843137%);stroke-opacity:1;stroke-miterlimit:10;" d="M 12.024342 183.544721 L 12.024342 177.412551 L 34.452978 188.883915 L 34.452978 195.168787 Z M 12.024342 183.544721 " transform="matrix(1.55946,0,0,1.458115,0.248519,0.339526)"/>
<path style="fill-rule:evenodd;fill:rgb(19.215686%,20%,56.470588%);fill-opacity:1;stroke-width:1.317531;stroke-linecap:round;stroke-linejoin:round;stroke:rgb(9.019608%,2.352941%,47.843137%);stroke-opacity:1;stroke-miterlimit:10;" d="M 12.016827 165.560773 L 12.016827 171.695622 L 34.442958 160.221579 L 34.442958 153.942065 Z M 12.016827 165.560773 " transform="matrix(1.55946,0,0,1.458115,0.248519,0.339526)"/>
<path style="fill-rule:evenodd;fill:rgb(100%,100%,100%);fill-opacity:1;stroke-width:1.317531;stroke-linecap:round;stroke-linejoin:round;stroke:rgb(9.019608%,2.352941%,47.843137%);stroke-opacity:1;stroke-miterlimit:10;" d="M 11.904108 171.725091 L 11.904108 165.590242 L 34.332744 177.061606 L 34.332744 183.343798 Z M 11.904108 171.725091 " transform="matrix(1.55946,0,0,1.458115,0.248519,0.339526)"/>
<path style="fill-rule:evenodd;fill:rgb(100%,100%,100%);fill-opacity:1;stroke-width:1.317531;stroke-linecap:round;stroke-linejoin:round;stroke:rgb(9.019608%,2.352941%,47.843137%);stroke-opacity:1;stroke-miterlimit:10;" d="M 12.071934 160.186752 L 12.071934 154.054582 L 34.50057 165.523267 L 34.50057 171.808139 Z M 12.071934 160.186752 " transform="matrix(1.55946,0,0,1.458115,0.248519,0.339526)"/>
<path style="fill-rule:evenodd;fill:rgb(19.215686%,20%,56.470588%);fill-opacity:1;stroke-width:1.317531;stroke-linecap:round;stroke-linejoin:round;stroke:rgb(9.019608%,2.352941%,47.843137%);stroke-opacity:1;stroke-miterlimit:10;" d="M 131.937639 113.320792 L 131.937639 107.183264 L 154.366275 118.662665 L 154.366275 124.950215 Z M 131.937639 113.320792 " transform="matrix(1.55946,0,0,1.458115,0.248519,0.339526)"/>
<path style="fill-rule:evenodd;fill:rgb(19.215686%,20%,56.470588%);fill-opacity:1;stroke-width:1.317531;stroke-linecap:round;stroke-linejoin:round;stroke:rgb(9.019608%,2.352941%,47.843137%);stroke-opacity:1;stroke-miterlimit:10;" d="M 132.050359 101.718158 L 132.050359 95.58063 L 154.4815 107.057352 L 154.4815 113.344903 Z M 132.050359 101.718158 " transform="matrix(1.55946,0,0,1.458115,0.248519,0.339526)"/>
<path style="fill-rule:evenodd;fill:rgb(100%,100%,100%);fill-opacity:1;stroke-width:1.317531;stroke-linecap:round;stroke-linejoin:round;stroke:rgb(9.019608%,2.352941%,47.843137%);stroke-opacity:1;stroke-miterlimit:10;" d="M 131.82492 107.153795 L 131.82492 113.291323 L 154.253556 101.81728 L 154.253556 95.527051 Z M 131.82492 107.153795 " transform="matrix(1.55946,0,0,1.458115,0.248519,0.339526)"/>
<path style="fill-rule:evenodd;fill:rgb(19.215686%,20%,56.470588%);fill-opacity:1;stroke-width:1.317531;stroke-linecap:round;stroke-linejoin:round;stroke:rgb(9.019608%,2.352941%,47.843137%);stroke-opacity:1;stroke-miterlimit:10;" d="M 132.097951 125.089522 L 132.097951 118.951994 L 154.529092 130.428716 L 154.529092 136.716267 Z M 132.097951 125.089522 " transform="matrix(1.55946,0,0,1.458115,0.248519,0.339526)"/>
<path style="fill-rule:evenodd;fill:rgb(100%,100%,100%);fill-opacity:1;stroke-width:1.317531;stroke-linecap:round;stroke-linejoin:round;stroke:rgb(9.019608%,2.352941%,47.843137%);stroke-opacity:1;stroke-miterlimit:10;" d="M 131.995251 118.697492 L 131.995251 124.83502 L 154.421383 113.358298 L 154.421383 107.070747 Z M 131.995251 118.697492 " transform="matrix(1.55946,0,0,1.458115,0.248519,0.339526)"/>
<path style="fill-rule:evenodd;fill:rgb(19.215686%,20%,56.470588%);fill-opacity:1;stroke-width:1.317531;stroke-linecap:round;stroke-linejoin:round;stroke:rgb(9.019608%,2.352941%,47.843137%);stroke-opacity:1;stroke-miterlimit:10;" d="M 131.990242 136.694835 L 131.990242 130.557307 L 154.416373 142.036708 L 154.416373 148.324258 Z M 131.990242 136.694835 " transform="matrix(1.55946,0,0,1.458115,0.248519,0.339526)"/>
<path style="fill-rule:evenodd;fill:rgb(100%,100%,100%);fill-opacity:1;stroke-width:1.317531;stroke-linecap:round;stroke-linejoin:round;stroke:rgb(9.019608%,2.352941%,47.843137%);stroke-opacity:1;stroke-miterlimit:10;" d="M 131.875017 130.527838 L 131.875017 136.662687 L 154.303654 125.188644 L 154.303654 118.901094 Z M 131.875017 130.527838 " transform="matrix(1.55946,0,0,1.458115,0.248519,0.339526)"/>
<path style="fill-rule:evenodd;fill:rgb(100%,100%,100%);fill-opacity:1;stroke-width:1.317531;stroke-linecap:round;stroke-linejoin:round;stroke:rgb(9.019608%,2.352941%,47.843137%);stroke-opacity:1;stroke-miterlimit:10;" d="M 132.045349 142.071534 L 132.045349 148.209062 L 154.473985 136.729661 L 154.473985 130.44479 Z M 132.045349 142.071534 " transform="matrix(1.55946,0,0,1.458115,0.248519,0.339526)"/>
<path style="fill-rule:evenodd;fill:rgb(19.215686%,20%,56.470588%);fill-opacity:1;stroke-width:1.317531;stroke-linecap:round;stroke-linejoin:round;stroke:rgb(9.019608%,2.352941%,47.843137%);stroke-opacity:1;stroke-miterlimit:10;" d="M 132.085427 90.005687 L 132.085427 83.86548 L 154.511558 95.344881 L 154.511558 101.632431 Z M 132.085427 90.005687 " transform="matrix(1.55946,0,0,1.458115,0.248519,0.339526)"/>
<path style="fill-rule:evenodd;fill:rgb(100%,100%,100%);fill-opacity:1;stroke-width:1.317531;stroke-linecap:round;stroke-linejoin:round;stroke:rgb(9.019608%,2.352941%,47.843137%);stroke-opacity:1;stroke-miterlimit:10;" d="M 131.854978 95.444003 L 131.854978 101.581531 L 154.286119 90.10213 L 154.286119 83.814579 Z M 131.854978 95.444003 " transform="matrix(1.55946,0,0,1.458115,0.248519,0.339526)"/>
<path style="fill-rule:evenodd;fill:rgb(19.215686%,20%,56.470588%);fill-opacity:1;stroke-width:1.317531;stroke-linecap:round;stroke-linejoin:round;stroke:rgb(9.019608%,2.352941%,47.843137%);stroke-opacity:1;stroke-miterlimit:10;" d="M 131.852474 171.80546 L 131.852474 165.667932 L 154.283615 177.147333 L 154.283615 183.432204 Z M 131.852474 171.80546 " transform="matrix(1.55946,0,0,1.458115,0.248519,0.339526)"/>
<path style="fill-rule:evenodd;fill:rgb(19.215686%,20%,56.470588%);fill-opacity:1;stroke-width:1.317531;stroke-linecap:round;stroke-linejoin:round;stroke:rgb(9.019608%,2.352941%,47.843137%);stroke-opacity:1;stroke-miterlimit:10;" d="M 131.967698 160.200147 L 131.967698 154.062619 L 154.396334 165.539341 L 154.396334 171.826892 Z M 131.967698 160.200147 " transform="matrix(1.55946,0,0,1.458115,0.248519,0.339526)"/>
<path style="fill-rule:evenodd;fill:rgb(100%,100%,100%);fill-opacity:1;stroke-width:1.317531;stroke-linecap:round;stroke-linejoin:round;stroke:rgb(9.019608%,2.352941%,47.843137%);stroke-opacity:1;stroke-miterlimit:10;" d="M 131.742259 165.638463 L 131.742259 171.775991 L 154.170895 160.29659 L 154.170895 154.011719 Z M 131.742259 165.638463 " transform="matrix(1.55946,0,0,1.458115,0.248519,0.339526)"/>
<path style="fill-rule:evenodd;fill:rgb(19.215686%,20%,56.470588%);fill-opacity:1;stroke-width:1.317531;stroke-linecap:round;stroke-linejoin:round;stroke:rgb(9.019608%,2.352941%,47.843137%);stroke-opacity:1;stroke-miterlimit:10;" d="M 132.017795 183.571511 L 132.017795 177.436662 L 154.446431 188.910705 L 154.446431 195.200934 Z M 132.017795 183.571511 " transform="matrix(1.55946,0,0,1.458115,0.248519,0.339526)"/>
<path style="fill-rule:evenodd;fill:rgb(100%,100%,100%);fill-opacity:1;stroke-width:1.317531;stroke-linecap:round;stroke-linejoin:round;stroke:rgb(9.019608%,2.352941%,47.843137%);stroke-opacity:1;stroke-miterlimit:10;" d="M 131.912591 177.182159 L 131.912591 183.317008 L 154.338722 171.840286 L 154.338722 165.552736 Z M 131.912591 177.182159 " transform="matrix(1.55946,0,0,1.458115,0.248519,0.339526)"/>
<path style="fill-rule:evenodd;fill:rgb(19.215686%,20%,56.470588%);fill-opacity:1;stroke-width:1.317531;stroke-linecap:round;stroke-linejoin:round;stroke:rgb(9.019608%,2.352941%,47.843137%);stroke-opacity:1;stroke-miterlimit:10;" d="M 131.902571 195.179503 L 131.902571 189.041975 L 154.333712 200.518696 L 154.333712 206.803568 Z M 131.902571 195.179503 " transform="matrix(1.55946,0,0,1.458115,0.248519,0.339526)"/>
<path style="fill-rule:evenodd;fill:rgb(100%,100%,100%);fill-opacity:1;stroke-width:1.317531;stroke-linecap:round;stroke-linejoin:round;stroke:rgb(9.019608%,2.352941%,47.843137%);stroke-opacity:1;stroke-miterlimit:10;" d="M 131.794862 189.012506 L 131.794862 195.147355 L 154.218488 183.667954 L 154.218488 177.383082 Z M 131.794862 189.012506 " transform="matrix(1.55946,0,0,1.458115,0.248519,0.339526)"/>
<path style="fill-rule:evenodd;fill:rgb(100%,100%,100%);fill-opacity:1;stroke-width:1.317531;stroke-linecap:round;stroke-linejoin:round;stroke:rgb(9.019608%,2.352941%,47.843137%);stroke-opacity:1;stroke-miterlimit:10;" d="M 131.962688 200.556202 L 131.962688 206.691051 L 154.391324 195.214329 L 154.391324 188.926779 Z M 131.962688 200.556202 " transform="matrix(1.55946,0,0,1.458115,0.248519,0.339526)"/>
<path style="fill-rule:evenodd;fill:rgb(19.215686%,20%,56.470588%);fill-opacity:1;stroke-width:1.317531;stroke-linecap:round;stroke-linejoin:round;stroke:rgb(9.019608%,2.352941%,47.843137%);stroke-opacity:1;stroke-miterlimit:10;" d="M 132.000261 148.487676 L 132.000261 142.350148 L 154.428897 153.829548 L 154.428897 160.11442 Z M 132.000261 148.487676 " transform="matrix(1.55946,0,0,1.458115,0.248519,0.339526)"/>
<path style="fill-rule:evenodd;fill:rgb(100%,100%,100%);fill-opacity:1;stroke-width:1.317531;stroke-linecap:round;stroke-linejoin:round;stroke:rgb(9.019608%,2.352941%,47.843137%);stroke-opacity:1;stroke-miterlimit:10;" d="M 131.774823 153.92867 L 131.774823 160.06352 L 154.200954 148.586798 L 154.200954 142.296568 Z M 131.774823 153.92867 " transform="matrix(1.55946,0,0,1.458115,0.248519,0.339526)"/>
<path style="fill-rule:evenodd;fill:rgb(19.215686%,20%,56.470588%);fill-opacity:1;stroke-width:1.317531;stroke-linecap:round;stroke-linejoin:round;stroke:rgb(9.019608%,2.352941%,47.843137%);stroke-opacity:1;stroke-miterlimit:10;" d="M 131.937639 54.999542 L 131.937639 48.864693 L 154.366275 60.341414 L 154.366275 66.628965 Z M 131.937639 54.999542 " transform="matrix(1.55946,0,0,1.458115,0.248519,0.339526)"/>
<path style="fill-rule:evenodd;fill:rgb(19.215686%,20%,56.470588%);fill-opacity:1;stroke-width:1.317531;stroke-linecap:round;stroke-linejoin:round;stroke:rgb(9.019608%,2.352941%,47.843137%);stroke-opacity:1;stroke-miterlimit:10;" d="M 132.050359 43.394229 L 132.050359 37.256701 L 154.4815 48.736102 L 154.4815 55.020973 Z M 132.050359 43.394229 " transform="matrix(1.55946,0,0,1.458115,0.248519,0.339526)"/>
<path style="fill-rule:evenodd;fill:rgb(100%,100%,100%);fill-opacity:1;stroke-width:1.317531;stroke-linecap:round;stroke-linejoin:round;stroke:rgb(9.019608%,2.352941%,47.843137%);stroke-opacity:1;stroke-miterlimit:10;" d="M 131.82492 48.832545 L 131.82492 54.970073 L 154.253556 43.493351 L 154.253556 37.2058 Z M 131.82492 48.832545 " transform="matrix(1.55946,0,0,1.458115,0.248519,0.339526)"/>
<path style="fill-rule:evenodd;fill:rgb(19.215686%,20%,56.470588%);fill-opacity:1;stroke-width:1.317531;stroke-linecap:round;stroke-linejoin:round;stroke:rgb(9.019608%,2.352941%,47.843137%);stroke-opacity:1;stroke-miterlimit:10;" d="M 132.097951 66.768272 L 132.097951 60.630744 L 154.529092 72.110145 L 154.529092 78.395016 Z M 132.097951 66.768272 " transform="matrix(1.55946,0,0,1.458115,0.248519,0.339526)"/>
<path style="fill-rule:evenodd;fill:rgb(100%,100%,100%);fill-opacity:1;stroke-width:1.317531;stroke-linecap:round;stroke-linejoin:round;stroke:rgb(9.019608%,2.352941%,47.843137%);stroke-opacity:1;stroke-miterlimit:10;" d="M 131.995251 60.376241 L 131.995251 66.513769 L 154.421383 55.034368 L 154.421383 48.749497 Z M 131.995251 60.376241 " transform="matrix(1.55946,0,0,1.458115,0.248519,0.339526)"/>
<path style="fill-rule:evenodd;fill:rgb(19.215686%,20%,56.470588%);fill-opacity:1;stroke-width:1.317531;stroke-linecap:round;stroke-linejoin:round;stroke:rgb(9.019608%,2.352941%,47.843137%);stroke-opacity:1;stroke-miterlimit:10;" d="M 131.990242 78.373584 L 131.990242 72.238735 L 154.416373 83.712778 L 154.416373 90.000329 Z M 131.990242 78.373584 " transform="matrix(1.55946,0,0,1.458115,0.248519,0.339526)"/>
<path style="fill-rule:evenodd;fill:rgb(100%,100%,100%);fill-opacity:1;stroke-width:1.317531;stroke-linecap:round;stroke-linejoin:round;stroke:rgb(9.019608%,2.352941%,47.843137%);stroke-opacity:1;stroke-miterlimit:10;" d="M 131.875017 72.206588 L 131.875017 78.341437 L 154.303654 66.864715 L 154.303654 60.577164 Z M 131.875017 72.206588 " transform="matrix(1.55946,0,0,1.458115,0.248519,0.339526)"/>
<path style="fill-rule:evenodd;fill:rgb(100%,100%,100%);fill-opacity:1;stroke-width:1.317531;stroke-linecap:round;stroke-linejoin:round;stroke:rgb(9.019608%,2.352941%,47.843137%);stroke-opacity:1;stroke-miterlimit:10;" d="M 132.045349 83.750284 L 132.045349 89.887812 L 154.473985 78.408411 L 154.473985 72.123539 Z M 132.045349 83.750284 " transform="matrix(1.55946,0,0,1.458115,0.248519,0.339526)"/>
<path style="fill-rule:evenodd;fill:rgb(19.215686%,20%,56.470588%);fill-opacity:1;stroke-width:1.317531;stroke-linecap:round;stroke-linejoin:round;stroke:rgb(9.019608%,2.352941%,47.843137%);stroke-opacity:1;stroke-miterlimit:10;" d="M 68.549314 11.511767 L 62.259577 11.511767 L 74.022462 33.326647 L 80.467501 33.326647 Z M 68.549314 11.511767 " transform="matrix(1.55946,0,0,1.458115,0.248519,0.339526)"/>
<path style="fill-rule:evenodd;fill:rgb(19.215686%,20%,56.470588%);fill-opacity:1;stroke-width:1.317531;stroke-linecap:round;stroke-linejoin:round;stroke:rgb(9.019608%,2.352941%,47.843137%);stroke-opacity:1;stroke-miterlimit:10;" d="M 56.65367 11.621605 L 50.361428 11.621605 L 62.124314 33.436485 L 68.571858 33.436485 Z M 56.65367 11.621605 " transform="matrix(1.55946,0,0,1.458115,0.248519,0.339526)"/>
<path style="fill-rule:evenodd;fill:rgb(100%,100%,100%);fill-opacity:1;stroke-width:1.317531;stroke-linecap:round;stroke-linejoin:round;stroke:rgb(9.019608%,2.352941%,47.843137%);stroke-opacity:1;stroke-miterlimit:10;" d="M 62.227014 11.401929 L 68.516751 11.401929 L 56.75136 33.216809 L 50.308826 33.216809 Z M 62.227014 11.401929 " transform="matrix(1.55946,0,0,1.458115,0.248519,0.339526)"/>
<path style="fill-rule:evenodd;fill:rgb(19.215686%,20%,56.470588%);fill-opacity:1;stroke-width:1.317531;stroke-linecap:round;stroke-linejoin:round;stroke:rgb(9.019608%,2.352941%,47.843137%);stroke-opacity:1;stroke-miterlimit:10;" d="M 80.607774 11.667147 L 74.315532 11.667147 L 86.080923 33.484706 L 92.528467 33.484706 Z M 80.607774 11.667147 " transform="matrix(1.55946,0,0,1.458115,0.248519,0.339526)"/>
<path style="fill-rule:evenodd;fill:rgb(100%,100%,100%);fill-opacity:1;stroke-width:1.317531;stroke-linecap:round;stroke-linejoin:round;stroke:rgb(9.019608%,2.352941%,47.843137%);stroke-opacity:1;stroke-miterlimit:10;" d="M 74.05753 11.568025 L 80.349772 11.568025 L 68.584382 33.382905 L 62.141848 33.382905 Z M 74.05753 11.568025 " transform="matrix(1.55946,0,0,1.458115,0.248519,0.339526)"/>
<path style="fill-rule:evenodd;fill:rgb(19.215686%,20%,56.470588%);fill-opacity:1;stroke-width:1.317531;stroke-linecap:round;stroke-linejoin:round;stroke:rgb(9.019608%,2.352941%,47.843137%);stroke-opacity:1;stroke-miterlimit:10;" d="M 116.460027 11.65911 L 110.17029 11.65911 L 121.933175 33.476669 L 128.378214 33.476669 Z M 116.460027 11.65911 " transform="matrix(1.55946,0,0,1.458115,0.248519,0.339526)"/>
<path style="fill-rule:evenodd;fill:rgb(19.215686%,20%,56.470588%);fill-opacity:1;stroke-width:1.317531;stroke-linecap:round;stroke-linejoin:round;stroke:rgb(9.019608%,2.352941%,47.843137%);stroke-opacity:1;stroke-miterlimit:10;" d="M 92.503418 11.559988 L 86.213681 11.559988 L 97.979071 33.374868 L 104.426615 33.374868 Z M 92.503418 11.559988 " transform="matrix(1.55946,0,0,1.458115,0.248519,0.339526)"/>
<path style="fill-rule:evenodd;fill:rgb(100%,100%,100%);fill-opacity:1;stroke-width:1.317531;stroke-linecap:round;stroke-linejoin:round;stroke:rgb(9.019608%,2.352941%,47.843137%);stroke-opacity:1;stroke-miterlimit:10;" d="M 86.181118 11.45015 L 92.470855 11.45015 L 80.710474 33.265031 L 74.265435 33.265031 Z M 86.181118 11.45015 " transform="matrix(1.55946,0,0,1.458115,0.248519,0.339526)"/>
<path style="fill-rule:evenodd;fill:rgb(19.215686%,20%,56.470588%);fill-opacity:1;stroke-width:1.317531;stroke-linecap:round;stroke-linejoin:round;stroke:rgb(9.019608%,2.352941%,47.843137%);stroke-opacity:1;stroke-miterlimit:10;" d="M 104.564383 11.768948 L 98.274646 11.768948 L 110.040036 33.586507 L 116.482571 33.586507 Z M 104.564383 11.768948 " transform="matrix(1.55946,0,0,1.458115,0.248519,0.339526)"/>
<path style="fill-rule:evenodd;fill:rgb(100%,100%,100%);fill-opacity:1;stroke-width:1.317531;stroke-linecap:round;stroke-linejoin:round;stroke:rgb(9.019608%,2.352941%,47.843137%);stroke-opacity:1;stroke-miterlimit:10;" d="M 98.016644 11.616247 L 104.308886 11.616247 L 92.540991 33.431127 L 86.095952 33.431127 Z M 98.016644 11.616247 " transform="matrix(1.55946,0,0,1.458115,0.248519,0.339526)"/>
<path style="fill-rule:evenodd;fill:rgb(100%,100%,100%);fill-opacity:1;stroke-width:1.317531;stroke-linecap:round;stroke-linejoin:round;stroke:rgb(9.019608%,2.352941%,47.843137%);stroke-opacity:1;stroke-miterlimit:10;" d="M 110.137726 11.551951 L 116.429968 11.551951 L 104.664578 33.366832 L 98.222044 33.366832 Z M 110.137726 11.551951 " transform="matrix(1.55946,0,0,1.458115,0.248519,0.339526)"/>
<path style="fill-rule:evenodd;fill:rgb(19.215686%,20%,56.470588%);fill-opacity:1;stroke-width:1.317531;stroke-linecap:round;stroke-linejoin:round;stroke:rgb(9.019608%,2.352941%,47.843137%);stroke-opacity:1;stroke-miterlimit:10;" d="M 128.485924 11.715369 L 122.196187 11.715369 L 133.959072 33.532928 L 140.404111 33.532928 Z M 128.485924 11.715369 " transform="matrix(1.55946,0,0,1.458115,0.248519,0.339526)"/>
<path style="fill-rule:evenodd;fill:rgb(100%,100%,100%);fill-opacity:1;stroke-width:1.317531;stroke-linecap:round;stroke-linejoin:round;stroke:rgb(9.019608%,2.352941%,47.843137%);stroke-opacity:1;stroke-miterlimit:10;" d="M 121.970748 11.71269 L 128.260485 11.71269 L 116.500105 33.530249 L 110.052561 33.530249 Z M 121.970748 11.71269 " transform="matrix(1.55946,0,0,1.458115,0.248519,0.339526)"/>
<path style="fill-rule:evenodd;fill:rgb(19.215686%,20%,56.470588%);fill-opacity:1;stroke-width:1.317531;stroke-linecap:round;stroke-linejoin:round;stroke:rgb(9.019608%,2.352941%,47.843137%);stroke-opacity:1;stroke-miterlimit:10;" d="M 44.647812 11.653752 L 38.358075 11.653752 L 50.123465 33.465954 L 56.566 33.465954 Z M 44.647812 11.653752 " transform="matrix(1.55946,0,0,1.458115,0.248519,0.339526)"/>
<path style="fill-rule:evenodd;fill:rgb(19.215686%,20%,56.470588%);fill-opacity:1;stroke-width:1.317531;stroke-linecap:round;stroke-linejoin:round;stroke:rgb(9.019608%,2.352941%,47.843137%);stroke-opacity:1;stroke-miterlimit:10;" d="M 32.867393 11.436755 L 26.580161 11.436755 L 38.343046 33.251636 L 44.788085 33.251636 Z M 32.867393 11.436755 " transform="matrix(1.55946,0,0,1.458115,0.248519,0.339526)"/>
<path style="fill-rule:evenodd;fill:rgb(100%,100%,100%);fill-opacity:1;stroke-width:1.317531;stroke-linecap:round;stroke-linejoin:round;stroke:rgb(9.019608%,2.352941%,47.843137%);stroke-opacity:1;stroke-miterlimit:10;" d="M 50.221156 11.431398 L 56.513397 11.431398 L 44.748007 33.246278 L 38.302968 33.246278 Z M 50.221156 11.431398 " transform="matrix(1.55946,0,0,1.458115,0.248519,0.339526)"/>
<path style="fill-rule:evenodd;fill:rgb(19.215686%,20%,56.470588%);fill-opacity:1;stroke-width:1.317531;stroke-linecap:round;stroke-linejoin:round;stroke:rgb(9.019608%,2.352941%,47.843137%);stroke-opacity:1;stroke-miterlimit:10;" d="M 20.95672 11.436755 L 14.666983 11.436755 L 26.432373 33.251636 L 32.877412 33.251636 Z M 20.95672 11.436755 " transform="matrix(1.55946,0,0,1.458115,0.248519,0.339526)"/>
<path style="fill-rule:evenodd;fill:rgb(100%,100%,100%);fill-opacity:1;stroke-width:1.317531;stroke-linecap:round;stroke-linejoin:round;stroke:rgb(9.019608%,2.352941%,47.843137%);stroke-opacity:1;stroke-miterlimit:10;" d="M 38.340541 11.436755 L 44.630278 11.436755 L 32.864888 33.251636 L 26.424859 33.251636 Z M 38.340541 11.436755 " transform="matrix(1.55946,0,0,1.458115,0.248519,0.339526)"/>
<path style="fill-rule:evenodd;fill:rgb(100%,100%,100%);fill-opacity:1;stroke-width:1.317531;stroke-linecap:round;stroke-linejoin:round;stroke:rgb(9.019608%,2.352941%,47.843137%);stroke-opacity:1;stroke-miterlimit:10;" d="M 26.58517 11.436755 L 32.877412 11.436755 L 21.112022 33.251636 L 14.666983 33.251636 Z M 26.58517 11.436755 " transform="matrix(1.55946,0,0,1.458115,0.248519,0.339526)"/>
<path style="fill-rule:evenodd;fill:rgb(19.215686%,20%,56.470588%);fill-opacity:1;stroke-width:1.317531;stroke-linecap:round;stroke-linejoin:round;stroke:rgb(9.019608%,2.352941%,47.843137%);stroke-opacity:1;stroke-miterlimit:10;" d="M 140.384072 11.60821 L 134.09183 11.60821 L 145.857221 33.42309 L 152.30226 33.42309 Z M 140.384072 11.60821 " transform="matrix(1.55946,0,0,1.458115,0.248519,0.339526)"/>
<path style="fill-rule:evenodd;fill:rgb(100%,100%,100%);fill-opacity:1;stroke-width:1.317531;stroke-linecap:round;stroke-linejoin:round;stroke:rgb(9.019608%,2.352941%,47.843137%);stroke-opacity:1;stroke-miterlimit:10;" d="M 134.061772 11.498372 L 140.351509 11.498372 L 128.586119 33.313252 L 122.138575 33.313252 Z M 134.061772 11.498372 " transform="matrix(1.55946,0,0,1.458115,0.248519,0.339526)"/>
<path style="fill-rule:evenodd;fill:rgb(100%,100%,100%);fill-opacity:1;stroke-width:1.317531;stroke-linecap:round;stroke-linejoin:round;stroke:rgb(9.019608%,2.352941%,47.843137%);stroke-opacity:1;stroke-miterlimit:10;" d="M 145.892289 11.661789 L 152.182026 11.661789 L 140.41914 33.479348 L 133.974101 33.479348 Z M 145.892289 11.661789 " transform="matrix(1.55946,0,0,1.458115,0.248519,0.339526)"/>
<path style="fill-rule:evenodd;fill:rgb(19.215686%,20%,56.470588%);fill-opacity:1;stroke-width:1.317531;stroke-linecap:round;stroke-linejoin:round;stroke:rgb(9.019608%,2.352941%,47.843137%);stroke-opacity:1;stroke-miterlimit:10;" d="M 68.889977 209.932609 L 62.597735 209.932609 L 74.363125 231.747489 L 80.805659 231.747489 Z M 68.889977 209.932609 " transform="matrix(1.55946,0,0,1.458115,0.248519,0.339526)"/>
<path style="fill-rule:evenodd;fill:rgb(19.215686%,20%,56.470588%);fill-opacity:1;stroke-width:1.317531;stroke-linecap:round;stroke-linejoin:round;stroke:rgb(9.019608%,2.352941%,47.843137%);stroke-opacity:1;stroke-miterlimit:10;" d="M 56.994333 210.045126 L 50.702091 210.045126 L 62.467481 231.860006 L 68.912521 231.860006 Z M 56.994333 210.045126 " transform="matrix(1.55946,0,0,1.458115,0.248519,0.339526)"/>
<path style="fill-rule:evenodd;fill:rgb(100%,100%,100%);fill-opacity:1;stroke-width:1.317531;stroke-linecap:round;stroke-linejoin:round;stroke:rgb(9.019608%,2.352941%,47.843137%);stroke-opacity:1;stroke-miterlimit:10;" d="M 62.565171 209.82545 L 68.857413 209.82545 L 57.094528 231.64033 L 50.649489 231.64033 Z M 62.565171 209.82545 " transform="matrix(1.55946,0,0,1.458115,0.248519,0.339526)"/>
<path style="fill-rule:evenodd;fill:rgb(19.215686%,20%,56.470588%);fill-opacity:1;stroke-width:1.317531;stroke-linecap:round;stroke-linejoin:round;stroke:rgb(9.019608%,2.352941%,47.843137%);stroke-opacity:1;stroke-miterlimit:10;" d="M 80.948437 210.093347 L 74.6587 210.093347 L 86.421585 231.905549 L 92.866625 231.905549 Z M 80.948437 210.093347 " transform="matrix(1.55946,0,0,1.458115,0.248519,0.339526)"/>
<path style="fill-rule:evenodd;fill:rgb(100%,100%,100%);fill-opacity:1;stroke-width:1.317531;stroke-linecap:round;stroke-linejoin:round;stroke:rgb(9.019608%,2.352941%,47.843137%);stroke-opacity:1;stroke-miterlimit:10;" d="M 74.400698 209.988867 L 80.68793 209.988867 L 68.925045 231.806427 L 62.480006 231.806427 Z M 74.400698 209.988867 " transform="matrix(1.55946,0,0,1.458115,0.248519,0.339526)"/>
<path style="fill-rule:evenodd;fill:rgb(19.215686%,20%,56.470588%);fill-opacity:1;stroke-width:1.317531;stroke-linecap:round;stroke-linejoin:round;stroke:rgb(9.019608%,2.352941%,47.843137%);stroke-opacity:1;stroke-miterlimit:10;" d="M 116.80069 210.082631 L 110.508448 210.082631 L 122.276343 231.897512 L 128.721382 231.897512 Z M 116.80069 210.082631 " transform="matrix(1.55946,0,0,1.458115,0.248519,0.339526)"/>
<path style="fill-rule:evenodd;fill:rgb(19.215686%,20%,56.470588%);fill-opacity:1;stroke-width:1.317531;stroke-linecap:round;stroke-linejoin:round;stroke:rgb(9.019608%,2.352941%,47.843137%);stroke-opacity:1;stroke-miterlimit:10;" d="M 92.846586 209.98083 L 86.554344 209.98083 L 98.317229 231.795711 L 104.764773 231.795711 Z M 92.846586 209.98083 " transform="matrix(1.55946,0,0,1.458115,0.248519,0.339526)"/>
<path style="fill-rule:evenodd;fill:rgb(100%,100%,100%);fill-opacity:1;stroke-width:1.317531;stroke-linecap:round;stroke-linejoin:round;stroke:rgb(9.019608%,2.352941%,47.843137%);stroke-opacity:1;stroke-miterlimit:10;" d="M 86.524285 209.873672 L 92.816527 209.873672 L 81.051137 231.688552 L 74.606098 231.688552 Z M 86.524285 209.873672 " transform="matrix(1.55946,0,0,1.458115,0.248519,0.339526)"/>
<path style="fill-rule:evenodd;fill:rgb(19.215686%,20%,56.470588%);fill-opacity:1;stroke-width:1.317531;stroke-linecap:round;stroke-linejoin:round;stroke:rgb(9.019608%,2.352941%,47.843137%);stroke-opacity:1;stroke-miterlimit:10;" d="M 104.905046 210.195148 L 98.615309 210.195148 L 110.378194 232.010029 L 116.825738 232.010029 Z M 104.905046 210.195148 " transform="matrix(1.55946,0,0,1.458115,0.248519,0.339526)"/>
<path style="fill-rule:evenodd;fill:rgb(100%,100%,100%);fill-opacity:1;stroke-width:1.317531;stroke-linecap:round;stroke-linejoin:round;stroke:rgb(9.019608%,2.352941%,47.843137%);stroke-opacity:1;stroke-miterlimit:10;" d="M 98.354802 210.039768 L 104.647044 210.039768 L 92.879149 231.851969 L 86.43912 231.851969 Z M 98.354802 210.039768 " transform="matrix(1.55946,0,0,1.458115,0.248519,0.339526)"/>
<path style="fill-rule:evenodd;fill:rgb(100%,100%,100%);fill-opacity:1;stroke-width:1.317531;stroke-linecap:round;stroke-linejoin:round;stroke:rgb(9.019608%,2.352941%,47.843137%);stroke-opacity:1;stroke-miterlimit:10;" d="M 110.480894 209.972794 L 116.768126 209.972794 L 105.007746 231.790353 L 98.560202 231.790353 Z M 110.480894 209.972794 " transform="matrix(1.55946,0,0,1.458115,0.248519,0.339526)"/>
<path style="fill-rule:evenodd;fill:rgb(19.215686%,20%,56.470588%);fill-opacity:1;stroke-width:1.317531;stroke-linecap:round;stroke-linejoin:round;stroke:rgb(9.019608%,2.352941%,47.843137%);stroke-opacity:1;stroke-miterlimit:10;" d="M 128.65375 210.208543 L 122.361508 210.208543 L 134.129403 232.023423 L 140.569433 232.023423 Z M 128.65375 210.208543 " transform="matrix(1.55946,0,0,1.458115,0.248519,0.339526)"/>
<path style="fill-rule:evenodd;fill:rgb(100%,100%,100%);fill-opacity:1;stroke-width:1.317531;stroke-linecap:round;stroke-linejoin:round;stroke:rgb(9.019608%,2.352941%,47.843137%);stroke-opacity:1;stroke-miterlimit:10;" d="M 122.313916 210.13889 L 128.603653 210.13889 L 116.838263 231.95377 L 110.390719 231.95377 Z M 122.313916 210.13889 " transform="matrix(1.55946,0,0,1.458115,0.248519,0.339526)"/>
<path style="fill-rule:evenodd;fill:rgb(19.215686%,20%,56.470588%);fill-opacity:1;stroke-width:1.317531;stroke-linecap:round;stroke-linejoin:round;stroke:rgb(9.019608%,2.352941%,47.843137%);stroke-opacity:1;stroke-miterlimit:10;" d="M 44.988475 210.074595 L 38.698738 210.074595 L 50.461623 231.889475 L 56.906663 231.889475 Z M 44.988475 210.074595 " transform="matrix(1.55946,0,0,1.458115,0.248519,0.339526)"/>
<path style="fill-rule:evenodd;fill:rgb(19.215686%,20%,56.470588%);fill-opacity:1;stroke-width:1.317531;stroke-linecap:round;stroke-linejoin:round;stroke:rgb(9.019608%,2.352941%,47.843137%);stroke-opacity:1;stroke-miterlimit:10;" d="M 33.000151 210.117458 L 26.707909 210.117458 L 38.470795 231.932338 L 44.918339 231.932338 Z M 33.000151 210.117458 " transform="matrix(1.55946,0,0,1.458115,0.248519,0.339526)"/>
<path style="fill-rule:evenodd;fill:rgb(100%,100%,100%);fill-opacity:1;stroke-width:1.317531;stroke-linecap:round;stroke-linejoin:round;stroke:rgb(9.019608%,2.352941%,47.843137%);stroke-opacity:1;stroke-miterlimit:10;" d="M 50.564323 209.854919 L 56.85406 209.854919 L 45.08867 231.669799 L 38.646136 231.669799 Z M 50.564323 209.854919 " transform="matrix(1.55946,0,0,1.458115,0.248519,0.339526)"/>
<path style="fill-rule:evenodd;fill:rgb(19.215686%,20%,56.470588%);fill-opacity:1;stroke-width:1.317531;stroke-linecap:round;stroke-linejoin:round;stroke:rgb(9.019608%,2.352941%,47.843137%);stroke-opacity:1;stroke-miterlimit:10;" d="M 140.549394 210.098705 L 134.259657 210.098705 L 146.020037 231.913585 L 152.467581 231.913585 Z M 140.549394 210.098705 " transform="matrix(1.55946,0,0,1.458115,0.248519,0.339526)"/>
<path style="fill-rule:evenodd;fill:rgb(100%,100%,100%);fill-opacity:1;stroke-width:1.317531;stroke-linecap:round;stroke-linejoin:round;stroke:rgb(9.019608%,2.352941%,47.843137%);stroke-opacity:1;stroke-miterlimit:10;" d="M 134.227094 209.988867 L 140.516831 209.988867 L 128.753945 231.806427 L 122.306401 231.806427 Z M 134.227094 209.988867 " transform="matrix(1.55946,0,0,1.458115,0.248519,0.339526)"/>
<path style="fill-rule:evenodd;fill:rgb(100%,100%,100%);fill-opacity:1;stroke-width:1.317531;stroke-linecap:round;stroke-linejoin:round;stroke:rgb(9.019608%,2.352941%,47.843137%);stroke-opacity:1;stroke-miterlimit:10;" d="M 146.05761 210.154964 L 152.347347 210.154964 L 140.581957 231.969844 L 134.139423 231.969844 Z M 146.05761 210.154964 " transform="matrix(1.55946,0,0,1.458115,0.248519,0.339526)"/>
<path style="fill-rule:evenodd;fill:rgb(100%,100%,100%);fill-opacity:1;stroke-width:1.317531;stroke-linecap:round;stroke-linejoin:round;stroke:rgb(9.019608%,2.352941%,47.843137%);stroke-opacity:1;stroke-miterlimit:10;" d="M 38.573494 209.895103 L 44.865736 209.895103 L 33.097841 231.712662 L 26.655307 231.712662 Z M 38.573494 209.895103 " transform="matrix(1.55946,0,0,1.458115,0.248519,0.339526)"/>
<path style="fill-rule:evenodd;fill:rgb(19.215686%,20%,56.470588%);fill-opacity:1;stroke-width:1.317531;stroke-linecap:round;stroke-linejoin:round;stroke:rgb(9.019608%,2.352941%,47.843137%);stroke-opacity:1;stroke-miterlimit:10;" d="M 20.994293 210.146927 L 14.702051 210.146927 L 26.469946 231.961807 L 32.914985 231.961807 Z M 20.994293 210.146927 " transform="matrix(1.55946,0,0,1.458115,0.248519,0.339526)"/>
<path style="fill-rule:evenodd;fill:rgb(100%,100%,100%);fill-opacity:1;stroke-width:1.317531;stroke-linecap:round;stroke-linejoin:round;stroke:rgb(9.019608%,2.352941%,47.843137%);stroke-opacity:1;stroke-miterlimit:10;" d="M 26.567636 209.927251 L 32.859878 209.927251 L 21.096993 231.742131 L 14.649449 231.742131 Z M 26.567636 209.927251 " transform="matrix(1.55946,0,0,1.458115,0.248519,0.339526)"/>
<path style="fill:none;stroke-width:0.500454;stroke-linecap:butt;stroke-linejoin:miter;stroke:rgb(0%,0%,0%);stroke-opacity:1;stroke-miterlimit:4;" d="M 166.830525 235.543594 C 166.830525 239.320947 163.742016 242.415161 159.959658 242.415161 L 7.10978 242.415161 C 3.337441 242.415161 0.248932 239.320947 0.248932 235.543594 L 0.248932 7.11825 C 0.248932 3.340898 3.337441 0.249363 7.10978 0.249363 L 159.959658 0.249363 C 163.742016 0.249363 166.830525 3.340898 166.830525 7.11825 Z M 166.830525 235.543594 " transform="matrix(1.55946,0,0,1.458115,0.248519,0.339526)"/>
</g>
</svg>
